SymPub-Black.ufo
<glyph name="periodcentered" format="2">
  <advance width="289"/>
  <unicode hex="00B7"/>
  <outline>
    <contour>
      <point x="42" y="353" type="curve" smooth="yes"/>
      <point x="42" y="287"/>
      <point x="89" y="260"/>
      <point x="146" y="260" type="curve" smooth="yes"/>
      <point x="200" y="260"/>
      <point x="246" y="287"/>
      <point x="246" y="353" type="curve" smooth="yes"/>
      <point x="246" y="422"/>
      <point x="200" y="447"/>
      <point x="146" y="447" type="curve" smooth="yes"/>
      <point x="89" y="447"/>
      <point x="42" y="422"/>
    </contour>
  </outline>
</glyph>
<glyph name="triangularbullet" format="2">
  <advance width="461"/>
  <unicode hex="2023"/>
  <outline>
    <contour>
      <point x="55" y="134" type="line"/>
      <point x="452" y="373" type="line"/>
      <point x="55" y="611" type="line"/>
    </contour>
  </outline>
</glyph>
<glyph name="leftCeiling" format="2">
  <advance width="404"/>
  <unicode hex="2308"/>
  <note>
uni2308
</note>
  <anchor x="201" y="0" name="center"/>
  <outline>
    <contour>
      <point x="30" y="-110" type="line"/>
      <point x="165" y="-110" type="line"/>
      <point x="165" y="696" type="line"/>
      <point x="373" y="696" type="line"/>
      <point x="373" y="824" type="line"/>
      <point x="30" y="824" type="line"/>
    </contour>
  </outline>
</glyph>
<glyph name="rightCeiling" format="2">
  <advance width="404"/>
  <unicode hex="2309"/>
  <note>
uni2309
</note>
  <anchor x="201" y="0" name="center"/>
  <outline>
    <contour>
      <point x="239" y="-110" type="line"/>
      <point x="373" y="-110" type="line"/>
      <point x="373" y="824" type="line"/>
      <point x="30" y="824" type="line"/>
      <point x="30" y="696" type="line"/>
      <point x="239" y="696" type="line"/>
    </contour>
  </outline>
</glyph>
<glyph name="leftFloor" format="2">
  <advance width="404"/>
  <unicode hex="230A"/>
  <note>
uni230A
</note>
  <anchor x="201" y="0" name="center"/>
  <outline>
    <contour>
      <point x="30" y="-110" type="line"/>
      <point x="373" y="-110" type="line"/>
      <point x="373" y="18" type="line"/>
      <point x="166" y="18" type="line"/>
      <point x="166" y="824" type="line"/>
      <point x="30" y="824" type="line"/>
    </contour>
  </outline>
</glyph>
<glyph name="rightFloor" format="2">
  <advance width="404"/>
  <unicode hex="230B"/>
  <note>
uni230B
</note>
  <anchor x="201" y="0" name="center"/>
  <outline>
    <contour>
      <point x="30" y="-110" type="line"/>
      <point x="373" y="-110" type="line"/>
      <point x="373" y="824" type="line"/>
      <point x="238" y="824" type="line"/>
      <point x="238" y="18" type="line"/>
      <point x="30" y="18" type="line"/>
    </contour>
  </outline>
</glyph>
<glyph name="topLeftCorner" format="2">
  <advance width="442"/>
  <unicode hex="231C"/>
  <note>
uni231C
</note>
  <anchor x="220" y="0" name="center"/>
  <outline>
    <contour>
      <point x="32" y="312" type="line"/>
      <point x="167" y="312" type="line"/>
      <point x="167" y="580" type="line"/>
      <point x="409" y="580" type="line"/>
      <point x="409" y="714" type="line"/>
      <point x="32" y="714" type="line"/>
    </contour>
  </outline>
</glyph>
<glyph name="bottomLeftCorner" format="2">
  <advance width="442"/>
  <unicode hex="231E"/>
  <note>
uni231E
</note>
  <anchor x="220" y="0" name="center"/>
  <outline>
    <contour>
      <point x="32" y="0" type="line"/>
      <point x="409" y="0" type="line"/>
      <point x="409" y="134" type="line"/>
      <point x="167" y="134" type="line"/>
      <point x="167" y="402" type="line"/>
      <point x="32" y="402" type="line"/>
    </contour>
  </outline>
</glyph>
<glyph name="bottomRightCorner" format="2">
  <advance width="442"/>
  <unicode hex="231F"/>
  <note>
uni231F
</note>
  <anchor x="220" y="0" name="center"/>
  <outline>
    <contour>
      <point x="32" y="0" type="line"/>
      <point x="409" y="0" type="line"/>
      <point x="409" y="402" type="line"/>
      <point x="275" y="402" type="line"/>
      <point x="275" y="134" type="line"/>
      <point x="32" y="134" type="line"/>
    </contour>
  </outline>
</glyph>
<glyph name="onecircle" format="2">
  <advance width="1000"/>
  <unicode hex="2460"/>
  <note>
uni2460
</note>
  <anchor x="500" y="0" name="center"/>
  <outline>
    <component base="_circledComp"/>
    <contour>
      <point x="452" y="134" type="line"/>
      <point x="574" y="134" type="line"/>
      <point x="574" y="580" type="line"/>
      <point x="466" y="580" type="line"/>
      <point x="313" y="455" type="line"/>
      <point x="375" y="378" type="line"/>
      <point x="392" y="392"/>
      <point x="409" y="406"/>
      <point x="426" y="420" type="curve" smooth="yes"/>
      <point x="435" y="427"/>
      <point x="443" y="437"/>
      <point x="454" y="449" type="curve"/>
      <point x="452" y="417"/>
      <point x="452" y="366"/>
      <point x="452" y="354" type="curve" smooth="yes"/>
    </contour>
  </outline>
</glyph>
<glyph name="twocircle" format="2">
  <advance width="1000"/>
  <unicode hex="2461"/>
  <note>
uni2461
</note>
  <anchor x="500" y="0" name="center"/>
  <outline>
    <component base="_circledComp"/>
    <contour>
      <point x="345" y="136" type="line"/>
      <point x="668" y="136" type="line"/>
      <point x="668" y="235" type="line"/>
      <point x="500" y="235" type="line"/>
      <point x="500" y="238" type="line"/>
      <point x="532" y="268" type="line" smooth="yes"/>
      <point x="616" y="346"/>
      <point x="660" y="389"/>
      <point x="660" y="466" type="curve" smooth="yes"/>
      <point x="660" y="537"/>
      <point x="602" y="588"/>
      <point x="511" y="588" type="curve" smooth="yes"/>
      <point x="422" y="588"/>
      <point x="380" y="553"/>
      <point x="340" y="517" type="curve"/>
      <point x="406" y="439" type="line"/>
      <point x="442" y="471"/>
      <point x="469" y="487"/>
      <point x="497" y="487" type="curve" smooth="yes"/>
      <point x="521" y="487"/>
      <point x="541" y="476"/>
      <point x="541" y="450" type="curve" smooth="yes"/>
      <point x="541" y="417"/>
      <point x="523" y="394"/>
      <point x="454" y="325" type="curve" smooth="yes"/>
      <point x="345" y="215" type="line"/>
    </contour>
  </outline>
</glyph>
<glyph name="fourcircle" format="2">
  <advance width="1000"/>
  <unicode hex="2463"/>
  <note>
uni2463
</note>
  <anchor x="500" y="0" name="center"/>
  <outline>
    <component base="_circledComp"/>
    <contour>
      <point x="479" y="134" type="line"/>
      <point x="599" y="134" type="line"/>
      <point x="599" y="220" type="line"/>
      <point x="647" y="220" type="line"/>
      <point x="647" y="310" type="line"/>
      <point x="599" y="310" type="line"/>
      <point x="599" y="580" type="line"/>
      <point x="487" y="580" type="line"/>
      <point x="302" y="309" type="line"/>
      <point x="302" y="220" type="line"/>
      <point x="479" y="220" type="line"/>
    </contour>
    <contour>
      <point x="406" y="310" type="line"/>
      <point x="456" y="384" type="line" smooth="yes"/>
      <point x="466" y="399"/>
      <point x="471" y="410"/>
      <point x="479" y="428" type="curve"/>
      <point x="482" y="428" type="line"/>
      <point x="481" y="426"/>
      <point x="479" y="381"/>
      <point x="479" y="362" type="curve" smooth="yes"/>
      <point x="479" y="310" type="line"/>
    </contour>
  </outline>
</glyph>
<glyph name="sevencircle" format="2">
  <advance width="1000"/>
  <unicode hex="2466"/>
  <note>
uni2466
</note>
  <anchor x="500" y="0" name="center"/>
  <outline>
    <component base="_circledComp"/>
    <contour>
      <point x="388" y="134" type="line"/>
      <point x="512" y="134" type="line"/>
      <point x="669" y="509" type="line"/>
      <point x="669" y="580" type="line"/>
      <point x="348" y="580" type="line"/>
      <point x="348" y="480" type="line"/>
      <point x="541" y="480" type="line"/>
    </contour>
  </outline>
</glyph>
<glyph name="tencircle" format="2">
  <advance width="1000"/>
  <unicode hex="2469"/>
  <note>
uni2469
</note>
  <anchor x="500" y="0" name="center"/>
  <outline>
    <component base="_circledComp"/>
    <contour>
      <point x="615" y="178" type="curve" smooth="yes"/>
      <point x="709" y="178"/>
      <point x="742" y="245"/>
      <point x="742" y="357" type="curve" smooth="yes"/>
      <point x="742" y="470"/>
      <point x="703" y="537"/>
      <point x="615" y="537" type="curve" smooth="yes"/>
      <point x="522" y="537"/>
      <point x="489" y="470"/>
      <point x="489" y="357" type="curve" smooth="yes"/>
      <point x="489" y="245"/>
      <point x="527" y="178"/>
    </contour>
    <contour>
      <point x="347" y="181" type="line"/>
      <point x="443" y="181" type="line"/>
      <point x="443" y="532" type="line"/>
      <point x="358" y="532" type="line"/>
      <point x="237" y="434" type="line"/>
      <point x="287" y="373" type="line"/>
      <point x="300" y="384"/>
      <point x="312" y="395"/>
      <point x="326" y="405" type="curve" smooth="yes"/>
      <point x="334" y="411"/>
      <point x="339" y="420"/>
      <point x="348" y="428" type="curve"/>
      <point x="347" y="403"/>
      <point x="347" y="364"/>
      <point x="347" y="355" type="curve" smooth="yes"/>
    </contour>
    <contour>
      <point x="615" y="252" type="curve" smooth="yes"/>
      <point x="589" y="252"/>
      <point x="584" y="288"/>
      <point x="584" y="357" type="curve" smooth="yes"/>
      <point x="584" y="426"/>
      <point x="589" y="463"/>
      <point x="615" y="463" type="curve" smooth="yes"/>
      <point x="642" y="463"/>
      <point x="647" y="426"/>
      <point x="647" y="357" type="curve" smooth="yes"/>
      <point x="647" y="288"/>
      <point x="642" y="252"/>
    </contour>
  </outline>
</glyph>
<glyph name="elevencircle" format="2">
  <advance width="1000"/>
  <unicode hex="246A"/>
  <note>
uni246A
</note>
  <anchor x="500" y="0" name="center"/>
  <outline>
    <component base="_circledComp"/>
    <contour>
      <point x="600" y="172" type="line"/>
      <point x="700" y="172" type="line"/>
      <point x="700" y="541" type="line"/>
      <point x="612" y="541" type="line"/>
      <point x="485" y="438" type="line"/>
      <point x="536" y="375" type="line"/>
      <point x="550" y="386"/>
      <point x="565" y="396"/>
      <point x="578" y="407" type="curve" smooth="yes"/>
      <point x="586" y="414"/>
      <point x="592" y="423"/>
      <point x="601" y="433" type="curve"/>
      <point x="600" y="405"/>
      <point x="600" y="364"/>
      <point x="600" y="355" type="curve" smooth="yes"/>
    </contour>
    <contour>
      <point x="346" y="172" type="line"/>
      <point x="446" y="172" type="line"/>
      <point x="446" y="541" type="line"/>
      <point x="358" y="541" type="line"/>
      <point x="231" y="438" type="line"/>
      <point x="282" y="375" type="line"/>
      <point x="296" y="386"/>
      <point x="311" y="396"/>
      <point x="324" y="407" type="curve" smooth="yes"/>
      <point x="332" y="414"/>
      <point x="338" y="423"/>
      <point x="347" y="433" type="curve"/>
      <point x="346" y="405"/>
      <point x="346" y="364"/>
      <point x="346" y="355" type="curve" smooth="yes"/>
    </contour>
  </outline>
</glyph>
<glyph name="fourteencircle" format="2">
  <advance width="1000"/>
  <unicode hex="246D"/>
  <note>
uni246D
</note>
  <anchor x="500" y="0" name="center"/>
  <outline>
    <component base="_circledComp"/>
    <contour>
      <point x="617" y="173" type="line"/>
      <point x="716" y="173" type="line"/>
      <point x="716" y="244" type="line"/>
      <point x="756" y="244" type="line"/>
      <point x="756" y="318" type="line"/>
      <point x="716" y="318" type="line"/>
      <point x="716" y="541" type="line"/>
      <point x="623" y="541" type="line"/>
      <point x="470" y="317" type="line"/>
      <point x="470" y="244" type="line"/>
      <point x="617" y="244" type="line"/>
    </contour>
    <contour>
      <point x="338" y="172" type="line"/>
      <point x="439" y="172" type="line"/>
      <point x="439" y="541" type="line"/>
      <point x="349" y="541" type="line"/>
      <point x="222" y="438" type="line"/>
      <point x="274" y="375" type="line"/>
      <point x="288" y="386"/>
      <point x="303" y="395"/>
      <point x="316" y="407" type="curve" smooth="yes"/>
      <point x="324" y="414"/>
      <point x="329" y="423"/>
      <point x="339" y="433" type="curve"/>
      <point x="338" y="405"/>
      <point x="338" y="364"/>
      <point x="338" y="355" type="curve" smooth="yes"/>
    </contour>
    <contour>
      <point x="556" y="318" type="line"/>
      <point x="596" y="379" type="line" smooth="yes"/>
      <point x="605" y="393"/>
      <point x="610" y="401"/>
      <point x="616" y="416" type="curve"/>
      <point x="619" y="416" type="line"/>
      <point x="618" y="414"/>
      <point x="617" y="377"/>
      <point x="617" y="361" type="curve" smooth="yes"/>
      <point x="617" y="318" type="line"/>
    </contour>
  </outline>
</glyph>
<glyph name="seventeencircle" format="2">
  <advance width="1000"/>
  <unicode hex="2470"/>
  <note>
uni2470
</note>
  <anchor x="500" y="0" name="center"/>
  <outline>
    <component base="_circledComp"/>
    <contour>
      <point x="517" y="173" type="line"/>
      <point x="620" y="173" type="line"/>
      <point x="750" y="482" type="line"/>
      <point x="750" y="541" type="line"/>
      <point x="484" y="541" type="line"/>
      <point x="484" y="459" type="line"/>
      <point x="643" y="459" type="line"/>
    </contour>
    <contour>
      <point x="338" y="172" type="line"/>
      <point x="439" y="172" type="line"/>
      <point x="439" y="541" type="line"/>
      <point x="350" y="541" type="line"/>
      <point x="222" y="438" type="line"/>
      <point x="275" y="375" type="line"/>
      <point x="289" y="386"/>
      <point x="303" y="395"/>
      <point x="316" y="407" type="curve" smooth="yes"/>
      <point x="324" y="414"/>
      <point x="331" y="423"/>
      <point x="339" y="433" type="curve"/>
      <point x="338" y="405"/>
      <point x="338" y="364"/>
      <point x="338" y="355" type="curve" smooth="yes"/>
    </contour>
  </outline>
</glyph>
<glyph name="elevenblackcircle" format="2">
  <advance width="1000"/>
  <unicode hex="24EB"/>
  <note>
uni24EB
</note>
  <anchor x="500" y="0" name="center"/>
  <outline>
    <component base="_blackCircledComp"/>
    <contour>
      <point x="604" y="181" type="line"/>
      <point x="604" y="355" type="line" smooth="yes"/>
      <point x="604" y="364"/>
      <point x="604" y="403"/>
      <point x="605" y="429" type="curve"/>
      <point x="596" y="420"/>
      <point x="589" y="412"/>
      <point x="583" y="405" type="curve" smooth="yes"/>
      <point x="572" y="392"/>
      <point x="556" y="385"/>
      <point x="543" y="374" type="curve"/>
      <point x="494" y="434" type="line"/>
      <point x="615" y="532" type="line"/>
      <point x="699" y="532" type="line"/>
      <point x="699" y="181" type="line"/>
    </contour>
    <contour>
      <point x="362" y="181" type="line"/>
      <point x="362" y="355" type="line" smooth="yes"/>
      <point x="362" y="364"/>
      <point x="362" y="403"/>
      <point x="363" y="429" type="curve"/>
      <point x="354" y="420"/>
      <point x="347" y="412"/>
      <point x="341" y="405" type="curve" smooth="yes"/>
      <point x="330" y="392"/>
      <point x="314" y="385"/>
      <point x="301" y="374" type="curve"/>
      <point x="252" y="434" type="line"/>
      <point x="373" y="532" type="line"/>
      <point x="457" y="532" type="line"/>
      <point x="457" y="181" type="line"/>
    </contour>
  </outline>
</glyph>
<glyph name="twelveblackcircle" format="2">
  <advance width="1000"/>
  <unicode hex="24EC"/>
  <note>
uni24EC
</note>
  <anchor x="500" y="0" name="center"/>
  <outline>
    <component base="_blackCircledComp"/>
    <contour>
      <point x="482" y="183" type="line"/>
      <point x="482" y="246" type="line"/>
      <point x="568" y="331" type="line" smooth="yes"/>
      <point x="623" y="385"/>
      <point x="637" y="404"/>
      <point x="637" y="429" type="curve" smooth="yes"/>
      <point x="637" y="450"/>
      <point x="620" y="459"/>
      <point x="601" y="459" type="curve" smooth="yes"/>
      <point x="580" y="459"/>
      <point x="558" y="446"/>
      <point x="530" y="422" type="curve"/>
      <point x="478" y="483" type="line"/>
      <point x="510" y="511"/>
      <point x="543" y="538"/>
      <point x="613" y="538" type="curve" smooth="yes"/>
      <point x="684" y="538"/>
      <point x="730" y="499"/>
      <point x="730" y="444" type="curve" smooth="yes"/>
      <point x="730" y="382"/>
      <point x="698" y="346"/>
      <point x="630" y="286" type="curve" smooth="yes"/>
      <point x="604" y="263" type="line"/>
      <point x="737" y="262" type="line"/>
      <point x="737" y="183" type="line"/>
    </contour>
    <contour>
      <point x="347" y="181" type="line"/>
      <point x="347" y="355" type="line" smooth="yes"/>
      <point x="347" y="363"/>
      <point x="347" y="403"/>
      <point x="348" y="428" type="curve"/>
      <point x="340" y="419"/>
      <point x="333" y="412"/>
      <point x="326" y="405" type="curve" smooth="yes"/>
      <point x="314" y="393"/>
      <point x="300" y="384"/>
      <point x="287" y="373" type="curve"/>
      <point x="237" y="434" type="line"/>
      <point x="358" y="532" type="line"/>
      <point x="443" y="532" type="line"/>
      <point x="443" y="181" type="line"/>
    </contour>
  </outline>
</glyph>
<glyph name="circlednumrev14" format="2">
  <advance width="1000"/>
  <unicode hex="24EE"/>
  <anchor x="500" y="357" name="C"/>
  <anchor x="370" y="357" name="L"/>
  <anchor x="630" y="357" name="R"/>
  <anchor x="650" y="357" name="_L"/>
  <anchor x="360" y="357" name="_R"/>
  <anchor x="500" y="0" name="center"/>
  <outline>
    <contour>
      <point x="500" y="-55" type="curve" smooth="yes"/>
      <point x="728" y="-55"/>
      <point x="912" y="129"/>
      <point x="912" y="357" type="curve" smooth="yes"/>
      <point x="912" y="584"/>
      <point x="728" y="769"/>
      <point x="500" y="769" type="curve" smooth="yes"/>
      <point x="272" y="769"/>
      <point x="88" y="584"/>
      <point x="88" y="357" type="curve" smooth="yes"/>
      <point x="88" y="129"/>
      <point x="272" y="-55"/>
    </contour>
    <contour>
      <point x="253" y="172" type="line"/>
      <point x="253" y="255" type="line"/>
      <point x="328" y="255" type="line"/>
      <point x="328" y="355" type="line" smooth="yes"/>
      <point x="328" y="364"/>
      <point x="328" y="405"/>
      <point x="329" y="433" type="curve"/>
      <point x="320" y="423"/>
      <point x="315" y="414"/>
      <point x="307" y="407" type="curve" smooth="yes"/>
      <point x="295" y="396"/>
      <point x="281" y="386"/>
      <point x="268" y="375" type="curve"/>
      <point x="220" y="438" type="line"/>
      <point x="339" y="541" type="line"/>
      <point x="422" y="541" type="line"/>
      <point x="422" y="255" type="line"/>
      <point x="497" y="255" type="line"/>
      <point x="497" y="172" type="line"/>
    </contour>
    <contour>
      <point x="639" y="173" type="line"/>
      <point x="639" y="244" type="line"/>
      <point x="501" y="244" type="line"/>
      <point x="501" y="317" type="line"/>
      <point x="645" y="541" type="line"/>
      <point x="732" y="541" type="line"/>
      <point x="732" y="318" type="line"/>
      <point x="770" y="318" type="line"/>
      <point x="770" y="244" type="line"/>
      <point x="732" y="244" type="line"/>
      <point x="732" y="173" type="line"/>
    </contour>
    <contour>
      <point x="582" y="318" type="line"/>
      <point x="639" y="318" type="line"/>
      <point x="639" y="361" type="line" smooth="yes"/>
      <point x="639" y="377"/>
      <point x="640" y="414"/>
      <point x="641" y="416" type="curve"/>
      <point x="638" y="416" type="line"/>
      <point x="632" y="401"/>
      <point x="628" y="393"/>
      <point x="619" y="379" type="curve" smooth="yes"/>
    </contour>
  </outline>
</glyph>
<glyph name="circlednumrev15" format="2">
  <advance width="1000"/>
  <unicode hex="24EF"/>
  <anchor x="500" y="357" name="C"/>
  <anchor x="370" y="357" name="L"/>
  <anchor x="630" y="357" name="R"/>
  <anchor x="640" y="357" name="_L"/>
  <anchor x="360" y="357" name="_R"/>
  <anchor x="500" y="0" name="center"/>
  <outline>
    <contour>
      <point x="500" y="-55" type="curve" smooth="yes"/>
      <point x="728" y="-55"/>
      <point x="912" y="129"/>
      <point x="912" y="357" type="curve" smooth="yes"/>
      <point x="912" y="584"/>
      <point x="728" y="769"/>
      <point x="500" y="769" type="curve" smooth="yes"/>
      <point x="272" y="769"/>
      <point x="88" y="584"/>
      <point x="88" y="357" type="curve" smooth="yes"/>
      <point x="88" y="129"/>
      <point x="272" y="-55"/>
    </contour>
    <contour>
      <point x="253" y="172" type="line"/>
      <point x="253" y="255" type="line"/>
      <point x="328" y="255" type="line"/>
      <point x="328" y="355" type="line" smooth="yes"/>
      <point x="328" y="364"/>
      <point x="328" y="405"/>
      <point x="329" y="433" type="curve"/>
      <point x="320" y="423"/>
      <point x="315" y="414"/>
      <point x="307" y="407" type="curve" smooth="yes"/>
      <point x="295" y="396"/>
      <point x="281" y="386"/>
      <point x="268" y="375" type="curve"/>
      <point x="220" y="438" type="line"/>
      <point x="339" y="541" type="line"/>
      <point x="422" y="541" type="line"/>
      <point x="422" y="255" type="line"/>
      <point x="497" y="255" type="line"/>
      <point x="497" y="172" type="line"/>
    </contour>
    <contour>
      <point x="622" y="165" type="curve" smooth="yes"/>
      <point x="581" y="165"/>
      <point x="549" y="171"/>
      <point x="522" y="186" type="curve"/>
      <point x="522" y="267" type="line"/>
      <point x="548" y="255"/>
      <point x="585" y="244"/>
      <point x="614" y="244" type="curve" smooth="yes"/>
      <point x="649" y="244"/>
      <point x="669" y="260"/>
      <point x="669" y="290" type="curve" smooth="yes"/>
      <point x="669" y="318"/>
      <point x="649" y="334"/>
      <point x="611" y="334" type="curve" smooth="yes"/>
      <point x="593" y="334"/>
      <point x="575" y="330"/>
      <point x="562" y="327" type="curve"/>
      <point x="529" y="344" type="line"/>
      <point x="542" y="539" type="line"/>
      <point x="738" y="539" type="line"/>
      <point x="738" y="456" type="line"/>
      <point x="622" y="456" type="line"/>
      <point x="617" y="408" type="line"/>
      <point x="627" y="409"/>
      <point x="635" y="412"/>
      <point x="658" y="412" type="curve" smooth="yes"/>
      <point x="715" y="412"/>
      <point x="763" y="369"/>
      <point x="763" y="293" type="curve" smooth="yes"/>
      <point x="763" y="210"/>
      <point x="716" y="165"/>
    </contour>
  </outline>
</glyph>
<glyph name="circlednumrev16" format="2">
  <advance width="1000"/>
  <unicode hex="24F0"/>
  <anchor x="500" y="357" name="C"/>
  <anchor x="370" y="357" name="L"/>
  <anchor x="630" y="357" name="R"/>
  <anchor x="650" y="357" name="_L"/>
  <anchor x="360" y="357" name="_R"/>
  <anchor x="500" y="0" name="center"/>
  <outline>
    <contour>
      <point x="500" y="-55" type="curve" smooth="yes"/>
      <point x="728" y="-55"/>
      <point x="912" y="129"/>
      <point x="912" y="357" type="curve" smooth="yes"/>
      <point x="912" y="584"/>
      <point x="728" y="769"/>
      <point x="500" y="769" type="curve" smooth="yes"/>
      <point x="272" y="769"/>
      <point x="88" y="584"/>
      <point x="88" y="357" type="curve" smooth="yes"/>
      <point x="88" y="129"/>
      <point x="272" y="-55"/>
    </contour>
    <contour>
      <point x="253" y="172" type="line"/>
      <point x="253" y="255" type="line"/>
      <point x="328" y="255" type="line"/>
      <point x="328" y="355" type="line" smooth="yes"/>
      <point x="328" y="364"/>
      <point x="328" y="405"/>
      <point x="329" y="433" type="curve"/>
      <point x="320" y="423"/>
      <point x="315" y="414"/>
      <point x="307" y="407" type="curve" smooth="yes"/>
      <point x="295" y="396"/>
      <point x="281" y="386"/>
      <point x="268" y="375" type="curve"/>
      <point x="220" y="438" type="line"/>
      <point x="339" y="541" type="line"/>
      <point x="422" y="541" type="line"/>
      <point x="422" y="255" type="line"/>
      <point x="497" y="255" type="line"/>
      <point x="497" y="172" type="line"/>
    </contour>
    <contour>
      <point x="645" y="168" type="curve" smooth="yes"/>
      <point x="570" y="168"/>
      <point x="514" y="218"/>
      <point x="514" y="330" type="curve" smooth="yes"/>
      <point x="514" y="435"/>
      <point x="541" y="546"/>
      <point x="695" y="546" type="curve" smooth="yes"/>
      <point x="709" y="546"/>
      <point x="731" y="544"/>
      <point x="745" y="543" type="curve"/>
      <point x="745" y="464" type="line"/>
      <point x="731" y="466"/>
      <point x="717" y="469"/>
      <point x="693" y="469" type="curve" smooth="yes"/>
      <point x="623" y="469"/>
      <point x="601" y="435"/>
      <point x="599" y="376" type="curve"/>
      <point x="601" y="376" type="line"/>
      <point x="614" y="400"/>
      <point x="633" y="418"/>
      <point x="670" y="418" type="curve" smooth="yes"/>
      <point x="730" y="418"/>
      <point x="766" y="376"/>
      <point x="766" y="299" type="curve" smooth="yes"/>
      <point x="766" y="216"/>
      <point x="720" y="168"/>
    </contour>
    <contour>
      <point x="642" y="246" type="curve" smooth="yes"/>
      <point x="663" y="246"/>
      <point x="677" y="263"/>
      <point x="677" y="297" type="curve" smooth="yes"/>
      <point x="677" y="324"/>
      <point x="666" y="342"/>
      <point x="643" y="342" type="curve" smooth="yes"/>
      <point x="620" y="342"/>
      <point x="607" y="321"/>
      <point x="607" y="301" type="curve" smooth="yes"/>
      <point x="607" y="276"/>
      <point x="617" y="246"/>
    </contour>
  </outline>
</glyph>
<glyph name="sixteenblackcircle" format="2">
  <advance width="1000"/>
  <unicode hex="24F0"/>
  <note>
uni24F0
</note>
  <anchor x="500" y="0" name="center"/>
  <outline>
    <component base="_blackCircledComp"/>
    <contour>
      <point x="622" y="177" type="curve" smooth="yes"/>
      <point x="547" y="177"/>
      <point x="490" y="225"/>
      <point x="490" y="331" type="curve" smooth="yes"/>
      <point x="490" y="431"/>
      <point x="518" y="537"/>
      <point x="674" y="537" type="curve" smooth="yes"/>
      <point x="687" y="537"/>
      <point x="710" y="535"/>
      <point x="724" y="534" type="curve"/>
      <point x="724" y="459" type="line"/>
      <point x="710" y="461"/>
      <point x="696" y="464"/>
      <point x="671" y="464" type="curve" smooth="yes"/>
      <point x="601" y="464"/>
      <point x="579" y="431"/>
      <point x="576" y="375" type="curve"/>
      <point x="579" y="375" type="line"/>
      <point x="591" y="398"/>
      <point x="611" y="415"/>
      <point x="648" y="415" type="curve" smooth="yes"/>
      <point x="709" y="415"/>
      <point x="746" y="375"/>
      <point x="746" y="302" type="curve" smooth="yes"/>
      <point x="746" y="223"/>
      <point x="699" y="177"/>
    </contour>
    <contour>
      <point x="347" y="181" type="line"/>
      <point x="347" y="355" type="line" smooth="yes"/>
      <point x="347" y="364"/>
      <point x="347" y="403"/>
      <point x="348" y="428" type="curve"/>
      <point x="339" y="420"/>
      <point x="333" y="412"/>
      <point x="326" y="405" type="curve" smooth="yes"/>
      <point x="314" y="393"/>
      <point x="300" y="384"/>
      <point x="286" y="373" type="curve"/>
      <point x="237" y="434" type="line"/>
      <point x="358" y="532" type="line"/>
      <point x="443" y="532" type="line"/>
      <point x="443" y="181" type="line"/>
    </contour>
    <contour>
      <point x="620" y="251" type="curve" smooth="yes"/>
      <point x="641" y="251"/>
      <point x="655" y="267"/>
      <point x="655" y="300" type="curve" smooth="yes"/>
      <point x="655" y="326"/>
      <point x="644" y="343"/>
      <point x="621" y="343" type="curve" smooth="yes"/>
      <point x="598" y="343"/>
      <point x="584" y="323"/>
      <point x="584" y="304" type="curve" smooth="yes"/>
      <point x="584" y="280"/>
      <point x="595" y="251"/>
    </contour>
  </outline>
</glyph>
<glyph name="seventeenblackcircle" format="2">
  <advance width="1000"/>
  <unicode hex="24F1"/>
  <note>
uni24F1
</note>
  <anchor x="500" y="0" name="center"/>
  <outline>
    <component base="_blackCircledComp"/>
    <contour>
      <point x="518" y="182" type="line"/>
      <point x="638" y="454" type="line"/>
      <point x="486" y="454" type="line"/>
      <point x="486" y="532" type="line"/>
      <point x="739" y="532" type="line"/>
      <point x="739" y="476" type="line"/>
      <point x="616" y="182" type="line"/>
    </contour>
    <contour>
      <point x="347" y="181" type="line"/>
      <point x="347" y="355" type="line" smooth="yes"/>
      <point x="347" y="364"/>
      <point x="347" y="403"/>
      <point x="348" y="429" type="curve"/>
      <point x="340" y="420"/>
      <point x="333" y="412"/>
      <point x="326" y="405" type="curve" smooth="yes"/>
      <point x="314" y="393"/>
      <point x="300" y="385"/>
      <point x="287" y="374" type="curve"/>
      <point x="237" y="434" type="line"/>
      <point x="358" y="532" type="line"/>
      <point x="443" y="532" type="line"/>
      <point x="443" y="181" type="line"/>
    </contour>
  </outline>
</glyph>
<glyph name="circlednumrev0" format="2">
  <advance width="1000"/>
  <unicode hex="24FF"/>
  <anchor x="500" y="357" name="C"/>
  <anchor x="370" y="357" name="L"/>
  <anchor x="630" y="357" name="R"/>
  <anchor x="500" y="0" name="center"/>
  <outline>
    <contour>
      <point x="500" y="-55" type="curve" smooth="yes"/>
      <point x="728" y="-55"/>
      <point x="912" y="129"/>
      <point x="912" y="357" type="curve" smooth="yes"/>
      <point x="912" y="584"/>
      <point x="728" y="769"/>
      <point x="500" y="769" type="curve" smooth="yes"/>
      <point x="272" y="769"/>
      <point x="88" y="584"/>
      <point x="88" y="357" type="curve" smooth="yes"/>
      <point x="88" y="129"/>
      <point x="272" y="-55"/>
    </contour>
    <contour>
      <point x="500" y="128" type="curve" smooth="yes"/>
      <point x="402" y="128"/>
      <point x="329" y="190"/>
      <point x="329" y="357" type="curve" smooth="yes"/>
      <point x="329" y="524"/>
      <point x="402" y="586"/>
      <point x="500" y="586" type="curve" smooth="yes"/>
      <point x="598" y="586"/>
      <point x="671" y="524"/>
      <point x="671" y="357" type="curve" smooth="yes"/>
      <point x="671" y="190"/>
      <point x="598" y="128"/>
    </contour>
    <contour>
      <point x="500" y="224" type="curve" smooth="yes"/>
      <point x="529" y="224"/>
      <point x="555" y="248"/>
      <point x="555" y="357" type="curve" smooth="yes"/>
      <point x="555" y="466"/>
      <point x="529" y="490"/>
      <point x="500" y="490" type="curve" smooth="yes"/>
      <point x="471" y="490"/>
      <point x="445" y="466"/>
      <point x="445" y="357" type="curve" smooth="yes"/>
      <point x="445" y="248"/>
      <point x="473" y="224"/>
    </contour>
  </outline>
</glyph>
<glyph name="zeroblackcircle" format="2">
  <advance width="1000"/>
  <unicode hex="24FF"/>
  <anchor x="500" y="0" name="center"/>
  <outline>
    <component base="_blackCircledComp"/>
    <contour>
      <point x="500" y="102" type="curve" smooth="yes"/>
      <point x="380" y="102"/>
      <point x="290" y="207"/>
      <point x="290" y="357" type="curve" smooth="yes"/>
      <point x="290" y="505"/>
      <point x="377" y="612"/>
      <point x="500" y="612" type="curve" smooth="yes"/>
      <point x="623" y="612"/>
      <point x="710" y="505"/>
      <point x="710" y="357" type="curve" smooth="yes"/>
      <point x="710" y="207"/>
      <point x="621" y="102"/>
    </contour>
    <contour>
      <point x="500" y="168" type="curve" smooth="yes"/>
      <point x="569" y="168"/>
      <point x="587" y="253"/>
      <point x="587" y="357" type="curve" smooth="yes"/>
      <point x="587" y="461"/>
      <point x="569" y="546"/>
      <point x="500" y="546" type="curve" smooth="yes"/>
      <point x="431" y="546"/>
      <point x="413" y="461"/>
      <point x="413" y="357" type="curve" smooth="yes"/>
      <point x="413" y="253"/>
      <point x="431" y="168"/>
    </contour>
  </outline>
</glyph>
<glyph name="oneblackcircle" format="2">
  <advance width="1000"/>
  <unicode hex="2776"/>
  <note>
uni2776
</note>
  <anchor x="500" y="0" name="center"/>
  <outline>
    <component base="_blackCircledComp"/>
    <contour>
      <point x="354" y="134" type="line"/>
      <point x="354" y="200" type="line"/>
      <point x="426" y="200"/>
      <point x="458" y="211"/>
      <point x="458" y="283" type="curve" smooth="yes"/>
      <point x="458" y="464" type="line"/>
      <point x="365" y="464" type="line"/>
      <point x="365" y="534" type="line"/>
      <point x="416" y="544"/>
      <point x="467" y="563"/>
      <point x="514" y="590" type="curve"/>
      <point x="578" y="590" type="line"/>
      <point x="578" y="283" type="line" smooth="yes"/>
      <point x="578" y="211"/>
      <point x="612" y="200"/>
      <point x="680" y="200" type="curve"/>
      <point x="680" y="134" type="line"/>
    </contour>
  </outline>
</glyph>
<glyph name="circlednumrev2" format="2">
  <advance width="1000"/>
  <unicode hex="2777"/>
  <anchor x="500" y="357" name="C"/>
  <anchor x="370" y="357" name="L"/>
  <anchor x="630" y="357" name="R"/>
  <anchor x="500" y="0" name="center"/>
  <outline>
    <contour>
      <point x="500" y="-55" type="curve" smooth="yes"/>
      <point x="728" y="-55"/>
      <point x="912" y="129"/>
      <point x="912" y="357" type="curve" smooth="yes"/>
      <point x="912" y="584"/>
      <point x="728" y="769"/>
      <point x="500" y="769" type="curve" smooth="yes"/>
      <point x="272" y="769"/>
      <point x="88" y="584"/>
      <point x="88" y="357" type="curve" smooth="yes"/>
      <point x="88" y="129"/>
      <point x="272" y="-55"/>
    </contour>
    <contour>
      <point x="345" y="136" type="line"/>
      <point x="345" y="215" type="line"/>
      <point x="454" y="325" type="line" smooth="yes"/>
      <point x="523" y="394"/>
      <point x="541" y="417"/>
      <point x="541" y="450" type="curve" smooth="yes"/>
      <point x="541" y="476"/>
      <point x="521" y="487"/>
      <point x="497" y="487" type="curve" smooth="yes"/>
      <point x="469" y="487"/>
      <point x="442" y="471"/>
      <point x="406" y="439" type="curve"/>
      <point x="340" y="517" type="line"/>
      <point x="380" y="553"/>
      <point x="422" y="588"/>
      <point x="511" y="588" type="curve" smooth="yes"/>
      <point x="602" y="588"/>
      <point x="660" y="537"/>
      <point x="660" y="466" type="curve" smooth="yes"/>
      <point x="660" y="389"/>
      <point x="616" y="346"/>
      <point x="532" y="268" type="curve" smooth="yes"/>
      <point x="500" y="238" type="line"/>
      <point x="500" y="235" type="line"/>
      <point x="668" y="235" type="line"/>
      <point x="668" y="136" type="line"/>
    </contour>
  </outline>
</glyph>
<glyph name="twoblackcircle" format="2">
  <advance width="1000"/>
  <unicode hex="2777"/>
  <note>
uni2777
</note>
  <anchor x="500" y="0" name="center"/>
  <outline>
    <component base="_blackCircledComp"/>
    <contour>
      <point x="317" y="134" type="line"/>
      <point x="317" y="225" type="line"/>
      <point x="357" y="263"/>
      <point x="392" y="293"/>
      <point x="434" y="329" type="curve" smooth="yes"/>
      <point x="514" y="397"/>
      <point x="556" y="440"/>
      <point x="556" y="489" type="curve" smooth="yes"/>
      <point x="556" y="526"/>
      <point x="531" y="546"/>
      <point x="493" y="546" type="curve" smooth="yes"/>
      <point x="472" y="546"/>
      <point x="453" y="540"/>
      <point x="441" y="529" type="curve"/>
      <point x="456" y="516"/>
      <point x="463" y="499"/>
      <point x="463" y="480" type="curve" smooth="yes"/>
      <point x="463" y="430"/>
      <point x="427" y="407"/>
      <point x="390" y="407" type="curve" smooth="yes"/>
      <point x="342" y="407"/>
      <point x="321" y="445"/>
      <point x="321" y="490" type="curve" smooth="yes"/>
      <point x="321" y="573"/>
      <point x="405" y="612"/>
      <point x="496" y="612" type="curve" smooth="yes"/>
      <point x="602" y="612"/>
      <point x="679" y="565"/>
      <point x="679" y="474" type="curve" smooth="yes"/>
      <point x="679" y="397"/>
      <point x="624" y="358"/>
      <point x="552" y="313" type="curve" smooth="yes"/>
      <point x="512" y="288"/>
      <point x="473" y="264"/>
      <point x="453" y="244" type="curve"/>
      <point x="548" y="244" type="line" smooth="yes"/>
      <point x="601" y="244"/>
      <point x="614" y="250"/>
      <point x="614" y="281" type="curve" smooth="yes"/>
      <point x="614" y="302" type="line"/>
      <point x="683" y="302" type="line"/>
      <point x="679" y="280"/>
      <point x="676" y="214"/>
      <point x="676" y="134" type="curve"/>
    </contour>
  </outline>
</glyph>
<glyph name="fourblackcircle" format="2">
  <advance width="1000"/>
  <unicode hex="2779"/>
  <note>
uni2779
</note>
  <anchor x="500" y="0" name="center"/>
  <outline>
    <component base="_blackCircledComp"/>
    <contour>
      <point x="397" y="134" type="line"/>
      <point x="397" y="200" type="line"/>
      <point x="468" y="200"/>
      <point x="481" y="205"/>
      <point x="481" y="241" type="curve" smooth="yes"/>
      <point x="481" y="263" type="line"/>
      <point x="284" y="263" type="line"/>
      <point x="284" y="357" type="line"/>
      <point x="488" y="612" type="line"/>
      <point x="601" y="612" type="line"/>
      <point x="601" y="341" type="line"/>
      <point x="686" y="341" type="line"/>
      <point x="686" y="263" type="line"/>
      <point x="601" y="263" type="line"/>
      <point x="601" y="241" type="line" smooth="yes"/>
      <point x="601" y="205"/>
      <point x="613" y="200"/>
      <point x="678" y="200" type="curve"/>
      <point x="678" y="134" type="line"/>
    </contour>
    <contour>
      <point x="350" y="341" type="line"/>
      <point x="481" y="341" type="line"/>
      <point x="481" y="501" type="line"/>
    </contour>
  </outline>
</glyph>
<glyph name="circlednumrev7" format="2">
  <advance width="1000"/>
  <unicode hex="277C"/>
  <anchor x="500" y="357" name="C"/>
  <anchor x="370" y="357" name="L"/>
  <anchor x="630" y="357" name="R"/>
  <anchor x="500" y="0" name="center"/>
  <outline>
    <contour>
      <point x="500" y="-55" type="curve" smooth="yes"/>
      <point x="728" y="-55"/>
      <point x="912" y="129"/>
      <point x="912" y="357" type="curve" smooth="yes"/>
      <point x="912" y="584"/>
      <point x="728" y="769"/>
      <point x="500" y="769" type="curve" smooth="yes"/>
      <point x="272" y="769"/>
      <point x="88" y="584"/>
      <point x="88" y="357" type="curve" smooth="yes"/>
      <point x="88" y="129"/>
      <point x="272" y="-55"/>
    </contour>
    <contour>
      <point x="388" y="134" type="line"/>
      <point x="541" y="480" type="line"/>
      <point x="348" y="480" type="line"/>
      <point x="348" y="580" type="line"/>
      <point x="669" y="580" type="line"/>
      <point x="669" y="509" type="line"/>
      <point x="512" y="134" type="line"/>
    </contour>
  </outline>
</glyph>
<glyph name="sevenblackcircle" format="2">
  <advance width="1000"/>
  <unicode hex="277C"/>
  <note>
uni277C
</note>
  <anchor x="500" y="0" name="center"/>
  <outline>
    <component base="_blackCircledComp"/>
    <contour>
      <point x="482" y="102" type="curve" smooth="yes"/>
      <point x="430" y="102"/>
      <point x="414" y="133"/>
      <point x="414" y="169" type="curve" smooth="yes"/>
      <point x="414" y="255"/>
      <point x="504" y="355"/>
      <point x="592" y="470" type="curve"/>
      <point x="456" y="470" type="line" smooth="yes"/>
      <point x="412" y="470"/>
      <point x="397" y="457"/>
      <point x="397" y="423" type="curve" smooth="yes"/>
      <point x="397" y="414" type="line"/>
      <point x="331" y="414" type="line"/>
      <point x="335" y="580" type="line"/>
      <point x="369" y="592" type="line"/>
      <point x="381" y="585"/>
      <point x="397" y="580"/>
      <point x="423" y="580" type="curve" smooth="yes"/>
      <point x="687" y="580" type="line"/>
      <point x="687" y="497" type="line"/>
      <point x="591" y="369"/>
      <point x="571" y="297"/>
      <point x="560" y="208" type="curve" smooth="yes"/>
      <point x="551" y="137"/>
      <point x="538" y="102"/>
    </contour>
  </outline>
</glyph>
<glyph name="tenblackcircle" format="2">
  <advance width="1000"/>
  <unicode hex="277F"/>
  <note>
uni277F
</note>
  <anchor x="500" y="0" name="center"/>
  <outline>
    <component base="_blackCircledComp"/>
    <contour>
      <point x="652" y="122" type="curve" smooth="yes"/>
      <point x="553" y="122"/>
      <point x="480" y="204"/>
      <point x="480" y="357" type="curve" smooth="yes"/>
      <point x="480" y="510"/>
      <point x="552" y="602"/>
      <point x="652" y="602" type="curve" smooth="yes"/>
      <point x="752" y="602"/>
      <point x="824" y="510"/>
      <point x="824" y="357" type="curve" smooth="yes"/>
      <point x="824" y="204"/>
      <point x="751" y="122"/>
    </contour>
    <contour>
      <point x="220" y="134" type="line"/>
      <point x="220" y="196" type="line"/>
      <point x="274" y="196"/>
      <point x="298" y="207"/>
      <point x="298" y="279" type="curve" smooth="yes"/>
      <point x="298" y="466" type="line"/>
      <point x="231" y="466" type="line"/>
      <point x="231" y="534" type="line"/>
      <point x="272" y="544"/>
      <point x="312" y="563"/>
      <point x="350" y="590" type="curve"/>
      <point x="404" y="590" type="line"/>
      <point x="404" y="279" type="line" smooth="yes"/>
      <point x="404" y="207"/>
      <point x="429" y="196"/>
      <point x="480" y="196" type="curve"/>
      <point x="480" y="134" type="line"/>
    </contour>
    <contour>
      <point x="652" y="188" type="curve" smooth="yes"/>
      <point x="697" y="188"/>
      <point x="709" y="248"/>
      <point x="709" y="357" type="curve" smooth="yes"/>
      <point x="709" y="466"/>
      <point x="697" y="536"/>
      <point x="652" y="536" type="curve" smooth="yes"/>
      <point x="607" y="536"/>
      <point x="595" y="466"/>
      <point x="595" y="357" type="curve" smooth="yes"/>
      <point x="595" y="248"/>
      <point x="607" y="188"/>
    </contour>
  </outline>
</glyph>
<glyph name="toprightHalfBracket" format="2">
  <advance width="345"/>
  <unicode hex="2E23"/>
  <outline>
    <contour>
      <point x="149" y="263" type="line"/>
      <point x="265" y="263" type="line"/>
      <point x="265" y="714" type="line"/>
      <point x="25" y="714" type="line"/>
      <point x="25" y="612" type="line"/>
      <point x="149" y="612" type="line"/>
    </contour>
  </outline>
</glyph>
<glyph name="bottomrightHalfBracket" format="2">
  <advance width="345"/>
  <unicode hex="2E25"/>
  <outline>
    <contour>
      <point x="149" y="293" type="line"/>
      <point x="149" y="-56" type="line"/>
      <point x="25" y="-56" type="line"/>
      <point x="25" y="-158" type="line"/>
      <point x="265" y="-158" type="line"/>
      <point x="265" y="293" type="line"/>
    </contour>
  </outline>
</glyph>
<glyph name="_eightdouble" format="2">
  <advance width="1000"/>
  <anchor x="510" y="357" name="_L"/>
  <anchor x="490" y="357" name="_R"/>
  <outline>
    <contour>
      <point x="499" y="168" type="curve" smooth="yes"/>
      <point x="592" y="168"/>
      <point x="634" y="211"/>
      <point x="634" y="271" type="curve" smooth="yes"/>
      <point x="634" y="320"/>
      <point x="595" y="348"/>
      <point x="560" y="367" type="curve"/>
      <point x="597" y="384"/>
      <point x="622" y="413"/>
      <point x="622" y="457" type="curve" smooth="yes"/>
      <point x="622" y="518"/>
      <point x="574" y="546"/>
      <point x="500" y="546" type="curve" smooth="yes"/>
      <point x="427" y="546"/>
      <point x="376" y="517"/>
      <point x="376" y="457" type="curve" smooth="yes"/>
      <point x="376" y="415"/>
      <point x="402" y="385"/>
      <point x="431" y="365" type="curve"/>
      <point x="393" y="345"/>
      <point x="365" y="321"/>
      <point x="365" y="271" type="curve" smooth="yes"/>
      <point x="365" y="209"/>
      <point x="405" y="168"/>
    </contour>
    <contour>
      <point x="498" y="239" type="curve" smooth="yes"/>
      <point x="472" y="239"/>
      <point x="456" y="254"/>
      <point x="456" y="274" type="curve" smooth="yes"/>
      <point x="456" y="296"/>
      <point x="475" y="311"/>
      <point x="498" y="323" type="curve"/>
      <point x="504" y="319" type="line" smooth="yes"/>
      <point x="517" y="310"/>
      <point x="542" y="295"/>
      <point x="542" y="272" type="curve" smooth="yes"/>
      <point x="542" y="252"/>
      <point x="529" y="239"/>
    </contour>
    <contour>
      <point x="498" y="411" type="curve"/>
      <point x="481" y="419"/>
      <point x="470" y="432"/>
      <point x="470" y="448" type="curve" smooth="yes"/>
      <point x="470" y="464"/>
      <point x="483" y="475"/>
      <point x="499" y="475" type="curve" smooth="yes"/>
      <point x="516" y="475"/>
      <point x="530" y="464"/>
      <point x="530" y="448" type="curve" smooth="yes"/>
      <point x="530" y="428"/>
      <point x="512" y="418"/>
    </contour>
  </outline>
</glyph>
<glyph name="_fivedouble" format="2">
  <advance width="1000"/>
  <anchor x="625" y="357" name="_L"/>
  <anchor x="605" y="357" name="_R"/>
  <outline>
    <contour>
      <point x="599" y="165" type="curve" smooth="yes"/>
      <point x="698" y="165"/>
      <point x="748" y="210"/>
      <point x="748" y="293" type="curve" smooth="yes"/>
      <point x="748" y="369"/>
      <point x="697" y="412"/>
      <point x="637" y="412" type="curve" smooth="yes"/>
      <point x="612" y="412"/>
      <point x="604" y="409"/>
      <point x="593" y="408" type="curve"/>
      <point x="598" y="456" type="line"/>
      <point x="722" y="456" type="line"/>
      <point x="722" y="539" type="line"/>
      <point x="513" y="539" type="line"/>
      <point x="500" y="344" type="line"/>
      <point x="535" y="327" type="line"/>
      <point x="549" y="330"/>
      <point x="568" y="334"/>
      <point x="587" y="334" type="curve" smooth="yes"/>
      <point x="627" y="334"/>
      <point x="648" y="318"/>
      <point x="648" y="290" type="curve" smooth="yes"/>
      <point x="648" y="260"/>
      <point x="627" y="244"/>
      <point x="590" y="244" type="curve" smooth="yes"/>
      <point x="559" y="244"/>
      <point x="520" y="255"/>
      <point x="492" y="267" type="curve"/>
      <point x="492" y="186" type="line"/>
      <point x="521" y="171"/>
      <point x="555" y="165"/>
    </contour>
  </outline>
</glyph>
<glyph name="_four" format="2">
  <advance width="1000"/>
  <anchor x="500" y="357" name="_C"/>
  <outline>
    <contour>
      <point x="489" y="134" type="line"/>
      <point x="609" y="134" type="line"/>
      <point x="609" y="220" type="line"/>
      <point x="657" y="220" type="line"/>
      <point x="657" y="310" type="line"/>
      <point x="609" y="310" type="line"/>
      <point x="609" y="580" type="line"/>
      <point x="497" y="580" type="line"/>
      <point x="312" y="309" type="line"/>
      <point x="312" y="220" type="line"/>
      <point x="489" y="220" type="line"/>
    </contour>
    <contour>
      <point x="416" y="310" type="line"/>
      <point x="466" y="384" type="line" smooth="yes"/>
      <point x="476" y="399"/>
      <point x="481" y="410"/>
      <point x="489" y="428" type="curve"/>
      <point x="492" y="428" type="line"/>
      <point x="491" y="426"/>
      <point x="489" y="381"/>
      <point x="489" y="362" type="curve" smooth="yes"/>
      <point x="489" y="310" type="line"/>
    </contour>
  </outline>
</glyph>
<glyph name="_fourdouble" format="2">
  <advance width="1000"/>
  <anchor x="510" y="357" name="_L"/>
  <anchor x="490" y="357" name="_R"/>
  <outline>
    <contour>
      <point x="499" y="173" type="line"/>
      <point x="598" y="173" type="line"/>
      <point x="598" y="244" type="line"/>
      <point x="638" y="244" type="line"/>
      <point x="638" y="318" type="line"/>
      <point x="598" y="318" type="line"/>
      <point x="598" y="541" type="line"/>
      <point x="505" y="541" type="line"/>
      <point x="352" y="317" type="line"/>
      <point x="352" y="244" type="line"/>
      <point x="499" y="244" type="line"/>
    </contour>
    <contour>
      <point x="438" y="318" type="line"/>
      <point x="478" y="379" type="line" smooth="yes"/>
      <point x="487" y="393"/>
      <point x="492" y="401"/>
      <point x="498" y="416" type="curve"/>
      <point x="501" y="416" type="line"/>
      <point x="500" y="414"/>
      <point x="499" y="377"/>
      <point x="499" y="361" type="curve" smooth="yes"/>
      <point x="499" y="318" type="line"/>
    </contour>
  </outline>
</glyph>
<glyph name="_ninedouble" format="2">
  <advance width="1000"/>
  <anchor x="625" y="357" name="_L"/>
  <anchor x="605" y="357" name="_R"/>
  <outline>
    <contour>
      <point x="561" y="168" type="curve" smooth="yes"/>
      <point x="704" y="168"/>
      <point x="758" y="235"/>
      <point x="758" y="372" type="curve" smooth="yes"/>
      <point x="758" y="495"/>
      <point x="695" y="544"/>
      <point x="616" y="544" type="curve" smooth="yes"/>
      <point x="535" y="544"/>
      <point x="485" y="496"/>
      <point x="485" y="414" type="curve" smooth="yes"/>
      <point x="485" y="336"/>
      <point x="526" y="294"/>
      <point x="586" y="294" type="curve" smooth="yes"/>
      <point x="635" y="294"/>
      <point x="650" y="311"/>
      <point x="664" y="336" type="curve"/>
      <point x="667" y="336" type="line"/>
      <point x="664" y="289"/>
      <point x="642" y="245"/>
      <point x="553" y="245" type="curve" smooth="yes"/>
      <point x="537" y="245"/>
      <point x="524" y="247"/>
      <point x="509" y="249" type="curve"/>
      <point x="509" y="170" type="line"/>
      <point x="524" y="168"/>
      <point x="547" y="168"/>
    </contour>
    <contour>
      <point x="618" y="370" type="curve" smooth="yes"/>
      <point x="594" y="370"/>
      <point x="581" y="387"/>
      <point x="581" y="415" type="curve" smooth="yes"/>
      <point x="581" y="449"/>
      <point x="597" y="464"/>
      <point x="618" y="464" type="curve" smooth="yes"/>
      <point x="643" y="464"/>
      <point x="657" y="437"/>
      <point x="657" y="411" type="curve" smooth="yes"/>
      <point x="657" y="391"/>
      <point x="642" y="370"/>
    </contour>
  </outline>
</glyph>
<glyph name="_one" format="2">
  <advance width="1000"/>
  <anchor x="500" y="357" name="_C"/>
  <outline>
    <contour>
      <point x="332" y="134" type="line"/>
      <point x="668" y="134" type="line"/>
      <point x="668" y="234" type="line"/>
      <point x="561" y="234" type="line"/>
      <point x="561" y="580" type="line"/>
      <point x="453" y="580" type="line"/>
      <point x="300" y="455" type="line"/>
      <point x="362" y="378" type="line"/>
      <point x="379" y="392"/>
      <point x="396" y="406"/>
      <point x="413" y="420" type="curve" smooth="yes"/>
      <point x="422" y="427"/>
      <point x="430" y="437"/>
      <point x="441" y="449" type="curve"/>
      <point x="439" y="417"/>
      <point x="439" y="366"/>
      <point x="439" y="354" type="curve" smooth="yes"/>
      <point x="439" y="234" type="line"/>
      <point x="332" y="234" type="line"/>
    </contour>
  </outline>
</glyph>
<glyph name="_onedouble" format="2">
  <advance width="1000"/>
  <anchor x="510" y="357" name="_L"/>
  <anchor x="490" y="357" name="_R"/>
  <outline>
    <contour>
      <point x="455" y="172" type="line"/>
      <point x="555" y="172" type="line"/>
      <point x="555" y="541" type="line"/>
      <point x="467" y="541" type="line"/>
      <point x="340" y="438" type="line"/>
      <point x="391" y="375" type="line"/>
      <point x="405" y="386"/>
      <point x="420" y="396"/>
      <point x="433" y="407" type="curve" smooth="yes"/>
      <point x="441" y="414"/>
      <point x="447" y="423"/>
      <point x="456" y="433" type="curve"/>
      <point x="455" y="405"/>
      <point x="455" y="364"/>
      <point x="455" y="355" type="curve" smooth="yes"/>
    </contour>
    <contour>
      <point x="375" y="172" type="line"/>
      <point x="635" y="172" type="line"/>
      <point x="635" y="255" type="line"/>
      <point x="375" y="255" type="line"/>
    </contour>
  </outline>
</glyph>
<glyph name="_seven" format="2">
  <advance width="1000"/>
  <anchor x="500" y="357" name="_C"/>
  <outline>
    <contour>
      <point x="388" y="134" type="line"/>
      <point x="512" y="134" type="line"/>
      <point x="669" y="509" type="line"/>
      <point x="669" y="580" type="line"/>
      <point x="348" y="580" type="line"/>
      <point x="348" y="480" type="line"/>
      <point x="541" y="480" type="line"/>
    </contour>
  </outline>
</glyph>
<glyph name="_sevendouble" format="2">
  <advance width="1000"/>
  <anchor x="500" y="357" name="_L"/>
  <anchor x="510" y="357" name="_R"/>
  <outline>
    <contour>
      <point x="414" y="173" type="line"/>
      <point x="510" y="173" type="line"/>
      <point x="633" y="482" type="line"/>
      <point x="633" y="541" type="line"/>
      <point x="393" y="541" type="line"/>
      <point x="393" y="459" type="line"/>
      <point x="532" y="459" type="line"/>
    </contour>
  </outline>
</glyph>
<glyph name="_sixdouble" format="2">
  <advance width="1000"/>
  <anchor x="510" y="357" name="_L"/>
  <anchor x="490" y="357" name="_R"/>
  <outline>
    <contour>
      <point x="505" y="168" type="curve" smooth="yes"/>
      <point x="580" y="168"/>
      <point x="626" y="216"/>
      <point x="626" y="299" type="curve" smooth="yes"/>
      <point x="626" y="376"/>
      <point x="590" y="418"/>
      <point x="530" y="418" type="curve" smooth="yes"/>
      <point x="493" y="418"/>
      <point x="474" y="400"/>
      <point x="461" y="376" type="curve"/>
      <point x="459" y="376" type="line"/>
      <point x="461" y="435"/>
      <point x="483" y="469"/>
      <point x="553" y="469" type="curve" smooth="yes"/>
      <point x="577" y="469"/>
      <point x="591" y="466"/>
      <point x="605" y="464" type="curve"/>
      <point x="605" y="543" type="line"/>
      <point x="591" y="544"/>
      <point x="569" y="546"/>
      <point x="555" y="546" type="curve" smooth="yes"/>
      <point x="401" y="546"/>
      <point x="374" y="435"/>
      <point x="374" y="330" type="curve" smooth="yes"/>
      <point x="374" y="218"/>
      <point x="430" y="168"/>
    </contour>
    <contour>
      <point x="502" y="246" type="curve" smooth="yes"/>
      <point x="477" y="246"/>
      <point x="467" y="276"/>
      <point x="467" y="301" type="curve" smooth="yes"/>
      <point x="467" y="321"/>
      <point x="480" y="342"/>
      <point x="503" y="342" type="curve" smooth="yes"/>
      <point x="526" y="342"/>
      <point x="537" y="324"/>
      <point x="537" y="297" type="curve" smooth="yes"/>
      <point x="537" y="263"/>
      <point x="523" y="246"/>
    </contour>
  </outline>
</glyph>
<glyph name="_threedouble" format="2">
  <advance width="1000"/>
  <anchor x="500" y="357" name="_L"/>
  <anchor x="490" y="357" name="_R"/>
  <outline>
    <contour>
      <point x="472" y="168" type="curve" smooth="yes"/>
      <point x="572" y="168"/>
      <point x="617" y="218"/>
      <point x="617" y="278" type="curve" smooth="yes"/>
      <point x="617" y="331"/>
      <point x="585" y="358"/>
      <point x="530" y="365" type="curve"/>
      <point x="530" y="367" type="line"/>
      <point x="571" y="379"/>
      <point x="606" y="408"/>
      <point x="606" y="461" type="curve" smooth="yes"/>
      <point x="606" y="514"/>
      <point x="563" y="546"/>
      <point x="491" y="546" type="curve" smooth="yes"/>
      <point x="431" y="546"/>
      <point x="397" y="530"/>
      <point x="369" y="509" type="curve"/>
      <point x="409" y="442" type="line"/>
      <point x="417" y="449"/>
      <point x="445" y="466"/>
      <point x="476" y="466" type="curve" smooth="yes"/>
      <point x="500" y="466"/>
      <point x="515" y="457"/>
      <point x="515" y="438" type="curve" smooth="yes"/>
      <point x="515" y="415"/>
      <point x="497" y="399"/>
      <point x="444" y="399" type="curve" smooth="yes"/>
      <point x="423" y="399" type="line"/>
      <point x="423" y="324" type="line"/>
      <point x="444" y="324" type="line" smooth="yes"/>
      <point x="504" y="324"/>
      <point x="519" y="309"/>
      <point x="519" y="285" type="curve" smooth="yes"/>
      <point x="519" y="261"/>
      <point x="504" y="246"/>
      <point x="457" y="246" type="curve" smooth="yes"/>
      <point x="432" y="246"/>
      <point x="400" y="254"/>
      <point x="368" y="271" type="curve"/>
      <point x="368" y="187" type="line"/>
      <point x="398" y="175"/>
      <point x="427" y="168"/>
    </contour>
  </outline>
</glyph>
<glyph name="_twodouble" format="2">
  <advance width="1000"/>
  <anchor x="510" y="357" name="_L"/>
  <anchor x="490" y="357" name="_R"/>
  <outline>
    <contour>
      <point x="381" y="174" type="line"/>
      <point x="632" y="174" type="line"/>
      <point x="632" y="257" type="line"/>
      <point x="501" y="257" type="line"/>
      <point x="501" y="258" type="line"/>
      <point x="526" y="282" type="line" smooth="yes"/>
      <point x="593" y="345"/>
      <point x="625" y="383"/>
      <point x="625" y="448" type="curve" smooth="yes"/>
      <point x="625" y="506"/>
      <point x="580" y="547"/>
      <point x="509" y="547" type="curve" smooth="yes"/>
      <point x="441" y="547"/>
      <point x="408" y="519"/>
      <point x="377" y="489" type="curve"/>
      <point x="428" y="425" type="line"/>
      <point x="456" y="450"/>
      <point x="477" y="464"/>
      <point x="498" y="464" type="curve" smooth="yes"/>
      <point x="517" y="464"/>
      <point x="533" y="455"/>
      <point x="533" y="432" type="curve" smooth="yes"/>
      <point x="533" y="406"/>
      <point x="519" y="387"/>
      <point x="465" y="330" type="curve" smooth="yes"/>
      <point x="381" y="240" type="line"/>
    </contour>
  </outline>
</glyph>
<glyph name="_zero" format="2">
  <advance width="1000"/>
  <anchor x="500" y="357" name="_C"/>
  <outline>
    <contour>
      <point x="500" y="128" type="curve" smooth="yes"/>
      <point x="598" y="128"/>
      <point x="671" y="190"/>
      <point x="671" y="357" type="curve" smooth="yes"/>
      <point x="671" y="524"/>
      <point x="598" y="586"/>
      <point x="500" y="586" type="curve" smooth="yes"/>
      <point x="402" y="586"/>
      <point x="329" y="524"/>
      <point x="329" y="357" type="curve" smooth="yes"/>
      <point x="329" y="190"/>
      <point x="402" y="128"/>
    </contour>
    <contour>
      <point x="500" y="224" type="curve" smooth="yes"/>
      <point x="473" y="224"/>
      <point x="445" y="248"/>
      <point x="445" y="357" type="curve" smooth="yes"/>
      <point x="445" y="466"/>
      <point x="471" y="490"/>
      <point x="500" y="490" type="curve" smooth="yes"/>
      <point x="529" y="490"/>
      <point x="555" y="466"/>
      <point x="555" y="357" type="curve" smooth="yes"/>
      <point x="555" y="248"/>
      <point x="529" y="224"/>
    </contour>
  </outline>
</glyph>
<glyph name="_zerodouble" format="2">
  <advance width="1000"/>
  <anchor x="510" y="357" name="_L"/>
  <anchor x="490" y="357" name="_R"/>
  <outline>
    <contour>
      <point x="500" y="178" type="curve" smooth="yes"/>
      <point x="594" y="178"/>
      <point x="634" y="245"/>
      <point x="634" y="357" type="curve" smooth="yes"/>
      <point x="634" y="470"/>
      <point x="588" y="537"/>
      <point x="500" y="537" type="curve" smooth="yes"/>
      <point x="407" y="537"/>
      <point x="366" y="470"/>
      <point x="366" y="357" type="curve" smooth="yes"/>
      <point x="366" y="245"/>
      <point x="412" y="178"/>
    </contour>
    <contour>
      <point x="500" y="252" type="curve" smooth="yes"/>
      <point x="474" y="252"/>
      <point x="461" y="288"/>
      <point x="461" y="357" type="curve" smooth="yes"/>
      <point x="461" y="426"/>
      <point x="474" y="463"/>
      <point x="500" y="463" type="curve" smooth="yes"/>
      <point x="527" y="463"/>
      <point x="539" y="426"/>
      <point x="539" y="357" type="curve" smooth="yes"/>
      <point x="539" y="288"/>
      <point x="527" y="252"/>
    </contour>
  </outline>
</glyph>
<glyph name="circledblack10" format="2">
  <advance width="1000"/>
  <anchor x="500" y="357" name="C"/>
  <anchor x="370" y="357" name="L"/>
  <anchor x="630" y="357" name="R"/>
  <anchor x="650" y="357" name="_L"/>
  <anchor x="360" y="357" name="_R"/>
  <anchor x="500" y="0" name="center"/>
  <outline>
    <contour>
      <point x="500" y="-55" type="curve" smooth="yes"/>
      <point x="728" y="-55"/>
      <point x="912" y="129"/>
      <point x="912" y="357" type="curve" smooth="yes"/>
      <point x="912" y="584"/>
      <point x="728" y="769"/>
      <point x="500" y="769" type="curve" smooth="yes"/>
      <point x="272" y="769"/>
      <point x="88" y="584"/>
      <point x="88" y="357" type="curve" smooth="yes"/>
      <point x="88" y="129"/>
      <point x="272" y="-55"/>
    </contour>
    <contour>
      <point x="253" y="172" type="line"/>
      <point x="253" y="255" type="line"/>
      <point x="328" y="255" type="line"/>
      <point x="328" y="355" type="line" smooth="yes"/>
      <point x="328" y="364"/>
      <point x="328" y="405"/>
      <point x="329" y="433" type="curve"/>
      <point x="320" y="423"/>
      <point x="315" y="414"/>
      <point x="307" y="407" type="curve" smooth="yes"/>
      <point x="295" y="396"/>
      <point x="281" y="386"/>
      <point x="268" y="375" type="curve"/>
      <point x="220" y="438" type="line"/>
      <point x="339" y="541" type="line"/>
      <point x="422" y="541" type="line"/>
      <point x="422" y="255" type="line"/>
      <point x="497" y="255" type="line"/>
      <point x="497" y="172" type="line"/>
    </contour>
    <contour>
      <point x="640" y="178" type="curve" smooth="yes"/>
      <point x="557" y="178"/>
      <point x="514" y="245"/>
      <point x="514" y="357" type="curve" smooth="yes"/>
      <point x="514" y="470"/>
      <point x="553" y="537"/>
      <point x="640" y="537" type="curve" smooth="yes"/>
      <point x="723" y="537"/>
      <point x="766" y="470"/>
      <point x="766" y="357" type="curve" smooth="yes"/>
      <point x="766" y="245"/>
      <point x="728" y="178"/>
    </contour>
    <contour>
      <point x="640" y="252" type="curve" smooth="yes"/>
      <point x="665" y="252"/>
      <point x="677" y="288"/>
      <point x="677" y="357" type="curve" smooth="yes"/>
      <point x="677" y="426"/>
      <point x="665" y="463"/>
      <point x="640" y="463" type="curve" smooth="yes"/>
      <point x="616" y="463"/>
      <point x="603" y="426"/>
      <point x="603" y="357" type="curve" smooth="yes"/>
      <point x="603" y="288"/>
      <point x="616" y="252"/>
    </contour>
  </outline>
</glyph>
<glyph name="circledblack12" format="2">
  <advance width="1000"/>
  <anchor x="500" y="357" name="C"/>
  <anchor x="370" y="357" name="L"/>
  <anchor x="630" y="357" name="R"/>
  <anchor x="650" y="357" name="_L"/>
  <anchor x="360" y="357" name="_R"/>
  <anchor x="500" y="0" name="center"/>
  <outline>
    <contour>
      <point x="500" y="-55" type="curve" smooth="yes"/>
      <point x="728" y="-55"/>
      <point x="912" y="129"/>
      <point x="912" y="357" type="curve" smooth="yes"/>
      <point x="912" y="584"/>
      <point x="728" y="769"/>
      <point x="500" y="769" type="curve" smooth="yes"/>
      <point x="272" y="769"/>
      <point x="88" y="584"/>
      <point x="88" y="357" type="curve" smooth="yes"/>
      <point x="88" y="129"/>
      <point x="272" y="-55"/>
    </contour>
    <contour>
      <point x="253" y="172" type="line"/>
      <point x="253" y="255" type="line"/>
      <point x="328" y="255" type="line"/>
      <point x="328" y="355" type="line" smooth="yes"/>
      <point x="328" y="364"/>
      <point x="328" y="405"/>
      <point x="329" y="433" type="curve"/>
      <point x="320" y="423"/>
      <point x="315" y="414"/>
      <point x="307" y="407" type="curve" smooth="yes"/>
      <point x="295" y="396"/>
      <point x="281" y="386"/>
      <point x="268" y="375" type="curve"/>
      <point x="220" y="438" type="line"/>
      <point x="339" y="541" type="line"/>
      <point x="422" y="541" type="line"/>
      <point x="422" y="255" type="line"/>
      <point x="497" y="255" type="line"/>
      <point x="497" y="172" type="line"/>
    </contour>
    <contour>
      <point x="521" y="174" type="line"/>
      <point x="521" y="240" type="line"/>
      <point x="605" y="330" type="line" smooth="yes"/>
      <point x="659" y="387"/>
      <point x="673" y="406"/>
      <point x="673" y="432" type="curve" smooth="yes"/>
      <point x="673" y="455"/>
      <point x="657" y="464"/>
      <point x="638" y="464" type="curve" smooth="yes"/>
      <point x="617" y="464"/>
      <point x="596" y="450"/>
      <point x="568" y="425" type="curve"/>
      <point x="517" y="489" type="line"/>
      <point x="548" y="519"/>
      <point x="581" y="547"/>
      <point x="649" y="547" type="curve" smooth="yes"/>
      <point x="720" y="547"/>
      <point x="765" y="506"/>
      <point x="765" y="448" type="curve" smooth="yes"/>
      <point x="765" y="383"/>
      <point x="733" y="345"/>
      <point x="666" y="282" type="curve" smooth="yes"/>
      <point x="641" y="258" type="line"/>
      <point x="641" y="257" type="line"/>
      <point x="772" y="257" type="line"/>
      <point x="772" y="174" type="line"/>
    </contour>
  </outline>
</glyph>
<glyph name="circledblack17" format="2">
  <advance width="1000"/>
  <anchor x="500" y="357" name="C"/>
  <anchor x="370" y="357" name="L"/>
  <anchor x="630" y="357" name="R"/>
  <anchor x="620" y="357" name="_L"/>
  <anchor x="360" y="357" name="_R"/>
  <anchor x="500" y="0" name="center"/>
  <outline>
    <contour>
      <point x="500" y="-55" type="curve" smooth="yes"/>
      <point x="728" y="-55"/>
      <point x="912" y="129"/>
      <point x="912" y="357" type="curve" smooth="yes"/>
      <point x="912" y="584"/>
      <point x="728" y="769"/>
      <point x="500" y="769" type="curve" smooth="yes"/>
      <point x="272" y="769"/>
      <point x="88" y="584"/>
      <point x="88" y="357" type="curve" smooth="yes"/>
      <point x="88" y="129"/>
      <point x="272" y="-55"/>
    </contour>
    <contour>
      <point x="253" y="172" type="line"/>
      <point x="253" y="255" type="line"/>
      <point x="328" y="255" type="line"/>
      <point x="328" y="355" type="line" smooth="yes"/>
      <point x="328" y="364"/>
      <point x="328" y="405"/>
      <point x="329" y="433" type="curve"/>
      <point x="320" y="423"/>
      <point x="315" y="414"/>
      <point x="307" y="407" type="curve" smooth="yes"/>
      <point x="295" y="396"/>
      <point x="281" y="386"/>
      <point x="268" y="375" type="curve"/>
      <point x="220" y="438" type="line"/>
      <point x="339" y="541" type="line"/>
      <point x="422" y="541" type="line"/>
      <point x="422" y="255" type="line"/>
      <point x="497" y="255" type="line"/>
      <point x="497" y="172" type="line"/>
    </contour>
    <contour>
      <point x="534" y="173" type="line"/>
      <point x="652" y="459" type="line"/>
      <point x="513" y="459" type="line"/>
      <point x="513" y="541" type="line"/>
      <point x="753" y="541" type="line"/>
      <point x="753" y="482" type="line"/>
      <point x="630" y="173" type="line"/>
    </contour>
  </outline>
</glyph>
<glyph name="circledblack27" format="2">
  <advance width="1000"/>
  <anchor x="500" y="357" name="C"/>
  <anchor x="370" y="357" name="L"/>
  <anchor x="630" y="357" name="R"/>
  <anchor x="620" y="357" name="_L"/>
  <anchor x="350" y="357" name="_R"/>
  <anchor x="500" y="0" name="center"/>
  <outline>
    <contour>
      <point x="500" y="-55" type="curve" smooth="yes"/>
      <point x="728" y="-55"/>
      <point x="912" y="129"/>
      <point x="912" y="357" type="curve" smooth="yes"/>
      <point x="912" y="584"/>
      <point x="728" y="769"/>
      <point x="500" y="769" type="curve" smooth="yes"/>
      <point x="272" y="769"/>
      <point x="88" y="584"/>
      <point x="88" y="357" type="curve" smooth="yes"/>
      <point x="88" y="129"/>
      <point x="272" y="-55"/>
    </contour>
    <contour>
      <point x="241" y="174" type="line"/>
      <point x="241" y="240" type="line"/>
      <point x="325" y="330" type="line" smooth="yes"/>
      <point x="379" y="387"/>
      <point x="393" y="406"/>
      <point x="393" y="432" type="curve" smooth="yes"/>
      <point x="393" y="455"/>
      <point x="377" y="464"/>
      <point x="358" y="464" type="curve" smooth="yes"/>
      <point x="337" y="464"/>
      <point x="316" y="450"/>
      <point x="288" y="425" type="curve"/>
      <point x="237" y="489" type="line"/>
      <point x="268" y="519"/>
      <point x="301" y="547"/>
      <point x="369" y="547" type="curve" smooth="yes"/>
      <point x="440" y="547"/>
      <point x="485" y="506"/>
      <point x="485" y="448" type="curve" smooth="yes"/>
      <point x="485" y="383"/>
      <point x="453" y="345"/>
      <point x="386" y="282" type="curve" smooth="yes"/>
      <point x="361" y="258" type="line"/>
      <point x="361" y="257" type="line"/>
      <point x="492" y="257" type="line"/>
      <point x="492" y="174" type="line"/>
    </contour>
    <contour>
      <point x="534" y="173" type="line"/>
      <point x="652" y="459" type="line"/>
      <point x="513" y="459" type="line"/>
      <point x="513" y="541" type="line"/>
      <point x="753" y="541" type="line"/>
      <point x="753" y="482" type="line"/>
      <point x="630" y="173" type="line"/>
    </contour>
  </outline>
</glyph>
<glyph name="circledblack29" format="2">
  <advance width="1000"/>
  <anchor x="500" y="357" name="C"/>
  <anchor x="370" y="357" name="L"/>
  <anchor x="630" y="357" name="R"/>
  <anchor x="650" y="357" name="_L"/>
  <anchor x="350" y="357" name="_R"/>
  <anchor x="500" y="0" name="center"/>
  <outline>
    <contour>
      <point x="500" y="-55" type="curve" smooth="yes"/>
      <point x="728" y="-55"/>
      <point x="912" y="129"/>
      <point x="912" y="357" type="curve" smooth="yes"/>
      <point x="912" y="584"/>
      <point x="728" y="769"/>
      <point x="500" y="769" type="curve" smooth="yes"/>
      <point x="272" y="769"/>
      <point x="88" y="584"/>
      <point x="88" y="357" type="curve" smooth="yes"/>
      <point x="88" y="129"/>
      <point x="272" y="-55"/>
    </contour>
    <contour>
      <point x="241" y="174" type="line"/>
      <point x="241" y="240" type="line"/>
      <point x="325" y="330" type="line" smooth="yes"/>
      <point x="379" y="387"/>
      <point x="393" y="406"/>
      <point x="393" y="432" type="curve" smooth="yes"/>
      <point x="393" y="455"/>
      <point x="377" y="464"/>
      <point x="358" y="464" type="curve" smooth="yes"/>
      <point x="337" y="464"/>
      <point x="316" y="450"/>
      <point x="288" y="425" type="curve"/>
      <point x="237" y="489" type="line"/>
      <point x="268" y="519"/>
      <point x="301" y="547"/>
      <point x="369" y="547" type="curve" smooth="yes"/>
      <point x="440" y="547"/>
      <point x="485" y="506"/>
      <point x="485" y="448" type="curve" smooth="yes"/>
      <point x="485" y="383"/>
      <point x="453" y="345"/>
      <point x="386" y="282" type="curve" smooth="yes"/>
      <point x="361" y="258" type="line"/>
      <point x="361" y="257" type="line"/>
      <point x="492" y="257" type="line"/>
      <point x="492" y="174" type="line"/>
    </contour>
    <contour>
      <point x="585" y="168" type="curve" smooth="yes"/>
      <point x="571" y="168"/>
      <point x="550" y="168"/>
      <point x="536" y="170" type="curve"/>
      <point x="536" y="249" type="line"/>
      <point x="550" y="247"/>
      <point x="562" y="245"/>
      <point x="577" y="245" type="curve" smooth="yes"/>
      <point x="661" y="245"/>
      <point x="681" y="289"/>
      <point x="684" y="336" type="curve"/>
      <point x="681" y="336" type="line"/>
      <point x="668" y="311"/>
      <point x="654" y="294"/>
      <point x="608" y="294" type="curve" smooth="yes"/>
      <point x="552" y="294"/>
      <point x="514" y="336"/>
      <point x="514" y="414" type="curve" smooth="yes"/>
      <point x="514" y="496"/>
      <point x="560" y="544"/>
      <point x="636" y="544" type="curve" smooth="yes"/>
      <point x="711" y="544"/>
      <point x="766" y="495"/>
      <point x="766" y="372" type="curve" smooth="yes"/>
      <point x="766" y="235"/>
      <point x="715" y="168"/>
    </contour>
    <contour>
      <point x="638" y="370" type="curve" smooth="yes"/>
      <point x="661" y="370"/>
      <point x="675" y="391"/>
      <point x="675" y="411" type="curve" smooth="yes"/>
      <point x="675" y="437"/>
      <point x="662" y="464"/>
      <point x="638" y="464" type="curve" smooth="yes"/>
      <point x="618" y="464"/>
      <point x="603" y="449"/>
      <point x="603" y="415" type="curve" smooth="yes"/>
      <point x="603" y="387"/>
      <point x="616" y="370"/>
    </contour>
  </outline>
</glyph>
<glyph name="circledblack31" format="2">
  <advance width="1000"/>
  <anchor x="500" y="357" name="C"/>
  <anchor x="370" y="357" name="L"/>
  <anchor x="630" y="357" name="R"/>
  <anchor x="640" y="357" name="_L"/>
  <anchor x="360" y="357" name="_R"/>
  <anchor x="500" y="0" name="center"/>
  <outline>
    <contour>
      <point x="500" y="-55" type="curve" smooth="yes"/>
      <point x="728" y="-55"/>
      <point x="912" y="129"/>
      <point x="912" y="357" type="curve" smooth="yes"/>
      <point x="912" y="584"/>
      <point x="728" y="769"/>
      <point x="500" y="769" type="curve" smooth="yes"/>
      <point x="272" y="769"/>
      <point x="88" y="584"/>
      <point x="88" y="357" type="curve" smooth="yes"/>
      <point x="88" y="129"/>
      <point x="272" y="-55"/>
    </contour>
    <contour>
      <point x="342" y="168" type="curve" smooth="yes"/>
      <point x="297" y="168"/>
      <point x="268" y="175"/>
      <point x="238" y="187" type="curve"/>
      <point x="238" y="271" type="line"/>
      <point x="270" y="254"/>
      <point x="302" y="246"/>
      <point x="327" y="246" type="curve" smooth="yes"/>
      <point x="374" y="246"/>
      <point x="389" y="261"/>
      <point x="389" y="285" type="curve" smooth="yes"/>
      <point x="389" y="309"/>
      <point x="374" y="324"/>
      <point x="314" y="324" type="curve" smooth="yes"/>
      <point x="293" y="324" type="line"/>
      <point x="293" y="399" type="line"/>
      <point x="314" y="399" type="line" smooth="yes"/>
      <point x="367" y="399"/>
      <point x="385" y="415"/>
      <point x="385" y="438" type="curve" smooth="yes"/>
      <point x="385" y="457"/>
      <point x="370" y="466"/>
      <point x="346" y="466" type="curve" smooth="yes"/>
      <point x="315" y="466"/>
      <point x="287" y="449"/>
      <point x="279" y="442" type="curve"/>
      <point x="239" y="509" type="line"/>
      <point x="267" y="530"/>
      <point x="301" y="546"/>
      <point x="361" y="546" type="curve" smooth="yes"/>
      <point x="433" y="546"/>
      <point x="476" y="514"/>
      <point x="476" y="461" type="curve" smooth="yes"/>
      <point x="476" y="408"/>
      <point x="441" y="379"/>
      <point x="400" y="367" type="curve"/>
      <point x="400" y="365" type="line"/>
      <point x="455" y="358"/>
      <point x="487" y="331"/>
      <point x="487" y="278" type="curve" smooth="yes"/>
      <point x="487" y="218"/>
      <point x="442" y="168"/>
    </contour>
    <contour>
      <point x="523" y="172" type="line"/>
      <point x="523" y="255" type="line"/>
      <point x="598" y="255" type="line"/>
      <point x="598" y="355" type="line" smooth="yes"/>
      <point x="598" y="364"/>
      <point x="598" y="405"/>
      <point x="599" y="433" type="curve"/>
      <point x="590" y="423"/>
      <point x="585" y="414"/>
      <point x="577" y="407" type="curve" smooth="yes"/>
      <point x="565" y="396"/>
      <point x="551" y="386"/>
      <point x="538" y="375" type="curve"/>
      <point x="490" y="438" type="line"/>
      <point x="609" y="541" type="line"/>
      <point x="692" y="541" type="line"/>
      <point x="692" y="255" type="line"/>
      <point x="767" y="255" type="line"/>
      <point x="767" y="172" type="line"/>
    </contour>
  </outline>
</glyph>
<glyph name="circledblack33" format="2">
  <advance width="1000"/>
  <anchor x="500" y="357" name="C"/>
  <anchor x="370" y="357" name="L"/>
  <anchor x="630" y="357" name="R"/>
  <anchor x="640" y="357" name="_L"/>
  <anchor x="360" y="357" name="_R"/>
  <anchor x="500" y="0" name="center"/>
  <outline>
    <contour>
      <point x="500" y="-55" type="curve" smooth="yes"/>
      <point x="728" y="-55"/>
      <point x="912" y="129"/>
      <point x="912" y="357" type="curve" smooth="yes"/>
      <point x="912" y="584"/>
      <point x="728" y="769"/>
      <point x="500" y="769" type="curve" smooth="yes"/>
      <point x="272" y="769"/>
      <point x="88" y="584"/>
      <point x="88" y="357" type="curve" smooth="yes"/>
      <point x="88" y="129"/>
      <point x="272" y="-55"/>
    </contour>
    <contour>
      <point x="342" y="168" type="curve" smooth="yes"/>
      <point x="297" y="168"/>
      <point x="268" y="175"/>
      <point x="238" y="187" type="curve"/>
      <point x="238" y="271" type="line"/>
      <point x="270" y="254"/>
      <point x="302" y="246"/>
      <point x="327" y="246" type="curve" smooth="yes"/>
      <point x="374" y="246"/>
      <point x="389" y="261"/>
      <point x="389" y="285" type="curve" smooth="yes"/>
      <point x="389" y="309"/>
      <point x="374" y="324"/>
      <point x="314" y="324" type="curve" smooth="yes"/>
      <point x="293" y="324" type="line"/>
      <point x="293" y="399" type="line"/>
      <point x="314" y="399" type="line" smooth="yes"/>
      <point x="367" y="399"/>
      <point x="385" y="415"/>
      <point x="385" y="438" type="curve" smooth="yes"/>
      <point x="385" y="457"/>
      <point x="370" y="466"/>
      <point x="346" y="466" type="curve" smooth="yes"/>
      <point x="315" y="466"/>
      <point x="287" y="449"/>
      <point x="279" y="442" type="curve"/>
      <point x="239" y="509" type="line"/>
      <point x="267" y="530"/>
      <point x="301" y="546"/>
      <point x="361" y="546" type="curve" smooth="yes"/>
      <point x="433" y="546"/>
      <point x="476" y="514"/>
      <point x="476" y="461" type="curve" smooth="yes"/>
      <point x="476" y="408"/>
      <point x="441" y="379"/>
      <point x="400" y="367" type="curve"/>
      <point x="400" y="365" type="line"/>
      <point x="455" y="358"/>
      <point x="487" y="331"/>
      <point x="487" y="278" type="curve" smooth="yes"/>
      <point x="487" y="218"/>
      <point x="442" y="168"/>
    </contour>
    <contour>
      <point x="612" y="168" type="curve" smooth="yes"/>
      <point x="567" y="168"/>
      <point x="538" y="175"/>
      <point x="508" y="187" type="curve"/>
      <point x="508" y="271" type="line"/>
      <point x="540" y="254"/>
      <point x="572" y="246"/>
      <point x="597" y="246" type="curve" smooth="yes"/>
      <point x="644" y="246"/>
      <point x="659" y="261"/>
      <point x="659" y="285" type="curve" smooth="yes"/>
      <point x="659" y="309"/>
      <point x="644" y="324"/>
      <point x="584" y="324" type="curve" smooth="yes"/>
      <point x="563" y="324" type="line"/>
      <point x="563" y="399" type="line"/>
      <point x="584" y="399" type="line" smooth="yes"/>
      <point x="637" y="399"/>
      <point x="655" y="415"/>
      <point x="655" y="438" type="curve" smooth="yes"/>
      <point x="655" y="457"/>
      <point x="640" y="466"/>
      <point x="616" y="466" type="curve" smooth="yes"/>
      <point x="585" y="466"/>
      <point x="557" y="449"/>
      <point x="549" y="442" type="curve"/>
      <point x="509" y="509" type="line"/>
      <point x="537" y="530"/>
      <point x="571" y="546"/>
      <point x="631" y="546" type="curve" smooth="yes"/>
      <point x="703" y="546"/>
      <point x="746" y="514"/>
      <point x="746" y="461" type="curve" smooth="yes"/>
      <point x="746" y="408"/>
      <point x="711" y="379"/>
      <point x="670" y="367" type="curve"/>
      <point x="670" y="365" type="line"/>
      <point x="725" y="358"/>
      <point x="757" y="331"/>
      <point x="757" y="278" type="curve" smooth="yes"/>
      <point x="757" y="218"/>
      <point x="712" y="168"/>
    </contour>
  </outline>
</glyph>
<glyph name="circledblack36" format="2">
  <advance width="1000"/>
  <anchor x="500" y="357" name="C"/>
  <anchor x="370" y="357" name="L"/>
  <anchor x="630" y="357" name="R"/>
  <anchor x="650" y="357" name="_L"/>
  <anchor x="360" y="357" name="_R"/>
  <anchor x="500" y="0" name="center"/>
  <outline>
    <contour>
      <point x="500" y="-55" type="curve" smooth="yes"/>
      <point x="728" y="-55"/>
      <point x="912" y="129"/>
      <point x="912" y="357" type="curve" smooth="yes"/>
      <point x="912" y="584"/>
      <point x="728" y="769"/>
      <point x="500" y="769" type="curve" smooth="yes"/>
      <point x="272" y="769"/>
      <point x="88" y="584"/>
      <point x="88" y="357" type="curve" smooth="yes"/>
      <point x="88" y="129"/>
      <point x="272" y="-55"/>
    </contour>
    <contour>
      <point x="342" y="168" type="curve" smooth="yes"/>
      <point x="297" y="168"/>
      <point x="268" y="175"/>
      <point x="238" y="187" type="curve"/>
      <point x="238" y="271" type="line"/>
      <point x="270" y="254"/>
      <point x="302" y="246"/>
      <point x="327" y="246" type="curve" smooth="yes"/>
      <point x="374" y="246"/>
      <point x="389" y="261"/>
      <point x="389" y="285" type="curve" smooth="yes"/>
      <point x="389" y="309"/>
      <point x="374" y="324"/>
      <point x="314" y="324" type="curve" smooth="yes"/>
      <point x="293" y="324" type="line"/>
      <point x="293" y="399" type="line"/>
      <point x="314" y="399" type="line" smooth="yes"/>
      <point x="367" y="399"/>
      <point x="385" y="415"/>
      <point x="385" y="438" type="curve" smooth="yes"/>
      <point x="385" y="457"/>
      <point x="370" y="466"/>
      <point x="346" y="466" type="curve" smooth="yes"/>
      <point x="315" y="466"/>
      <point x="287" y="449"/>
      <point x="279" y="442" type="curve"/>
      <point x="239" y="509" type="line"/>
      <point x="267" y="530"/>
      <point x="301" y="546"/>
      <point x="361" y="546" type="curve" smooth="yes"/>
      <point x="433" y="546"/>
      <point x="476" y="514"/>
      <point x="476" y="461" type="curve" smooth="yes"/>
      <point x="476" y="408"/>
      <point x="441" y="379"/>
      <point x="400" y="367" type="curve"/>
      <point x="400" y="365" type="line"/>
      <point x="455" y="358"/>
      <point x="487" y="331"/>
      <point x="487" y="278" type="curve" smooth="yes"/>
      <point x="487" y="218"/>
      <point x="442" y="168"/>
    </contour>
    <contour>
      <point x="645" y="168" type="curve" smooth="yes"/>
      <point x="570" y="168"/>
      <point x="514" y="218"/>
      <point x="514" y="330" type="curve" smooth="yes"/>
      <point x="514" y="435"/>
      <point x="541" y="546"/>
      <point x="695" y="546" type="curve" smooth="yes"/>
      <point x="709" y="546"/>
      <point x="731" y="544"/>
      <point x="745" y="543" type="curve"/>
      <point x="745" y="464" type="line"/>
      <point x="731" y="466"/>
      <point x="717" y="469"/>
      <point x="693" y="469" type="curve" smooth="yes"/>
      <point x="623" y="469"/>
      <point x="601" y="435"/>
      <point x="599" y="376" type="curve"/>
      <point x="601" y="376" type="line"/>
      <point x="614" y="400"/>
      <point x="633" y="418"/>
      <point x="670" y="418" type="curve" smooth="yes"/>
      <point x="730" y="418"/>
      <point x="766" y="376"/>
      <point x="766" y="299" type="curve" smooth="yes"/>
      <point x="766" y="216"/>
      <point x="720" y="168"/>
    </contour>
    <contour>
      <point x="642" y="246" type="curve" smooth="yes"/>
      <point x="663" y="246"/>
      <point x="677" y="263"/>
      <point x="677" y="297" type="curve" smooth="yes"/>
      <point x="677" y="324"/>
      <point x="666" y="342"/>
      <point x="643" y="342" type="curve" smooth="yes"/>
      <point x="620" y="342"/>
      <point x="607" y="321"/>
      <point x="607" y="301" type="curve" smooth="yes"/>
      <point x="607" y="276"/>
      <point x="617" y="246"/>
    </contour>
  </outline>
</glyph>
<glyph name="circledblack38" format="2">
  <advance width="1000"/>
  <anchor x="500" y="357" name="C"/>
  <anchor x="370" y="357" name="L"/>
  <anchor x="630" y="357" name="R"/>
  <anchor x="650" y="357" name="_L"/>
  <anchor x="360" y="357" name="_R"/>
  <anchor x="500" y="0" name="center"/>
  <outline>
    <contour>
      <point x="500" y="-55" type="curve" smooth="yes"/>
      <point x="728" y="-55"/>
      <point x="912" y="129"/>
      <point x="912" y="357" type="curve" smooth="yes"/>
      <point x="912" y="584"/>
      <point x="728" y="769"/>
      <point x="500" y="769" type="curve" smooth="yes"/>
      <point x="272" y="769"/>
      <point x="88" y="584"/>
      <point x="88" y="357" type="curve" smooth="yes"/>
      <point x="88" y="129"/>
      <point x="272" y="-55"/>
    </contour>
    <contour>
      <point x="342" y="168" type="curve" smooth="yes"/>
      <point x="297" y="168"/>
      <point x="268" y="175"/>
      <point x="238" y="187" type="curve"/>
      <point x="238" y="271" type="line"/>
      <point x="270" y="254"/>
      <point x="302" y="246"/>
      <point x="327" y="246" type="curve" smooth="yes"/>
      <point x="374" y="246"/>
      <point x="389" y="261"/>
      <point x="389" y="285" type="curve" smooth="yes"/>
      <point x="389" y="309"/>
      <point x="374" y="324"/>
      <point x="314" y="324" type="curve" smooth="yes"/>
      <point x="293" y="324" type="line"/>
      <point x="293" y="399" type="line"/>
      <point x="314" y="399" type="line" smooth="yes"/>
      <point x="367" y="399"/>
      <point x="385" y="415"/>
      <point x="385" y="438" type="curve" smooth="yes"/>
      <point x="385" y="457"/>
      <point x="370" y="466"/>
      <point x="346" y="466" type="curve" smooth="yes"/>
      <point x="315" y="466"/>
      <point x="287" y="449"/>
      <point x="279" y="442" type="curve"/>
      <point x="239" y="509" type="line"/>
      <point x="267" y="530"/>
      <point x="301" y="546"/>
      <point x="361" y="546" type="curve" smooth="yes"/>
      <point x="433" y="546"/>
      <point x="476" y="514"/>
      <point x="476" y="461" type="curve" smooth="yes"/>
      <point x="476" y="408"/>
      <point x="441" y="379"/>
      <point x="400" y="367" type="curve"/>
      <point x="400" y="365" type="line"/>
      <point x="455" y="358"/>
      <point x="487" y="331"/>
      <point x="487" y="278" type="curve" smooth="yes"/>
      <point x="487" y="218"/>
      <point x="442" y="168"/>
    </contour>
    <contour>
      <point x="639" y="168" type="curve" smooth="yes"/>
      <point x="551" y="168"/>
      <point x="513" y="209"/>
      <point x="513" y="271" type="curve" smooth="yes"/>
      <point x="513" y="321"/>
      <point x="539" y="345"/>
      <point x="575" y="365" type="curve"/>
      <point x="548" y="385"/>
      <point x="523" y="415"/>
      <point x="523" y="457" type="curve" smooth="yes"/>
      <point x="523" y="517"/>
      <point x="571" y="546"/>
      <point x="640" y="546" type="curve" smooth="yes"/>
      <point x="710" y="546"/>
      <point x="755" y="518"/>
      <point x="755" y="457" type="curve" smooth="yes"/>
      <point x="755" y="413"/>
      <point x="731" y="384"/>
      <point x="696" y="367" type="curve"/>
      <point x="729" y="348"/>
      <point x="766" y="320"/>
      <point x="766" y="271" type="curve" smooth="yes"/>
      <point x="766" y="211"/>
      <point x="726" y="168"/>
    </contour>
    <contour>
      <point x="638" y="239" type="curve" smooth="yes"/>
      <point x="667" y="239"/>
      <point x="679" y="252"/>
      <point x="679" y="272" type="curve" smooth="yes"/>
      <point x="679" y="295"/>
      <point x="656" y="310"/>
      <point x="644" y="319" type="curve" smooth="yes"/>
      <point x="638" y="323" type="line"/>
      <point x="617" y="311"/>
      <point x="599" y="296"/>
      <point x="599" y="274" type="curve" smooth="yes"/>
      <point x="599" y="254"/>
      <point x="614" y="239"/>
    </contour>
    <contour>
      <point x="638" y="411" type="curve"/>
      <point x="651" y="418"/>
      <point x="668" y="428"/>
      <point x="668" y="448" type="curve" smooth="yes"/>
      <point x="668" y="464"/>
      <point x="655" y="475"/>
      <point x="639" y="475" type="curve" smooth="yes"/>
      <point x="624" y="475"/>
      <point x="612" y="464"/>
      <point x="612" y="448" type="curve" smooth="yes"/>
      <point x="612" y="432"/>
      <point x="622" y="419"/>
    </contour>
  </outline>
</glyph>
<glyph name="circledblack40" format="2">
  <advance width="1000"/>
  <anchor x="500" y="357" name="C"/>
  <anchor x="370" y="357" name="L"/>
  <anchor x="630" y="357" name="R"/>
  <anchor x="650" y="357" name="_L"/>
  <anchor x="350" y="357" name="_R"/>
  <anchor x="500" y="0" name="center"/>
  <outline>
    <contour>
      <point x="500" y="-55" type="curve" smooth="yes"/>
      <point x="728" y="-55"/>
      <point x="912" y="129"/>
      <point x="912" y="357" type="curve" smooth="yes"/>
      <point x="912" y="584"/>
      <point x="728" y="769"/>
      <point x="500" y="769" type="curve" smooth="yes"/>
      <point x="272" y="769"/>
      <point x="88" y="584"/>
      <point x="88" y="357" type="curve" smooth="yes"/>
      <point x="88" y="129"/>
      <point x="272" y="-55"/>
    </contour>
    <contour>
      <point x="359" y="173" type="line"/>
      <point x="359" y="244" type="line"/>
      <point x="221" y="244" type="line"/>
      <point x="221" y="317" type="line"/>
      <point x="365" y="541" type="line"/>
      <point x="452" y="541" type="line"/>
      <point x="452" y="318" type="line"/>
      <point x="490" y="318" type="line"/>
      <point x="490" y="244" type="line"/>
      <point x="452" y="244" type="line"/>
      <point x="452" y="173" type="line"/>
    </contour>
    <contour>
      <point x="302" y="318" type="line"/>
      <point x="359" y="318" type="line"/>
      <point x="359" y="361" type="line" smooth="yes"/>
      <point x="359" y="377"/>
      <point x="360" y="414"/>
      <point x="361" y="416" type="curve"/>
      <point x="358" y="416" type="line"/>
      <point x="352" y="401"/>
      <point x="348" y="393"/>
      <point x="339" y="379" type="curve" smooth="yes"/>
    </contour>
    <contour>
      <point x="640" y="178" type="curve" smooth="yes"/>
      <point x="557" y="178"/>
      <point x="514" y="245"/>
      <point x="514" y="357" type="curve" smooth="yes"/>
      <point x="514" y="470"/>
      <point x="553" y="537"/>
      <point x="640" y="537" type="curve" smooth="yes"/>
      <point x="723" y="537"/>
      <point x="766" y="470"/>
      <point x="766" y="357" type="curve" smooth="yes"/>
      <point x="766" y="245"/>
      <point x="728" y="178"/>
    </contour>
    <contour>
      <point x="640" y="252" type="curve" smooth="yes"/>
      <point x="665" y="252"/>
      <point x="677" y="288"/>
      <point x="677" y="357" type="curve" smooth="yes"/>
      <point x="677" y="426"/>
      <point x="665" y="463"/>
      <point x="640" y="463" type="curve" smooth="yes"/>
      <point x="616" y="463"/>
      <point x="603" y="426"/>
      <point x="603" y="357" type="curve" smooth="yes"/>
      <point x="603" y="288"/>
      <point x="616" y="252"/>
    </contour>
  </outline>
</glyph>
<glyph name="circledblack49" format="2">
  <advance width="1000"/>
  <anchor x="500" y="357" name="C"/>
  <anchor x="370" y="357" name="L"/>
  <anchor x="630" y="357" name="R"/>
  <anchor x="650" y="357" name="_L"/>
  <anchor x="350" y="357" name="_R"/>
  <anchor x="500" y="0" name="center"/>
  <outline>
    <contour>
      <point x="500" y="-55" type="curve" smooth="yes"/>
      <point x="728" y="-55"/>
      <point x="912" y="129"/>
      <point x="912" y="357" type="curve" smooth="yes"/>
      <point x="912" y="584"/>
      <point x="728" y="769"/>
      <point x="500" y="769" type="curve" smooth="yes"/>
      <point x="272" y="769"/>
      <point x="88" y="584"/>
      <point x="88" y="357" type="curve" smooth="yes"/>
      <point x="88" y="129"/>
      <point x="272" y="-55"/>
    </contour>
    <contour>
      <point x="359" y="173" type="line"/>
      <point x="359" y="244" type="line"/>
      <point x="221" y="244" type="line"/>
      <point x="221" y="317" type="line"/>
      <point x="365" y="541" type="line"/>
      <point x="452" y="541" type="line"/>
      <point x="452" y="318" type="line"/>
      <point x="490" y="318" type="line"/>
      <point x="490" y="244" type="line"/>
      <point x="452" y="244" type="line"/>
      <point x="452" y="173" type="line"/>
    </contour>
    <contour>
      <point x="302" y="318" type="line"/>
      <point x="359" y="318" type="line"/>
      <point x="359" y="361" type="line" smooth="yes"/>
      <point x="359" y="377"/>
      <point x="360" y="414"/>
      <point x="361" y="416" type="curve"/>
      <point x="358" y="416" type="line"/>
      <point x="352" y="401"/>
      <point x="348" y="393"/>
      <point x="339" y="379" type="curve" smooth="yes"/>
    </contour>
    <contour>
      <point x="585" y="168" type="curve" smooth="yes"/>
      <point x="571" y="168"/>
      <point x="550" y="168"/>
      <point x="536" y="170" type="curve"/>
      <point x="536" y="249" type="line"/>
      <point x="550" y="247"/>
      <point x="562" y="245"/>
      <point x="577" y="245" type="curve" smooth="yes"/>
      <point x="661" y="245"/>
      <point x="681" y="289"/>
      <point x="684" y="336" type="curve"/>
      <point x="681" y="336" type="line"/>
      <point x="668" y="311"/>
      <point x="654" y="294"/>
      <point x="608" y="294" type="curve" smooth="yes"/>
      <point x="552" y="294"/>
      <point x="514" y="336"/>
      <point x="514" y="414" type="curve" smooth="yes"/>
      <point x="514" y="496"/>
      <point x="560" y="544"/>
      <point x="636" y="544" type="curve" smooth="yes"/>
      <point x="711" y="544"/>
      <point x="766" y="495"/>
      <point x="766" y="372" type="curve" smooth="yes"/>
      <point x="766" y="235"/>
      <point x="715" y="168"/>
    </contour>
    <contour>
      <point x="638" y="370" type="curve" smooth="yes"/>
      <point x="661" y="370"/>
      <point x="675" y="391"/>
      <point x="675" y="411" type="curve" smooth="yes"/>
      <point x="675" y="437"/>
      <point x="662" y="464"/>
      <point x="638" y="464" type="curve" smooth="yes"/>
      <point x="618" y="464"/>
      <point x="603" y="449"/>
      <point x="603" y="415" type="curve" smooth="yes"/>
      <point x="603" y="387"/>
      <point x="616" y="370"/>
    </contour>
  </outline>
</glyph>
<glyph name="circledblack52" format="2">
  <advance width="1000"/>
  <anchor x="500" y="357" name="C"/>
  <anchor x="370" y="357" name="L"/>
  <anchor x="630" y="357" name="R"/>
  <anchor x="650" y="357" name="_L"/>
  <anchor x="360" y="357" name="_R"/>
  <anchor x="500" y="0" name="center"/>
  <outline>
    <contour>
      <point x="500" y="-55" type="curve" smooth="yes"/>
      <point x="728" y="-55"/>
      <point x="912" y="129"/>
      <point x="912" y="357" type="curve" smooth="yes"/>
      <point x="912" y="584"/>
      <point x="728" y="769"/>
      <point x="500" y="769" type="curve" smooth="yes"/>
      <point x="272" y="769"/>
      <point x="88" y="584"/>
      <point x="88" y="357" type="curve" smooth="yes"/>
      <point x="88" y="129"/>
      <point x="272" y="-55"/>
    </contour>
    <contour>
      <point x="352" y="165" type="curve" smooth="yes"/>
      <point x="311" y="165"/>
      <point x="279" y="171"/>
      <point x="252" y="186" type="curve"/>
      <point x="252" y="267" type="line"/>
      <point x="278" y="255"/>
      <point x="315" y="244"/>
      <point x="344" y="244" type="curve" smooth="yes"/>
      <point x="379" y="244"/>
      <point x="399" y="260"/>
      <point x="399" y="290" type="curve" smooth="yes"/>
      <point x="399" y="318"/>
      <point x="379" y="334"/>
      <point x="341" y="334" type="curve" smooth="yes"/>
      <point x="323" y="334"/>
      <point x="305" y="330"/>
      <point x="292" y="327" type="curve"/>
      <point x="259" y="344" type="line"/>
      <point x="272" y="539" type="line"/>
      <point x="468" y="539" type="line"/>
      <point x="468" y="456" type="line"/>
      <point x="352" y="456" type="line"/>
      <point x="347" y="408" type="line"/>
      <point x="357" y="409"/>
      <point x="365" y="412"/>
      <point x="388" y="412" type="curve" smooth="yes"/>
      <point x="445" y="412"/>
      <point x="493" y="369"/>
      <point x="493" y="293" type="curve" smooth="yes"/>
      <point x="493" y="210"/>
      <point x="446" y="165"/>
    </contour>
    <contour>
      <point x="521" y="174" type="line"/>
      <point x="521" y="240" type="line"/>
      <point x="605" y="330" type="line" smooth="yes"/>
      <point x="659" y="387"/>
      <point x="673" y="406"/>
      <point x="673" y="432" type="curve" smooth="yes"/>
      <point x="673" y="455"/>
      <point x="657" y="464"/>
      <point x="638" y="464" type="curve" smooth="yes"/>
      <point x="617" y="464"/>
      <point x="596" y="450"/>
      <point x="568" y="425" type="curve"/>
      <point x="517" y="489" type="line"/>
      <point x="548" y="519"/>
      <point x="581" y="547"/>
      <point x="649" y="547" type="curve" smooth="yes"/>
      <point x="720" y="547"/>
      <point x="765" y="506"/>
      <point x="765" y="448" type="curve" smooth="yes"/>
      <point x="765" y="383"/>
      <point x="733" y="345"/>
      <point x="666" y="282" type="curve" smooth="yes"/>
      <point x="641" y="258" type="line"/>
      <point x="641" y="257" type="line"/>
      <point x="772" y="257" type="line"/>
      <point x="772" y="174" type="line"/>
    </contour>
  </outline>
</glyph>
<glyph name="circledblack59" format="2">
  <advance width="1000"/>
  <anchor x="500" y="357" name="C"/>
  <anchor x="370" y="357" name="L"/>
  <anchor x="630" y="357" name="R"/>
  <anchor x="650" y="357" name="_L"/>
  <anchor x="360" y="357" name="_R"/>
  <anchor x="500" y="0" name="center"/>
  <outline>
    <contour>
      <point x="500" y="-55" type="curve" smooth="yes"/>
      <point x="728" y="-55"/>
      <point x="912" y="129"/>
      <point x="912" y="357" type="curve" smooth="yes"/>
      <point x="912" y="584"/>
      <point x="728" y="769"/>
      <point x="500" y="769" type="curve" smooth="yes"/>
      <point x="272" y="769"/>
      <point x="88" y="584"/>
      <point x="88" y="357" type="curve" smooth="yes"/>
      <point x="88" y="129"/>
      <point x="272" y="-55"/>
    </contour>
    <contour>
      <point x="352" y="165" type="curve" smooth="yes"/>
      <point x="311" y="165"/>
      <point x="279" y="171"/>
      <point x="252" y="186" type="curve"/>
      <point x="252" y="267" type="line"/>
      <point x="278" y="255"/>
      <point x="315" y="244"/>
      <point x="344" y="244" type="curve" smooth="yes"/>
      <point x="379" y="244"/>
      <point x="399" y="260"/>
      <point x="399" y="290" type="curve" smooth="yes"/>
      <point x="399" y="318"/>
      <point x="379" y="334"/>
      <point x="341" y="334" type="curve" smooth="yes"/>
      <point x="323" y="334"/>
      <point x="305" y="330"/>
      <point x="292" y="327" type="curve"/>
      <point x="259" y="344" type="line"/>
      <point x="272" y="539" type="line"/>
      <point x="468" y="539" type="line"/>
      <point x="468" y="456" type="line"/>
      <point x="352" y="456" type="line"/>
      <point x="347" y="408" type="line"/>
      <point x="357" y="409"/>
      <point x="365" y="412"/>
      <point x="388" y="412" type="curve" smooth="yes"/>
      <point x="445" y="412"/>
      <point x="493" y="369"/>
      <point x="493" y="293" type="curve" smooth="yes"/>
      <point x="493" y="210"/>
      <point x="446" y="165"/>
    </contour>
    <contour>
      <point x="585" y="168" type="curve" smooth="yes"/>
      <point x="571" y="168"/>
      <point x="550" y="168"/>
      <point x="536" y="170" type="curve"/>
      <point x="536" y="249" type="line"/>
      <point x="550" y="247"/>
      <point x="562" y="245"/>
      <point x="577" y="245" type="curve" smooth="yes"/>
      <point x="661" y="245"/>
      <point x="681" y="289"/>
      <point x="684" y="336" type="curve"/>
      <point x="681" y="336" type="line"/>
      <point x="668" y="311"/>
      <point x="654" y="294"/>
      <point x="608" y="294" type="curve" smooth="yes"/>
      <point x="552" y="294"/>
      <point x="514" y="336"/>
      <point x="514" y="414" type="curve" smooth="yes"/>
      <point x="514" y="496"/>
      <point x="560" y="544"/>
      <point x="636" y="544" type="curve" smooth="yes"/>
      <point x="711" y="544"/>
      <point x="766" y="495"/>
      <point x="766" y="372" type="curve" smooth="yes"/>
      <point x="766" y="235"/>
      <point x="715" y="168"/>
    </contour>
    <contour>
      <point x="638" y="370" type="curve" smooth="yes"/>
      <point x="661" y="370"/>
      <point x="675" y="391"/>
      <point x="675" y="411" type="curve" smooth="yes"/>
      <point x="675" y="437"/>
      <point x="662" y="464"/>
      <point x="638" y="464" type="curve" smooth="yes"/>
      <point x="618" y="464"/>
      <point x="603" y="449"/>
      <point x="603" y="415" type="curve" smooth="yes"/>
      <point x="603" y="387"/>
      <point x="616" y="370"/>
    </contour>
  </outline>
</glyph>
<glyph name="circledblack62" format="2">
  <advance width="1000"/>
  <anchor x="500" y="357" name="C"/>
  <anchor x="370" y="357" name="L"/>
  <anchor x="630" y="357" name="R"/>
  <anchor x="650" y="357" name="_L"/>
  <anchor x="350" y="357" name="_R"/>
  <anchor x="500" y="0" name="center"/>
  <outline>
    <contour>
      <point x="500" y="-55" type="curve" smooth="yes"/>
      <point x="728" y="-55"/>
      <point x="912" y="129"/>
      <point x="912" y="357" type="curve" smooth="yes"/>
      <point x="912" y="584"/>
      <point x="728" y="769"/>
      <point x="500" y="769" type="curve" smooth="yes"/>
      <point x="272" y="769"/>
      <point x="88" y="584"/>
      <point x="88" y="357" type="curve" smooth="yes"/>
      <point x="88" y="129"/>
      <point x="272" y="-55"/>
    </contour>
    <contour>
      <point x="365" y="168" type="curve" smooth="yes"/>
      <point x="290" y="168"/>
      <point x="234" y="218"/>
      <point x="234" y="330" type="curve" smooth="yes"/>
      <point x="234" y="435"/>
      <point x="261" y="546"/>
      <point x="415" y="546" type="curve" smooth="yes"/>
      <point x="429" y="546"/>
      <point x="451" y="544"/>
      <point x="465" y="543" type="curve"/>
      <point x="465" y="464" type="line"/>
      <point x="451" y="466"/>
      <point x="437" y="469"/>
      <point x="413" y="469" type="curve" smooth="yes"/>
      <point x="343" y="469"/>
      <point x="321" y="435"/>
      <point x="319" y="376" type="curve"/>
      <point x="321" y="376" type="line"/>
      <point x="334" y="400"/>
      <point x="353" y="418"/>
      <point x="390" y="418" type="curve" smooth="yes"/>
      <point x="450" y="418"/>
      <point x="486" y="376"/>
      <point x="486" y="299" type="curve" smooth="yes"/>
      <point x="486" y="216"/>
      <point x="440" y="168"/>
    </contour>
    <contour>
      <point x="362" y="246" type="curve" smooth="yes"/>
      <point x="383" y="246"/>
      <point x="397" y="263"/>
      <point x="397" y="297" type="curve" smooth="yes"/>
      <point x="397" y="324"/>
      <point x="386" y="342"/>
      <point x="363" y="342" type="curve" smooth="yes"/>
      <point x="340" y="342"/>
      <point x="327" y="321"/>
      <point x="327" y="301" type="curve" smooth="yes"/>
      <point x="327" y="276"/>
      <point x="337" y="246"/>
    </contour>
    <contour>
      <point x="521" y="174" type="line"/>
      <point x="521" y="240" type="line"/>
      <point x="605" y="330" type="line" smooth="yes"/>
      <point x="659" y="387"/>
      <point x="673" y="406"/>
      <point x="673" y="432" type="curve" smooth="yes"/>
      <point x="673" y="455"/>
      <point x="657" y="464"/>
      <point x="638" y="464" type="curve" smooth="yes"/>
      <point x="617" y="464"/>
      <point x="596" y="450"/>
      <point x="568" y="425" type="curve"/>
      <point x="517" y="489" type="line"/>
      <point x="548" y="519"/>
      <point x="581" y="547"/>
      <point x="649" y="547" type="curve" smooth="yes"/>
      <point x="720" y="547"/>
      <point x="765" y="506"/>
      <point x="765" y="448" type="curve" smooth="yes"/>
      <point x="765" y="383"/>
      <point x="733" y="345"/>
      <point x="666" y="282" type="curve" smooth="yes"/>
      <point x="641" y="258" type="line"/>
      <point x="641" y="257" type="line"/>
      <point x="772" y="257" type="line"/>
      <point x="772" y="174" type="line"/>
    </contour>
  </outline>
</glyph>
<glyph name="circledblack73" format="2">
  <advance width="1000"/>
  <anchor x="500" y="357" name="C"/>
  <anchor x="370" y="357" name="L"/>
  <anchor x="630" y="357" name="R"/>
  <anchor x="640" y="357" name="_L"/>
  <anchor x="380" y="357" name="_R"/>
  <anchor x="500" y="0" name="center"/>
  <outline>
    <contour>
      <point x="500" y="-55" type="curve" smooth="yes"/>
      <point x="728" y="-55"/>
      <point x="912" y="129"/>
      <point x="912" y="357" type="curve" smooth="yes"/>
      <point x="912" y="584"/>
      <point x="728" y="769"/>
      <point x="500" y="769" type="curve" smooth="yes"/>
      <point x="272" y="769"/>
      <point x="88" y="584"/>
      <point x="88" y="357" type="curve" smooth="yes"/>
      <point x="88" y="129"/>
      <point x="272" y="-55"/>
    </contour>
    <contour>
      <point x="284" y="173" type="line"/>
      <point x="402" y="459" type="line"/>
      <point x="263" y="459" type="line"/>
      <point x="263" y="541" type="line"/>
      <point x="503" y="541" type="line"/>
      <point x="503" y="482" type="line"/>
      <point x="380" y="173" type="line"/>
    </contour>
    <contour>
      <point x="612" y="168" type="curve" smooth="yes"/>
      <point x="567" y="168"/>
      <point x="538" y="175"/>
      <point x="508" y="187" type="curve"/>
      <point x="508" y="271" type="line"/>
      <point x="540" y="254"/>
      <point x="572" y="246"/>
      <point x="597" y="246" type="curve" smooth="yes"/>
      <point x="644" y="246"/>
      <point x="659" y="261"/>
      <point x="659" y="285" type="curve" smooth="yes"/>
      <point x="659" y="309"/>
      <point x="644" y="324"/>
      <point x="584" y="324" type="curve" smooth="yes"/>
      <point x="563" y="324" type="line"/>
      <point x="563" y="399" type="line"/>
      <point x="584" y="399" type="line" smooth="yes"/>
      <point x="637" y="399"/>
      <point x="655" y="415"/>
      <point x="655" y="438" type="curve" smooth="yes"/>
      <point x="655" y="457"/>
      <point x="640" y="466"/>
      <point x="616" y="466" type="curve" smooth="yes"/>
      <point x="585" y="466"/>
      <point x="557" y="449"/>
      <point x="549" y="442" type="curve"/>
      <point x="509" y="509" type="line"/>
      <point x="537" y="530"/>
      <point x="571" y="546"/>
      <point x="631" y="546" type="curve" smooth="yes"/>
      <point x="703" y="546"/>
      <point x="746" y="514"/>
      <point x="746" y="461" type="curve" smooth="yes"/>
      <point x="746" y="408"/>
      <point x="711" y="379"/>
      <point x="670" y="367" type="curve"/>
      <point x="670" y="365" type="line"/>
      <point x="725" y="358"/>
      <point x="757" y="331"/>
      <point x="757" y="278" type="curve" smooth="yes"/>
      <point x="757" y="218"/>
      <point x="712" y="168"/>
    </contour>
  </outline>
</glyph>
<glyph name="circledblack74" format="2">
  <advance width="1000"/>
  <anchor x="500" y="357" name="C"/>
  <anchor x="370" y="357" name="L"/>
  <anchor x="630" y="357" name="R"/>
  <anchor x="650" y="357" name="_L"/>
  <anchor x="380" y="357" name="_R"/>
  <anchor x="500" y="0" name="center"/>
  <outline>
    <contour>
      <point x="500" y="-55" type="curve" smooth="yes"/>
      <point x="728" y="-55"/>
      <point x="912" y="129"/>
      <point x="912" y="357" type="curve" smooth="yes"/>
      <point x="912" y="584"/>
      <point x="728" y="769"/>
      <point x="500" y="769" type="curve" smooth="yes"/>
      <point x="272" y="769"/>
      <point x="88" y="584"/>
      <point x="88" y="357" type="curve" smooth="yes"/>
      <point x="88" y="129"/>
      <point x="272" y="-55"/>
    </contour>
    <contour>
      <point x="284" y="173" type="line"/>
      <point x="402" y="459" type="line"/>
      <point x="263" y="459" type="line"/>
      <point x="263" y="541" type="line"/>
      <point x="503" y="541" type="line"/>
      <point x="503" y="482" type="line"/>
      <point x="380" y="173" type="line"/>
    </contour>
    <contour>
      <point x="639" y="173" type="line"/>
      <point x="639" y="244" type="line"/>
      <point x="501" y="244" type="line"/>
      <point x="501" y="317" type="line"/>
      <point x="645" y="541" type="line"/>
      <point x="732" y="541" type="line"/>
      <point x="732" y="318" type="line"/>
      <point x="770" y="318" type="line"/>
      <point x="770" y="244" type="line"/>
      <point x="732" y="244" type="line"/>
      <point x="732" y="173" type="line"/>
    </contour>
    <contour>
      <point x="582" y="318" type="line"/>
      <point x="639" y="318" type="line"/>
      <point x="639" y="361" type="line" smooth="yes"/>
      <point x="639" y="377"/>
      <point x="640" y="414"/>
      <point x="641" y="416" type="curve"/>
      <point x="638" y="416" type="line"/>
      <point x="632" y="401"/>
      <point x="628" y="393"/>
      <point x="619" y="379" type="curve" smooth="yes"/>
    </contour>
  </outline>
</glyph>
<glyph name="circledblack75" format="2">
  <advance width="1000"/>
  <anchor x="500" y="357" name="C"/>
  <anchor x="370" y="357" name="L"/>
  <anchor x="630" y="357" name="R"/>
  <anchor x="640" y="357" name="_L"/>
  <anchor x="380" y="357" name="_R"/>
  <anchor x="500" y="0" name="center"/>
  <outline>
    <contour>
      <point x="500" y="-55" type="curve" smooth="yes"/>
      <point x="728" y="-55"/>
      <point x="912" y="129"/>
      <point x="912" y="357" type="curve" smooth="yes"/>
      <point x="912" y="584"/>
      <point x="728" y="769"/>
      <point x="500" y="769" type="curve" smooth="yes"/>
      <point x="272" y="769"/>
      <point x="88" y="584"/>
      <point x="88" y="357" type="curve" smooth="yes"/>
      <point x="88" y="129"/>
      <point x="272" y="-55"/>
    </contour>
    <contour>
      <point x="284" y="173" type="line"/>
      <point x="402" y="459" type="line"/>
      <point x="263" y="459" type="line"/>
      <point x="263" y="541" type="line"/>
      <point x="503" y="541" type="line"/>
      <point x="503" y="482" type="line"/>
      <point x="380" y="173" type="line"/>
    </contour>
    <contour>
      <point x="622" y="165" type="curve" smooth="yes"/>
      <point x="581" y="165"/>
      <point x="549" y="171"/>
      <point x="522" y="186" type="curve"/>
      <point x="522" y="267" type="line"/>
      <point x="548" y="255"/>
      <point x="585" y="244"/>
      <point x="614" y="244" type="curve" smooth="yes"/>
      <point x="649" y="244"/>
      <point x="669" y="260"/>
      <point x="669" y="290" type="curve" smooth="yes"/>
      <point x="669" y="318"/>
      <point x="649" y="334"/>
      <point x="611" y="334" type="curve" smooth="yes"/>
      <point x="593" y="334"/>
      <point x="575" y="330"/>
      <point x="562" y="327" type="curve"/>
      <point x="529" y="344" type="line"/>
      <point x="542" y="539" type="line"/>
      <point x="738" y="539" type="line"/>
      <point x="738" y="456" type="line"/>
      <point x="622" y="456" type="line"/>
      <point x="617" y="408" type="line"/>
      <point x="627" y="409"/>
      <point x="635" y="412"/>
      <point x="658" y="412" type="curve" smooth="yes"/>
      <point x="715" y="412"/>
      <point x="763" y="369"/>
      <point x="763" y="293" type="curve" smooth="yes"/>
      <point x="763" y="210"/>
      <point x="716" y="165"/>
    </contour>
  </outline>
</glyph>
<glyph name="circledblack78" format="2">
  <advance width="1000"/>
  <anchor x="500" y="357" name="C"/>
  <anchor x="370" y="357" name="L"/>
  <anchor x="630" y="357" name="R"/>
  <anchor x="650" y="357" name="_L"/>
  <anchor x="380" y="357" name="_R"/>
  <anchor x="500" y="0" name="center"/>
  <outline>
    <contour>
      <point x="500" y="-55" type="curve" smooth="yes"/>
      <point x="728" y="-55"/>
      <point x="912" y="129"/>
      <point x="912" y="357" type="curve" smooth="yes"/>
      <point x="912" y="584"/>
      <point x="728" y="769"/>
      <point x="500" y="769" type="curve" smooth="yes"/>
      <point x="272" y="769"/>
      <point x="88" y="584"/>
      <point x="88" y="357" type="curve" smooth="yes"/>
      <point x="88" y="129"/>
      <point x="272" y="-55"/>
    </contour>
    <contour>
      <point x="284" y="173" type="line"/>
      <point x="402" y="459" type="line"/>
      <point x="263" y="459" type="line"/>
      <point x="263" y="541" type="line"/>
      <point x="503" y="541" type="line"/>
      <point x="503" y="482" type="line"/>
      <point x="380" y="173" type="line"/>
    </contour>
    <contour>
      <point x="639" y="168" type="curve" smooth="yes"/>
      <point x="551" y="168"/>
      <point x="513" y="209"/>
      <point x="513" y="271" type="curve" smooth="yes"/>
      <point x="513" y="321"/>
      <point x="539" y="345"/>
      <point x="575" y="365" type="curve"/>
      <point x="548" y="385"/>
      <point x="523" y="415"/>
      <point x="523" y="457" type="curve" smooth="yes"/>
      <point x="523" y="517"/>
      <point x="571" y="546"/>
      <point x="640" y="546" type="curve" smooth="yes"/>
      <point x="710" y="546"/>
      <point x="755" y="518"/>
      <point x="755" y="457" type="curve" smooth="yes"/>
      <point x="755" y="413"/>
      <point x="731" y="384"/>
      <point x="696" y="367" type="curve"/>
      <point x="729" y="348"/>
      <point x="766" y="320"/>
      <point x="766" y="271" type="curve" smooth="yes"/>
      <point x="766" y="211"/>
      <point x="726" y="168"/>
    </contour>
    <contour>
      <point x="638" y="239" type="curve" smooth="yes"/>
      <point x="667" y="239"/>
      <point x="679" y="252"/>
      <point x="679" y="272" type="curve" smooth="yes"/>
      <point x="679" y="295"/>
      <point x="656" y="310"/>
      <point x="644" y="319" type="curve" smooth="yes"/>
      <point x="638" y="323" type="line"/>
      <point x="617" y="311"/>
      <point x="599" y="296"/>
      <point x="599" y="274" type="curve" smooth="yes"/>
      <point x="599" y="254"/>
      <point x="614" y="239"/>
    </contour>
    <contour>
      <point x="638" y="411" type="curve"/>
      <point x="651" y="418"/>
      <point x="668" y="428"/>
      <point x="668" y="448" type="curve" smooth="yes"/>
      <point x="668" y="464"/>
      <point x="655" y="475"/>
      <point x="639" y="475" type="curve" smooth="yes"/>
      <point x="624" y="475"/>
      <point x="612" y="464"/>
      <point x="612" y="448" type="curve" smooth="yes"/>
      <point x="612" y="432"/>
      <point x="622" y="419"/>
    </contour>
  </outline>
</glyph>
<glyph name="circledblack85" format="2">
  <advance width="1000"/>
  <anchor x="500" y="357" name="C"/>
  <anchor x="370" y="357" name="L"/>
  <anchor x="630" y="357" name="R"/>
  <anchor x="640" y="357" name="_L"/>
  <anchor x="350" y="357" name="_R"/>
  <anchor x="500" y="0" name="center"/>
  <outline>
    <contour>
      <point x="500" y="-55" type="curve" smooth="yes"/>
      <point x="728" y="-55"/>
      <point x="912" y="129"/>
      <point x="912" y="357" type="curve" smooth="yes"/>
      <point x="912" y="584"/>
      <point x="728" y="769"/>
      <point x="500" y="769" type="curve" smooth="yes"/>
      <point x="272" y="769"/>
      <point x="88" y="584"/>
      <point x="88" y="357" type="curve" smooth="yes"/>
      <point x="88" y="129"/>
      <point x="272" y="-55"/>
    </contour>
    <contour>
      <point x="359" y="168" type="curve" smooth="yes"/>
      <point x="271" y="168"/>
      <point x="233" y="209"/>
      <point x="233" y="271" type="curve" smooth="yes"/>
      <point x="233" y="321"/>
      <point x="259" y="345"/>
      <point x="295" y="365" type="curve"/>
      <point x="268" y="385"/>
      <point x="243" y="415"/>
      <point x="243" y="457" type="curve" smooth="yes"/>
      <point x="243" y="517"/>
      <point x="291" y="546"/>
      <point x="360" y="546" type="curve" smooth="yes"/>
      <point x="430" y="546"/>
      <point x="475" y="518"/>
      <point x="475" y="457" type="curve" smooth="yes"/>
      <point x="475" y="413"/>
      <point x="451" y="384"/>
      <point x="416" y="367" type="curve"/>
      <point x="449" y="348"/>
      <point x="486" y="320"/>
      <point x="486" y="271" type="curve" smooth="yes"/>
      <point x="486" y="211"/>
      <point x="446" y="168"/>
    </contour>
    <contour>
      <point x="358" y="239" type="curve" smooth="yes"/>
      <point x="387" y="239"/>
      <point x="399" y="252"/>
      <point x="399" y="272" type="curve" smooth="yes"/>
      <point x="399" y="295"/>
      <point x="376" y="310"/>
      <point x="364" y="319" type="curve" smooth="yes"/>
      <point x="358" y="323" type="line"/>
      <point x="337" y="311"/>
      <point x="319" y="296"/>
      <point x="319" y="274" type="curve" smooth="yes"/>
      <point x="319" y="254"/>
      <point x="334" y="239"/>
    </contour>
    <contour>
      <point x="358" y="411" type="curve"/>
      <point x="371" y="418"/>
      <point x="388" y="428"/>
      <point x="388" y="448" type="curve" smooth="yes"/>
      <point x="388" y="464"/>
      <point x="375" y="475"/>
      <point x="359" y="475" type="curve" smooth="yes"/>
      <point x="344" y="475"/>
      <point x="332" y="464"/>
      <point x="332" y="448" type="curve" smooth="yes"/>
      <point x="332" y="432"/>
      <point x="342" y="419"/>
    </contour>
    <contour>
      <point x="622" y="165" type="curve" smooth="yes"/>
      <point x="581" y="165"/>
      <point x="549" y="171"/>
      <point x="522" y="186" type="curve"/>
      <point x="522" y="267" type="line"/>
      <point x="548" y="255"/>
      <point x="585" y="244"/>
      <point x="614" y="244" type="curve" smooth="yes"/>
      <point x="649" y="244"/>
      <point x="669" y="260"/>
      <point x="669" y="290" type="curve" smooth="yes"/>
      <point x="669" y="318"/>
      <point x="649" y="334"/>
      <point x="611" y="334" type="curve" smooth="yes"/>
      <point x="593" y="334"/>
      <point x="575" y="330"/>
      <point x="562" y="327" type="curve"/>
      <point x="529" y="344" type="line"/>
      <point x="542" y="539" type="line"/>
      <point x="738" y="539" type="line"/>
      <point x="738" y="456" type="line"/>
      <point x="622" y="456" type="line"/>
      <point x="617" y="408" type="line"/>
      <point x="627" y="409"/>
      <point x="635" y="412"/>
      <point x="658" y="412" type="curve" smooth="yes"/>
      <point x="715" y="412"/>
      <point x="763" y="369"/>
      <point x="763" y="293" type="curve" smooth="yes"/>
      <point x="763" y="210"/>
      <point x="716" y="165"/>
    </contour>
  </outline>
</glyph>
<glyph name="circledblack86" format="2">
  <advance width="1000"/>
  <anchor x="500" y="357" name="C"/>
  <anchor x="370" y="357" name="L"/>
  <anchor x="630" y="357" name="R"/>
  <anchor x="650" y="357" name="_L"/>
  <anchor x="350" y="357" name="_R"/>
  <anchor x="500" y="0" name="center"/>
  <outline>
    <contour>
      <point x="500" y="-55" type="curve" smooth="yes"/>
      <point x="728" y="-55"/>
      <point x="912" y="129"/>
      <point x="912" y="357" type="curve" smooth="yes"/>
      <point x="912" y="584"/>
      <point x="728" y="769"/>
      <point x="500" y="769" type="curve" smooth="yes"/>
      <point x="272" y="769"/>
      <point x="88" y="584"/>
      <point x="88" y="357" type="curve" smooth="yes"/>
      <point x="88" y="129"/>
      <point x="272" y="-55"/>
    </contour>
    <contour>
      <point x="359" y="168" type="curve" smooth="yes"/>
      <point x="271" y="168"/>
      <point x="233" y="209"/>
      <point x="233" y="271" type="curve" smooth="yes"/>
      <point x="233" y="321"/>
      <point x="259" y="345"/>
      <point x="295" y="365" type="curve"/>
      <point x="268" y="385"/>
      <point x="243" y="415"/>
      <point x="243" y="457" type="curve" smooth="yes"/>
      <point x="243" y="517"/>
      <point x="291" y="546"/>
      <point x="360" y="546" type="curve" smooth="yes"/>
      <point x="430" y="546"/>
      <point x="475" y="518"/>
      <point x="475" y="457" type="curve" smooth="yes"/>
      <point x="475" y="413"/>
      <point x="451" y="384"/>
      <point x="416" y="367" type="curve"/>
      <point x="449" y="348"/>
      <point x="486" y="320"/>
      <point x="486" y="271" type="curve" smooth="yes"/>
      <point x="486" y="211"/>
      <point x="446" y="168"/>
    </contour>
    <contour>
      <point x="358" y="239" type="curve" smooth="yes"/>
      <point x="387" y="239"/>
      <point x="399" y="252"/>
      <point x="399" y="272" type="curve" smooth="yes"/>
      <point x="399" y="295"/>
      <point x="376" y="310"/>
      <point x="364" y="319" type="curve" smooth="yes"/>
      <point x="358" y="323" type="line"/>
      <point x="337" y="311"/>
      <point x="319" y="296"/>
      <point x="319" y="274" type="curve" smooth="yes"/>
      <point x="319" y="254"/>
      <point x="334" y="239"/>
    </contour>
    <contour>
      <point x="358" y="411" type="curve"/>
      <point x="371" y="418"/>
      <point x="388" y="428"/>
      <point x="388" y="448" type="curve" smooth="yes"/>
      <point x="388" y="464"/>
      <point x="375" y="475"/>
      <point x="359" y="475" type="curve" smooth="yes"/>
      <point x="344" y="475"/>
      <point x="332" y="464"/>
      <point x="332" y="448" type="curve" smooth="yes"/>
      <point x="332" y="432"/>
      <point x="342" y="419"/>
    </contour>
    <contour>
      <point x="645" y="168" type="curve" smooth="yes"/>
      <point x="570" y="168"/>
      <point x="514" y="218"/>
      <point x="514" y="330" type="curve" smooth="yes"/>
      <point x="514" y="435"/>
      <point x="541" y="546"/>
      <point x="695" y="546" type="curve" smooth="yes"/>
      <point x="709" y="546"/>
      <point x="731" y="544"/>
      <point x="745" y="543" type="curve"/>
      <point x="745" y="464" type="line"/>
      <point x="731" y="466"/>
      <point x="717" y="469"/>
      <point x="693" y="469" type="curve" smooth="yes"/>
      <point x="623" y="469"/>
      <point x="601" y="435"/>
      <point x="599" y="376" type="curve"/>
      <point x="601" y="376" type="line"/>
      <point x="614" y="400"/>
      <point x="633" y="418"/>
      <point x="670" y="418" type="curve" smooth="yes"/>
      <point x="730" y="418"/>
      <point x="766" y="376"/>
      <point x="766" y="299" type="curve" smooth="yes"/>
      <point x="766" y="216"/>
      <point x="720" y="168"/>
    </contour>
    <contour>
      <point x="642" y="246" type="curve" smooth="yes"/>
      <point x="663" y="246"/>
      <point x="677" y="263"/>
      <point x="677" y="297" type="curve" smooth="yes"/>
      <point x="677" y="324"/>
      <point x="666" y="342"/>
      <point x="643" y="342" type="curve" smooth="yes"/>
      <point x="620" y="342"/>
      <point x="607" y="321"/>
      <point x="607" y="301" type="curve" smooth="yes"/>
      <point x="607" y="276"/>
      <point x="617" y="246"/>
    </contour>
  </outline>
</glyph>
<glyph name="circledblack92" format="2">
  <advance width="1000"/>
  <anchor x="500" y="357" name="C"/>
  <anchor x="370" y="357" name="L"/>
  <anchor x="630" y="357" name="R"/>
  <anchor x="650" y="357" name="_L"/>
  <anchor x="350" y="357" name="_R"/>
  <anchor x="500" y="0" name="center"/>
  <outline>
    <contour>
      <point x="500" y="-55" type="curve" smooth="yes"/>
      <point x="728" y="-55"/>
      <point x="912" y="129"/>
      <point x="912" y="357" type="curve" smooth="yes"/>
      <point x="912" y="584"/>
      <point x="728" y="769"/>
      <point x="500" y="769" type="curve" smooth="yes"/>
      <point x="272" y="769"/>
      <point x="88" y="584"/>
      <point x="88" y="357" type="curve" smooth="yes"/>
      <point x="88" y="129"/>
      <point x="272" y="-55"/>
    </contour>
    <contour>
      <point x="305" y="168" type="curve" smooth="yes"/>
      <point x="291" y="168"/>
      <point x="270" y="168"/>
      <point x="256" y="170" type="curve"/>
      <point x="256" y="249" type="line"/>
      <point x="270" y="247"/>
      <point x="282" y="245"/>
      <point x="297" y="245" type="curve" smooth="yes"/>
      <point x="381" y="245"/>
      <point x="401" y="289"/>
      <point x="404" y="336" type="curve"/>
      <point x="401" y="336" type="line"/>
      <point x="388" y="311"/>
      <point x="374" y="294"/>
      <point x="328" y="294" type="curve" smooth="yes"/>
      <point x="272" y="294"/>
      <point x="234" y="336"/>
      <point x="234" y="414" type="curve" smooth="yes"/>
      <point x="234" y="496"/>
      <point x="280" y="544"/>
      <point x="356" y="544" type="curve" smooth="yes"/>
      <point x="431" y="544"/>
      <point x="486" y="495"/>
      <point x="486" y="372" type="curve" smooth="yes"/>
      <point x="486" y="235"/>
      <point x="435" y="168"/>
    </contour>
    <contour>
      <point x="358" y="370" type="curve" smooth="yes"/>
      <point x="381" y="370"/>
      <point x="395" y="391"/>
      <point x="395" y="411" type="curve" smooth="yes"/>
      <point x="395" y="437"/>
      <point x="382" y="464"/>
      <point x="358" y="464" type="curve" smooth="yes"/>
      <point x="338" y="464"/>
      <point x="323" y="449"/>
      <point x="323" y="415" type="curve" smooth="yes"/>
      <point x="323" y="387"/>
      <point x="336" y="370"/>
    </contour>
    <contour>
      <point x="521" y="174" type="line"/>
      <point x="521" y="240" type="line"/>
      <point x="605" y="330" type="line" smooth="yes"/>
      <point x="659" y="387"/>
      <point x="673" y="406"/>
      <point x="673" y="432" type="curve" smooth="yes"/>
      <point x="673" y="455"/>
      <point x="657" y="464"/>
      <point x="638" y="464" type="curve" smooth="yes"/>
      <point x="617" y="464"/>
      <point x="596" y="450"/>
      <point x="568" y="425" type="curve"/>
      <point x="517" y="489" type="line"/>
      <point x="548" y="519"/>
      <point x="581" y="547"/>
      <point x="649" y="547" type="curve" smooth="yes"/>
      <point x="720" y="547"/>
      <point x="765" y="506"/>
      <point x="765" y="448" type="curve" smooth="yes"/>
      <point x="765" y="383"/>
      <point x="733" y="345"/>
      <point x="666" y="282" type="curve" smooth="yes"/>
      <point x="641" y="258" type="line"/>
      <point x="641" y="257" type="line"/>
      <point x="772" y="257" type="line"/>
      <point x="772" y="174" type="line"/>
    </contour>
  </outline>
</glyph>
<glyph name="circledblack93" format="2">
  <advance width="1000"/>
  <anchor x="500" y="357" name="C"/>
  <anchor x="370" y="357" name="L"/>
  <anchor x="630" y="357" name="R"/>
  <anchor x="640" y="357" name="_L"/>
  <anchor x="350" y="357" name="_R"/>
  <anchor x="500" y="0" name="center"/>
  <outline>
    <contour>
      <point x="500" y="-55" type="curve" smooth="yes"/>
      <point x="728" y="-55"/>
      <point x="912" y="129"/>
      <point x="912" y="357" type="curve" smooth="yes"/>
      <point x="912" y="584"/>
      <point x="728" y="769"/>
      <point x="500" y="769" type="curve" smooth="yes"/>
      <point x="272" y="769"/>
      <point x="88" y="584"/>
      <point x="88" y="357" type="curve" smooth="yes"/>
      <point x="88" y="129"/>
      <point x="272" y="-55"/>
    </contour>
    <contour>
      <point x="305" y="168" type="curve" smooth="yes"/>
      <point x="291" y="168"/>
      <point x="270" y="168"/>
      <point x="256" y="170" type="curve"/>
      <point x="256" y="249" type="line"/>
      <point x="270" y="247"/>
      <point x="282" y="245"/>
      <point x="297" y="245" type="curve" smooth="yes"/>
      <point x="381" y="245"/>
      <point x="401" y="289"/>
      <point x="404" y="336" type="curve"/>
      <point x="401" y="336" type="line"/>
      <point x="388" y="311"/>
      <point x="374" y="294"/>
      <point x="328" y="294" type="curve" smooth="yes"/>
      <point x="272" y="294"/>
      <point x="234" y="336"/>
      <point x="234" y="414" type="curve" smooth="yes"/>
      <point x="234" y="496"/>
      <point x="280" y="544"/>
      <point x="356" y="544" type="curve" smooth="yes"/>
      <point x="431" y="544"/>
      <point x="486" y="495"/>
      <point x="486" y="372" type="curve" smooth="yes"/>
      <point x="486" y="235"/>
      <point x="435" y="168"/>
    </contour>
    <contour>
      <point x="358" y="370" type="curve" smooth="yes"/>
      <point x="381" y="370"/>
      <point x="395" y="391"/>
      <point x="395" y="411" type="curve" smooth="yes"/>
      <point x="395" y="437"/>
      <point x="382" y="464"/>
      <point x="358" y="464" type="curve" smooth="yes"/>
      <point x="338" y="464"/>
      <point x="323" y="449"/>
      <point x="323" y="415" type="curve" smooth="yes"/>
      <point x="323" y="387"/>
      <point x="336" y="370"/>
    </contour>
    <contour>
      <point x="612" y="168" type="curve" smooth="yes"/>
      <point x="567" y="168"/>
      <point x="538" y="175"/>
      <point x="508" y="187" type="curve"/>
      <point x="508" y="271" type="line"/>
      <point x="540" y="254"/>
      <point x="572" y="246"/>
      <point x="597" y="246" type="curve" smooth="yes"/>
      <point x="644" y="246"/>
      <point x="659" y="261"/>
      <point x="659" y="285" type="curve" smooth="yes"/>
      <point x="659" y="309"/>
      <point x="644" y="324"/>
      <point x="584" y="324" type="curve" smooth="yes"/>
      <point x="563" y="324" type="line"/>
      <point x="563" y="399" type="line"/>
      <point x="584" y="399" type="line" smooth="yes"/>
      <point x="637" y="399"/>
      <point x="655" y="415"/>
      <point x="655" y="438" type="curve" smooth="yes"/>
      <point x="655" y="457"/>
      <point x="640" y="466"/>
      <point x="616" y="466" type="curve" smooth="yes"/>
      <point x="585" y="466"/>
      <point x="557" y="449"/>
      <point x="549" y="442" type="curve"/>
      <point x="509" y="509" type="line"/>
      <point x="537" y="530"/>
      <point x="571" y="546"/>
      <point x="631" y="546" type="curve" smooth="yes"/>
      <point x="703" y="546"/>
      <point x="746" y="514"/>
      <point x="746" y="461" type="curve" smooth="yes"/>
      <point x="746" y="408"/>
      <point x="711" y="379"/>
      <point x="670" y="367" type="curve"/>
      <point x="670" y="365" type="line"/>
      <point x="725" y="358"/>
      <point x="757" y="331"/>
      <point x="757" y="278" type="curve" smooth="yes"/>
      <point x="757" y="218"/>
      <point x="712" y="168"/>
    </contour>
  </outline>
</glyph>
<glyph name="circledblack98" format="2">
  <advance width="1000"/>
  <anchor x="500" y="357" name="C"/>
  <anchor x="370" y="357" name="L"/>
  <anchor x="630" y="357" name="R"/>
  <anchor x="650" y="357" name="_L"/>
  <anchor x="350" y="357" name="_R"/>
  <anchor x="500" y="0" name="center"/>
  <outline>
    <contour>
      <point x="500" y="-55" type="curve" smooth="yes"/>
      <point x="728" y="-55"/>
      <point x="912" y="129"/>
      <point x="912" y="357" type="curve" smooth="yes"/>
      <point x="912" y="584"/>
      <point x="728" y="769"/>
      <point x="500" y="769" type="curve" smooth="yes"/>
      <point x="272" y="769"/>
      <point x="88" y="584"/>
      <point x="88" y="357" type="curve" smooth="yes"/>
      <point x="88" y="129"/>
      <point x="272" y="-55"/>
    </contour>
    <contour>
      <point x="305" y="168" type="curve" smooth="yes"/>
      <point x="291" y="168"/>
      <point x="270" y="168"/>
      <point x="256" y="170" type="curve"/>
      <point x="256" y="249" type="line"/>
      <point x="270" y="247"/>
      <point x="282" y="245"/>
      <point x="297" y="245" type="curve" smooth="yes"/>
      <point x="381" y="245"/>
      <point x="401" y="289"/>
      <point x="404" y="336" type="curve"/>
      <point x="401" y="336" type="line"/>
      <point x="388" y="311"/>
      <point x="374" y="294"/>
      <point x="328" y="294" type="curve" smooth="yes"/>
      <point x="272" y="294"/>
      <point x="234" y="336"/>
      <point x="234" y="414" type="curve" smooth="yes"/>
      <point x="234" y="496"/>
      <point x="280" y="544"/>
      <point x="356" y="544" type="curve" smooth="yes"/>
      <point x="431" y="544"/>
      <point x="486" y="495"/>
      <point x="486" y="372" type="curve" smooth="yes"/>
      <point x="486" y="235"/>
      <point x="435" y="168"/>
    </contour>
    <contour>
      <point x="358" y="370" type="curve" smooth="yes"/>
      <point x="381" y="370"/>
      <point x="395" y="391"/>
      <point x="395" y="411" type="curve" smooth="yes"/>
      <point x="395" y="437"/>
      <point x="382" y="464"/>
      <point x="358" y="464" type="curve" smooth="yes"/>
      <point x="338" y="464"/>
      <point x="323" y="449"/>
      <point x="323" y="415" type="curve" smooth="yes"/>
      <point x="323" y="387"/>
      <point x="336" y="370"/>
    </contour>
    <contour>
      <point x="639" y="168" type="curve" smooth="yes"/>
      <point x="551" y="168"/>
      <point x="513" y="209"/>
      <point x="513" y="271" type="curve" smooth="yes"/>
      <point x="513" y="321"/>
      <point x="539" y="345"/>
      <point x="575" y="365" type="curve"/>
      <point x="548" y="385"/>
      <point x="523" y="415"/>
      <point x="523" y="457" type="curve" smooth="yes"/>
      <point x="523" y="517"/>
      <point x="571" y="546"/>
      <point x="640" y="546" type="curve" smooth="yes"/>
      <point x="710" y="546"/>
      <point x="755" y="518"/>
      <point x="755" y="457" type="curve" smooth="yes"/>
      <point x="755" y="413"/>
      <point x="731" y="384"/>
      <point x="696" y="367" type="curve"/>
      <point x="729" y="348"/>
      <point x="766" y="320"/>
      <point x="766" y="271" type="curve" smooth="yes"/>
      <point x="766" y="211"/>
      <point x="726" y="168"/>
    </contour>
    <contour>
      <point x="638" y="239" type="curve" smooth="yes"/>
      <point x="667" y="239"/>
      <point x="679" y="252"/>
      <point x="679" y="272" type="curve" smooth="yes"/>
      <point x="679" y="295"/>
      <point x="656" y="310"/>
      <point x="644" y="319" type="curve" smooth="yes"/>
      <point x="638" y="323" type="line"/>
      <point x="617" y="311"/>
      <point x="599" y="296"/>
      <point x="599" y="274" type="curve" smooth="yes"/>
      <point x="599" y="254"/>
      <point x="614" y="239"/>
    </contour>
    <contour>
      <point x="638" y="411" type="curve"/>
      <point x="651" y="418"/>
      <point x="668" y="428"/>
      <point x="668" y="448" type="curve" smooth="yes"/>
      <point x="668" y="464"/>
      <point x="655" y="475"/>
      <point x="639" y="475" type="curve" smooth="yes"/>
      <point x="624" y="475"/>
      <point x="612" y="464"/>
      <point x="612" y="448" type="curve" smooth="yes"/>
      <point x="612" y="432"/>
      <point x="622" y="419"/>
    </contour>
  </outline>
</glyph>
<glyph name="circlednumrev00" format="2">
  <advance width="1000"/>
  <anchor x="500" y="357" name="C"/>
  <anchor x="370" y="357" name="L"/>
  <anchor x="630" y="357" name="R"/>
  <anchor x="650" y="357" name="_L"/>
  <anchor x="350" y="357" name="_R"/>
  <anchor x="500" y="0" name="center"/>
  <outline>
    <contour>
      <point x="500" y="-55" type="curve" smooth="yes"/>
      <point x="728" y="-55"/>
      <point x="912" y="129"/>
      <point x="912" y="357" type="curve" smooth="yes"/>
      <point x="912" y="584"/>
      <point x="728" y="769"/>
      <point x="500" y="769" type="curve" smooth="yes"/>
      <point x="272" y="769"/>
      <point x="88" y="584"/>
      <point x="88" y="357" type="curve" smooth="yes"/>
      <point x="88" y="129"/>
      <point x="272" y="-55"/>
    </contour>
    <contour>
      <point x="360" y="178" type="curve" smooth="yes"/>
      <point x="277" y="178"/>
      <point x="234" y="245"/>
      <point x="234" y="357" type="curve" smooth="yes"/>
      <point x="234" y="470"/>
      <point x="273" y="537"/>
      <point x="360" y="537" type="curve" smooth="yes"/>
      <point x="443" y="537"/>
      <point x="486" y="470"/>
      <point x="486" y="357" type="curve" smooth="yes"/>
      <point x="486" y="245"/>
      <point x="448" y="178"/>
    </contour>
    <contour>
      <point x="360" y="252" type="curve" smooth="yes"/>
      <point x="385" y="252"/>
      <point x="397" y="288"/>
      <point x="397" y="357" type="curve" smooth="yes"/>
      <point x="397" y="426"/>
      <point x="385" y="463"/>
      <point x="360" y="463" type="curve" smooth="yes"/>
      <point x="336" y="463"/>
      <point x="323" y="426"/>
      <point x="323" y="357" type="curve" smooth="yes"/>
      <point x="323" y="288"/>
      <point x="336" y="252"/>
    </contour>
    <contour>
      <point x="640" y="178" type="curve" smooth="yes"/>
      <point x="557" y="178"/>
      <point x="514" y="245"/>
      <point x="514" y="357" type="curve" smooth="yes"/>
      <point x="514" y="470"/>
      <point x="553" y="537"/>
      <point x="640" y="537" type="curve" smooth="yes"/>
      <point x="723" y="537"/>
      <point x="766" y="470"/>
      <point x="766" y="357" type="curve" smooth="yes"/>
      <point x="766" y="245"/>
      <point x="728" y="178"/>
    </contour>
    <contour>
      <point x="640" y="252" type="curve" smooth="yes"/>
      <point x="665" y="252"/>
      <point x="677" y="288"/>
      <point x="677" y="357" type="curve" smooth="yes"/>
      <point x="677" y="426"/>
      <point x="665" y="463"/>
      <point x="640" y="463" type="curve" smooth="yes"/>
      <point x="616" y="463"/>
      <point x="603" y="426"/>
      <point x="603" y="357" type="curve" smooth="yes"/>
      <point x="603" y="288"/>
      <point x="616" y="252"/>
    </contour>
  </outline>
</glyph>
<glyph name="circlednumrev1" format="2">
  <advance width="1000"/>
  <anchor x="500" y="357" name="C"/>
  <anchor x="370" y="357" name="L"/>
  <anchor x="630" y="357" name="R"/>
  <anchor x="500" y="0" name="center"/>
  <outline>
    <contour>
      <point x="500" y="-55" type="curve" smooth="yes"/>
      <point x="728" y="-55"/>
      <point x="912" y="129"/>
      <point x="912" y="357" type="curve" smooth="yes"/>
      <point x="912" y="584"/>
      <point x="728" y="769"/>
      <point x="500" y="769" type="curve" smooth="yes"/>
      <point x="272" y="769"/>
      <point x="88" y="584"/>
      <point x="88" y="357" type="curve" smooth="yes"/>
      <point x="88" y="129"/>
      <point x="272" y="-55"/>
    </contour>
    <contour>
      <point x="332" y="134" type="line"/>
      <point x="332" y="234" type="line"/>
      <point x="439" y="234" type="line"/>
      <point x="439" y="354" type="line" smooth="yes"/>
      <point x="439" y="366"/>
      <point x="439" y="417"/>
      <point x="441" y="449" type="curve"/>
      <point x="430" y="437"/>
      <point x="422" y="427"/>
      <point x="413" y="420" type="curve" smooth="yes"/>
      <point x="396" y="406"/>
      <point x="379" y="392"/>
      <point x="362" y="378" type="curve"/>
      <point x="300" y="455" type="line"/>
      <point x="453" y="580" type="line"/>
      <point x="561" y="580" type="line"/>
      <point x="561" y="234" type="line"/>
      <point x="668" y="234" type="line"/>
      <point x="668" y="134" type="line"/>
    </contour>
  </outline>
</glyph>
<glyph name="circlednumrev11" format="2">
  <advance width="1000"/>
  <anchor x="500" y="357" name="C"/>
  <anchor x="370" y="357" name="L"/>
  <anchor x="630" y="357" name="R"/>
  <anchor x="640" y="357" name="_L"/>
  <anchor x="360" y="357" name="_R"/>
  <anchor x="500" y="0" name="center"/>
  <outline>
    <contour>
      <point x="500" y="-55" type="curve" smooth="yes"/>
      <point x="728" y="-55"/>
      <point x="912" y="129"/>
      <point x="912" y="357" type="curve" smooth="yes"/>
      <point x="912" y="584"/>
      <point x="728" y="769"/>
      <point x="500" y="769" type="curve" smooth="yes"/>
      <point x="272" y="769"/>
      <point x="88" y="584"/>
      <point x="88" y="357" type="curve" smooth="yes"/>
      <point x="88" y="129"/>
      <point x="272" y="-55"/>
    </contour>
    <contour>
      <point x="253" y="172" type="line"/>
      <point x="253" y="255" type="line"/>
      <point x="328" y="255" type="line"/>
      <point x="328" y="355" type="line" smooth="yes"/>
      <point x="328" y="364"/>
      <point x="328" y="405"/>
      <point x="329" y="433" type="curve"/>
      <point x="320" y="423"/>
      <point x="315" y="414"/>
      <point x="307" y="407" type="curve" smooth="yes"/>
      <point x="295" y="396"/>
      <point x="281" y="386"/>
      <point x="268" y="375" type="curve"/>
      <point x="220" y="438" type="line"/>
      <point x="339" y="541" type="line"/>
      <point x="422" y="541" type="line"/>
      <point x="422" y="255" type="line"/>
      <point x="497" y="255" type="line"/>
      <point x="497" y="172" type="line"/>
    </contour>
    <contour>
      <point x="523" y="172" type="line"/>
      <point x="523" y="255" type="line"/>
      <point x="598" y="255" type="line"/>
      <point x="598" y="355" type="line" smooth="yes"/>
      <point x="598" y="364"/>
      <point x="598" y="405"/>
      <point x="599" y="433" type="curve"/>
      <point x="590" y="423"/>
      <point x="585" y="414"/>
      <point x="577" y="407" type="curve" smooth="yes"/>
      <point x="565" y="396"/>
      <point x="551" y="386"/>
      <point x="538" y="375" type="curve"/>
      <point x="490" y="438" type="line"/>
      <point x="609" y="541" type="line"/>
      <point x="692" y="541" type="line"/>
      <point x="692" y="255" type="line"/>
      <point x="767" y="255" type="line"/>
      <point x="767" y="172" type="line"/>
    </contour>
  </outline>
</glyph>
<glyph name="circlednumrev18" format="2">
  <advance width="1000"/>
  <anchor x="500" y="357" name="C"/>
  <anchor x="370" y="357" name="L"/>
  <anchor x="630" y="357" name="R"/>
  <anchor x="650" y="357" name="_L"/>
  <anchor x="360" y="357" name="_R"/>
  <anchor x="500" y="0" name="center"/>
  <outline>
    <contour>
      <point x="500" y="-55" type="curve" smooth="yes"/>
      <point x="728" y="-55"/>
      <point x="912" y="129"/>
      <point x="912" y="357" type="curve" smooth="yes"/>
      <point x="912" y="584"/>
      <point x="728" y="769"/>
      <point x="500" y="769" type="curve" smooth="yes"/>
      <point x="272" y="769"/>
      <point x="88" y="584"/>
      <point x="88" y="357" type="curve" smooth="yes"/>
      <point x="88" y="129"/>
      <point x="272" y="-55"/>
    </contour>
    <contour>
      <point x="253" y="172" type="line"/>
      <point x="253" y="255" type="line"/>
      <point x="328" y="255" type="line"/>
      <point x="328" y="355" type="line" smooth="yes"/>
      <point x="328" y="364"/>
      <point x="328" y="405"/>
      <point x="329" y="433" type="curve"/>
      <point x="320" y="423"/>
      <point x="315" y="414"/>
      <point x="307" y="407" type="curve" smooth="yes"/>
      <point x="295" y="396"/>
      <point x="281" y="386"/>
      <point x="268" y="375" type="curve"/>
      <point x="220" y="438" type="line"/>
      <point x="339" y="541" type="line"/>
      <point x="422" y="541" type="line"/>
      <point x="422" y="255" type="line"/>
      <point x="497" y="255" type="line"/>
      <point x="497" y="172" type="line"/>
    </contour>
    <contour>
      <point x="639" y="168" type="curve" smooth="yes"/>
      <point x="551" y="168"/>
      <point x="513" y="209"/>
      <point x="513" y="271" type="curve" smooth="yes"/>
      <point x="513" y="321"/>
      <point x="539" y="345"/>
      <point x="575" y="365" type="curve"/>
      <point x="548" y="385"/>
      <point x="523" y="415"/>
      <point x="523" y="457" type="curve" smooth="yes"/>
      <point x="523" y="517"/>
      <point x="571" y="546"/>
      <point x="640" y="546" type="curve" smooth="yes"/>
      <point x="710" y="546"/>
      <point x="755" y="518"/>
      <point x="755" y="457" type="curve" smooth="yes"/>
      <point x="755" y="413"/>
      <point x="731" y="384"/>
      <point x="696" y="367" type="curve"/>
      <point x="729" y="348"/>
      <point x="766" y="320"/>
      <point x="766" y="271" type="curve" smooth="yes"/>
      <point x="766" y="211"/>
      <point x="726" y="168"/>
    </contour>
    <contour>
      <point x="638" y="239" type="curve" smooth="yes"/>
      <point x="667" y="239"/>
      <point x="679" y="252"/>
      <point x="679" y="272" type="curve" smooth="yes"/>
      <point x="679" y="295"/>
      <point x="656" y="310"/>
      <point x="644" y="319" type="curve" smooth="yes"/>
      <point x="638" y="323" type="line"/>
      <point x="617" y="311"/>
      <point x="599" y="296"/>
      <point x="599" y="274" type="curve" smooth="yes"/>
      <point x="599" y="254"/>
      <point x="614" y="239"/>
    </contour>
    <contour>
      <point x="638" y="411" type="curve"/>
      <point x="651" y="418"/>
      <point x="668" y="428"/>
      <point x="668" y="448" type="curve" smooth="yes"/>
      <point x="668" y="464"/>
      <point x="655" y="475"/>
      <point x="639" y="475" type="curve" smooth="yes"/>
      <point x="624" y="475"/>
      <point x="612" y="464"/>
      <point x="612" y="448" type="curve" smooth="yes"/>
      <point x="612" y="432"/>
      <point x="622" y="419"/>
    </contour>
  </outline>
</glyph>
<glyph name="circlednumrev19" format="2">
  <advance width="1000"/>
  <anchor x="500" y="357" name="C"/>
  <anchor x="370" y="357" name="L"/>
  <anchor x="630" y="357" name="R"/>
  <anchor x="650" y="357" name="_L"/>
  <anchor x="360" y="357" name="_R"/>
  <anchor x="500" y="0" name="center"/>
  <outline>
    <contour>
      <point x="500" y="-55" type="curve" smooth="yes"/>
      <point x="728" y="-55"/>
      <point x="912" y="129"/>
      <point x="912" y="357" type="curve" smooth="yes"/>
      <point x="912" y="584"/>
      <point x="728" y="769"/>
      <point x="500" y="769" type="curve" smooth="yes"/>
      <point x="272" y="769"/>
      <point x="88" y="584"/>
      <point x="88" y="357" type="curve" smooth="yes"/>
      <point x="88" y="129"/>
      <point x="272" y="-55"/>
    </contour>
    <contour>
      <point x="253" y="172" type="line"/>
      <point x="253" y="255" type="line"/>
      <point x="328" y="255" type="line"/>
      <point x="328" y="355" type="line" smooth="yes"/>
      <point x="328" y="364"/>
      <point x="328" y="405"/>
      <point x="329" y="433" type="curve"/>
      <point x="320" y="423"/>
      <point x="315" y="414"/>
      <point x="307" y="407" type="curve" smooth="yes"/>
      <point x="295" y="396"/>
      <point x="281" y="386"/>
      <point x="268" y="375" type="curve"/>
      <point x="220" y="438" type="line"/>
      <point x="339" y="541" type="line"/>
      <point x="422" y="541" type="line"/>
      <point x="422" y="255" type="line"/>
      <point x="497" y="255" type="line"/>
      <point x="497" y="172" type="line"/>
    </contour>
    <contour>
      <point x="585" y="168" type="curve" smooth="yes"/>
      <point x="571" y="168"/>
      <point x="550" y="168"/>
      <point x="536" y="170" type="curve"/>
      <point x="536" y="249" type="line"/>
      <point x="550" y="247"/>
      <point x="562" y="245"/>
      <point x="577" y="245" type="curve" smooth="yes"/>
      <point x="661" y="245"/>
      <point x="681" y="289"/>
      <point x="684" y="336" type="curve"/>
      <point x="681" y="336" type="line"/>
      <point x="668" y="311"/>
      <point x="654" y="294"/>
      <point x="608" y="294" type="curve" smooth="yes"/>
      <point x="552" y="294"/>
      <point x="514" y="336"/>
      <point x="514" y="414" type="curve" smooth="yes"/>
      <point x="514" y="496"/>
      <point x="560" y="544"/>
      <point x="636" y="544" type="curve" smooth="yes"/>
      <point x="711" y="544"/>
      <point x="766" y="495"/>
      <point x="766" y="372" type="curve" smooth="yes"/>
      <point x="766" y="235"/>
      <point x="715" y="168"/>
    </contour>
    <contour>
      <point x="638" y="370" type="curve" smooth="yes"/>
      <point x="661" y="370"/>
      <point x="675" y="391"/>
      <point x="675" y="411" type="curve" smooth="yes"/>
      <point x="675" y="437"/>
      <point x="662" y="464"/>
      <point x="638" y="464" type="curve" smooth="yes"/>
      <point x="618" y="464"/>
      <point x="603" y="449"/>
      <point x="603" y="415" type="curve" smooth="yes"/>
      <point x="603" y="387"/>
      <point x="616" y="370"/>
    </contour>
  </outline>
</glyph>
<glyph name="circlednumrev22" format="2">
  <advance width="1000"/>
  <anchor x="500" y="357" name="C"/>
  <anchor x="370" y="357" name="L"/>
  <anchor x="630" y="357" name="R"/>
  <anchor x="650" y="357" name="_L"/>
  <anchor x="350" y="357" name="_R"/>
  <anchor x="500" y="0" name="center"/>
  <outline>
    <contour>
      <point x="500" y="-55" type="curve" smooth="yes"/>
      <point x="728" y="-55"/>
      <point x="912" y="129"/>
      <point x="912" y="357" type="curve" smooth="yes"/>
      <point x="912" y="584"/>
      <point x="728" y="769"/>
      <point x="500" y="769" type="curve" smooth="yes"/>
      <point x="272" y="769"/>
      <point x="88" y="584"/>
      <point x="88" y="357" type="curve" smooth="yes"/>
      <point x="88" y="129"/>
      <point x="272" y="-55"/>
    </contour>
    <contour>
      <point x="241" y="174" type="line"/>
      <point x="241" y="240" type="line"/>
      <point x="325" y="330" type="line" smooth="yes"/>
      <point x="379" y="387"/>
      <point x="393" y="406"/>
      <point x="393" y="432" type="curve" smooth="yes"/>
      <point x="393" y="455"/>
      <point x="377" y="464"/>
      <point x="358" y="464" type="curve" smooth="yes"/>
      <point x="337" y="464"/>
      <point x="316" y="450"/>
      <point x="288" y="425" type="curve"/>
      <point x="237" y="489" type="line"/>
      <point x="268" y="519"/>
      <point x="301" y="547"/>
      <point x="369" y="547" type="curve" smooth="yes"/>
      <point x="440" y="547"/>
      <point x="485" y="506"/>
      <point x="485" y="448" type="curve" smooth="yes"/>
      <point x="485" y="383"/>
      <point x="453" y="345"/>
      <point x="386" y="282" type="curve" smooth="yes"/>
      <point x="361" y="258" type="line"/>
      <point x="361" y="257" type="line"/>
      <point x="492" y="257" type="line"/>
      <point x="492" y="174" type="line"/>
    </contour>
    <contour>
      <point x="521" y="174" type="line"/>
      <point x="521" y="240" type="line"/>
      <point x="605" y="330" type="line" smooth="yes"/>
      <point x="659" y="387"/>
      <point x="673" y="406"/>
      <point x="673" y="432" type="curve" smooth="yes"/>
      <point x="673" y="455"/>
      <point x="657" y="464"/>
      <point x="638" y="464" type="curve" smooth="yes"/>
      <point x="617" y="464"/>
      <point x="596" y="450"/>
      <point x="568" y="425" type="curve"/>
      <point x="517" y="489" type="line"/>
      <point x="548" y="519"/>
      <point x="581" y="547"/>
      <point x="649" y="547" type="curve" smooth="yes"/>
      <point x="720" y="547"/>
      <point x="765" y="506"/>
      <point x="765" y="448" type="curve" smooth="yes"/>
      <point x="765" y="383"/>
      <point x="733" y="345"/>
      <point x="666" y="282" type="curve" smooth="yes"/>
      <point x="641" y="258" type="line"/>
      <point x="641" y="257" type="line"/>
      <point x="772" y="257" type="line"/>
      <point x="772" y="174" type="line"/>
    </contour>
  </outline>
</glyph>
<glyph name="circlednumrev23" format="2">
  <advance width="1000"/>
  <anchor x="500" y="357" name="C"/>
  <anchor x="370" y="357" name="L"/>
  <anchor x="630" y="357" name="R"/>
  <anchor x="640" y="357" name="_L"/>
  <anchor x="350" y="357" name="_R"/>
  <anchor x="500" y="0" name="center"/>
  <outline>
    <contour>
      <point x="500" y="-55" type="curve" smooth="yes"/>
      <point x="728" y="-55"/>
      <point x="912" y="129"/>
      <point x="912" y="357" type="curve" smooth="yes"/>
      <point x="912" y="584"/>
      <point x="728" y="769"/>
      <point x="500" y="769" type="curve" smooth="yes"/>
      <point x="272" y="769"/>
      <point x="88" y="584"/>
      <point x="88" y="357" type="curve" smooth="yes"/>
      <point x="88" y="129"/>
      <point x="272" y="-55"/>
    </contour>
    <contour>
      <point x="241" y="174" type="line"/>
      <point x="241" y="240" type="line"/>
      <point x="325" y="330" type="line" smooth="yes"/>
      <point x="379" y="387"/>
      <point x="393" y="406"/>
      <point x="393" y="432" type="curve" smooth="yes"/>
      <point x="393" y="455"/>
      <point x="377" y="464"/>
      <point x="358" y="464" type="curve" smooth="yes"/>
      <point x="337" y="464"/>
      <point x="316" y="450"/>
      <point x="288" y="425" type="curve"/>
      <point x="237" y="489" type="line"/>
      <point x="268" y="519"/>
      <point x="301" y="547"/>
      <point x="369" y="547" type="curve" smooth="yes"/>
      <point x="440" y="547"/>
      <point x="485" y="506"/>
      <point x="485" y="448" type="curve" smooth="yes"/>
      <point x="485" y="383"/>
      <point x="453" y="345"/>
      <point x="386" y="282" type="curve" smooth="yes"/>
      <point x="361" y="258" type="line"/>
      <point x="361" y="257" type="line"/>
      <point x="492" y="257" type="line"/>
      <point x="492" y="174" type="line"/>
    </contour>
    <contour>
      <point x="612" y="168" type="curve" smooth="yes"/>
      <point x="567" y="168"/>
      <point x="538" y="175"/>
      <point x="508" y="187" type="curve"/>
      <point x="508" y="271" type="line"/>
      <point x="540" y="254"/>
      <point x="572" y="246"/>
      <point x="597" y="246" type="curve" smooth="yes"/>
      <point x="644" y="246"/>
      <point x="659" y="261"/>
      <point x="659" y="285" type="curve" smooth="yes"/>
      <point x="659" y="309"/>
      <point x="644" y="324"/>
      <point x="584" y="324" type="curve" smooth="yes"/>
      <point x="563" y="324" type="line"/>
      <point x="563" y="399" type="line"/>
      <point x="584" y="399" type="line" smooth="yes"/>
      <point x="637" y="399"/>
      <point x="655" y="415"/>
      <point x="655" y="438" type="curve" smooth="yes"/>
      <point x="655" y="457"/>
      <point x="640" y="466"/>
      <point x="616" y="466" type="curve" smooth="yes"/>
      <point x="585" y="466"/>
      <point x="557" y="449"/>
      <point x="549" y="442" type="curve"/>
      <point x="509" y="509" type="line"/>
      <point x="537" y="530"/>
      <point x="571" y="546"/>
      <point x="631" y="546" type="curve" smooth="yes"/>
      <point x="703" y="546"/>
      <point x="746" y="514"/>
      <point x="746" y="461" type="curve" smooth="yes"/>
      <point x="746" y="408"/>
      <point x="711" y="379"/>
      <point x="670" y="367" type="curve"/>
      <point x="670" y="365" type="line"/>
      <point x="725" y="358"/>
      <point x="757" y="331"/>
      <point x="757" y="278" type="curve" smooth="yes"/>
      <point x="757" y="218"/>
      <point x="712" y="168"/>
    </contour>
  </outline>
</glyph>
<glyph name="circlednumrev24" format="2">
  <advance width="1000"/>
  <anchor x="500" y="357" name="C"/>
  <anchor x="370" y="357" name="L"/>
  <anchor x="630" y="357" name="R"/>
  <anchor x="650" y="357" name="_L"/>
  <anchor x="350" y="357" name="_R"/>
  <anchor x="500" y="0" name="center"/>
  <outline>
    <contour>
      <point x="500" y="-55" type="curve" smooth="yes"/>
      <point x="728" y="-55"/>
      <point x="912" y="129"/>
      <point x="912" y="357" type="curve" smooth="yes"/>
      <point x="912" y="584"/>
      <point x="728" y="769"/>
      <point x="500" y="769" type="curve" smooth="yes"/>
      <point x="272" y="769"/>
      <point x="88" y="584"/>
      <point x="88" y="357" type="curve" smooth="yes"/>
      <point x="88" y="129"/>
      <point x="272" y="-55"/>
    </contour>
    <contour>
      <point x="241" y="174" type="line"/>
      <point x="241" y="240" type="line"/>
      <point x="325" y="330" type="line" smooth="yes"/>
      <point x="379" y="387"/>
      <point x="393" y="406"/>
      <point x="393" y="432" type="curve" smooth="yes"/>
      <point x="393" y="455"/>
      <point x="377" y="464"/>
      <point x="358" y="464" type="curve" smooth="yes"/>
      <point x="337" y="464"/>
      <point x="316" y="450"/>
      <point x="288" y="425" type="curve"/>
      <point x="237" y="489" type="line"/>
      <point x="268" y="519"/>
      <point x="301" y="547"/>
      <point x="369" y="547" type="curve" smooth="yes"/>
      <point x="440" y="547"/>
      <point x="485" y="506"/>
      <point x="485" y="448" type="curve" smooth="yes"/>
      <point x="485" y="383"/>
      <point x="453" y="345"/>
      <point x="386" y="282" type="curve" smooth="yes"/>
      <point x="361" y="258" type="line"/>
      <point x="361" y="257" type="line"/>
      <point x="492" y="257" type="line"/>
      <point x="492" y="174" type="line"/>
    </contour>
    <contour>
      <point x="639" y="173" type="line"/>
      <point x="639" y="244" type="line"/>
      <point x="501" y="244" type="line"/>
      <point x="501" y="317" type="line"/>
      <point x="645" y="541" type="line"/>
      <point x="732" y="541" type="line"/>
      <point x="732" y="318" type="line"/>
      <point x="770" y="318" type="line"/>
      <point x="770" y="244" type="line"/>
      <point x="732" y="244" type="line"/>
      <point x="732" y="173" type="line"/>
    </contour>
    <contour>
      <point x="582" y="318" type="line"/>
      <point x="639" y="318" type="line"/>
      <point x="639" y="361" type="line" smooth="yes"/>
      <point x="639" y="377"/>
      <point x="640" y="414"/>
      <point x="641" y="416" type="curve"/>
      <point x="638" y="416" type="line"/>
      <point x="632" y="401"/>
      <point x="628" y="393"/>
      <point x="619" y="379" type="curve" smooth="yes"/>
    </contour>
  </outline>
</glyph>
<glyph name="circlednumrev25" format="2">
  <advance width="1000"/>
  <anchor x="500" y="357" name="C"/>
  <anchor x="370" y="357" name="L"/>
  <anchor x="630" y="357" name="R"/>
  <anchor x="640" y="357" name="_L"/>
  <anchor x="350" y="357" name="_R"/>
  <anchor x="500" y="0" name="center"/>
  <outline>
    <contour>
      <point x="500" y="-55" type="curve" smooth="yes"/>
      <point x="728" y="-55"/>
      <point x="912" y="129"/>
      <point x="912" y="357" type="curve" smooth="yes"/>
      <point x="912" y="584"/>
      <point x="728" y="769"/>
      <point x="500" y="769" type="curve" smooth="yes"/>
      <point x="272" y="769"/>
      <point x="88" y="584"/>
      <point x="88" y="357" type="curve" smooth="yes"/>
      <point x="88" y="129"/>
      <point x="272" y="-55"/>
    </contour>
    <contour>
      <point x="241" y="174" type="line"/>
      <point x="241" y="240" type="line"/>
      <point x="325" y="330" type="line" smooth="yes"/>
      <point x="379" y="387"/>
      <point x="393" y="406"/>
      <point x="393" y="432" type="curve" smooth="yes"/>
      <point x="393" y="455"/>
      <point x="377" y="464"/>
      <point x="358" y="464" type="curve" smooth="yes"/>
      <point x="337" y="464"/>
      <point x="316" y="450"/>
      <point x="288" y="425" type="curve"/>
      <point x="237" y="489" type="line"/>
      <point x="268" y="519"/>
      <point x="301" y="547"/>
      <point x="369" y="547" type="curve" smooth="yes"/>
      <point x="440" y="547"/>
      <point x="485" y="506"/>
      <point x="485" y="448" type="curve" smooth="yes"/>
      <point x="485" y="383"/>
      <point x="453" y="345"/>
      <point x="386" y="282" type="curve" smooth="yes"/>
      <point x="361" y="258" type="line"/>
      <point x="361" y="257" type="line"/>
      <point x="492" y="257" type="line"/>
      <point x="492" y="174" type="line"/>
    </contour>
    <contour>
      <point x="622" y="165" type="curve" smooth="yes"/>
      <point x="581" y="165"/>
      <point x="549" y="171"/>
      <point x="522" y="186" type="curve"/>
      <point x="522" y="267" type="line"/>
      <point x="548" y="255"/>
      <point x="585" y="244"/>
      <point x="614" y="244" type="curve" smooth="yes"/>
      <point x="649" y="244"/>
      <point x="669" y="260"/>
      <point x="669" y="290" type="curve" smooth="yes"/>
      <point x="669" y="318"/>
      <point x="649" y="334"/>
      <point x="611" y="334" type="curve" smooth="yes"/>
      <point x="593" y="334"/>
      <point x="575" y="330"/>
      <point x="562" y="327" type="curve"/>
      <point x="529" y="344" type="line"/>
      <point x="542" y="539" type="line"/>
      <point x="738" y="539" type="line"/>
      <point x="738" y="456" type="line"/>
      <point x="622" y="456" type="line"/>
      <point x="617" y="408" type="line"/>
      <point x="627" y="409"/>
      <point x="635" y="412"/>
      <point x="658" y="412" type="curve" smooth="yes"/>
      <point x="715" y="412"/>
      <point x="763" y="369"/>
      <point x="763" y="293" type="curve" smooth="yes"/>
      <point x="763" y="210"/>
      <point x="716" y="165"/>
    </contour>
  </outline>
</glyph>
<glyph name="circlednumrev28" format="2">
  <advance width="1000"/>
  <anchor x="500" y="357" name="C"/>
  <anchor x="370" y="357" name="L"/>
  <anchor x="630" y="357" name="R"/>
  <anchor x="650" y="357" name="_L"/>
  <anchor x="350" y="357" name="_R"/>
  <anchor x="500" y="0" name="center"/>
  <outline>
    <contour>
      <point x="500" y="-55" type="curve" smooth="yes"/>
      <point x="728" y="-55"/>
      <point x="912" y="129"/>
      <point x="912" y="357" type="curve" smooth="yes"/>
      <point x="912" y="584"/>
      <point x="728" y="769"/>
      <point x="500" y="769" type="curve" smooth="yes"/>
      <point x="272" y="769"/>
      <point x="88" y="584"/>
      <point x="88" y="357" type="curve" smooth="yes"/>
      <point x="88" y="129"/>
      <point x="272" y="-55"/>
    </contour>
    <contour>
      <point x="241" y="174" type="line"/>
      <point x="241" y="240" type="line"/>
      <point x="325" y="330" type="line" smooth="yes"/>
      <point x="379" y="387"/>
      <point x="393" y="406"/>
      <point x="393" y="432" type="curve" smooth="yes"/>
      <point x="393" y="455"/>
      <point x="377" y="464"/>
      <point x="358" y="464" type="curve" smooth="yes"/>
      <point x="337" y="464"/>
      <point x="316" y="450"/>
      <point x="288" y="425" type="curve"/>
      <point x="237" y="489" type="line"/>
      <point x="268" y="519"/>
      <point x="301" y="547"/>
      <point x="369" y="547" type="curve" smooth="yes"/>
      <point x="440" y="547"/>
      <point x="485" y="506"/>
      <point x="485" y="448" type="curve" smooth="yes"/>
      <point x="485" y="383"/>
      <point x="453" y="345"/>
      <point x="386" y="282" type="curve" smooth="yes"/>
      <point x="361" y="258" type="line"/>
      <point x="361" y="257" type="line"/>
      <point x="492" y="257" type="line"/>
      <point x="492" y="174" type="line"/>
    </contour>
    <contour>
      <point x="639" y="168" type="curve" smooth="yes"/>
      <point x="551" y="168"/>
      <point x="513" y="209"/>
      <point x="513" y="271" type="curve" smooth="yes"/>
      <point x="513" y="321"/>
      <point x="539" y="345"/>
      <point x="575" y="365" type="curve"/>
      <point x="548" y="385"/>
      <point x="523" y="415"/>
      <point x="523" y="457" type="curve" smooth="yes"/>
      <point x="523" y="517"/>
      <point x="571" y="546"/>
      <point x="640" y="546" type="curve" smooth="yes"/>
      <point x="710" y="546"/>
      <point x="755" y="518"/>
      <point x="755" y="457" type="curve" smooth="yes"/>
      <point x="755" y="413"/>
      <point x="731" y="384"/>
      <point x="696" y="367" type="curve"/>
      <point x="729" y="348"/>
      <point x="766" y="320"/>
      <point x="766" y="271" type="curve" smooth="yes"/>
      <point x="766" y="211"/>
      <point x="726" y="168"/>
    </contour>
    <contour>
      <point x="638" y="239" type="curve" smooth="yes"/>
      <point x="667" y="239"/>
      <point x="679" y="252"/>
      <point x="679" y="272" type="curve" smooth="yes"/>
      <point x="679" y="295"/>
      <point x="656" y="310"/>
      <point x="644" y="319" type="curve" smooth="yes"/>
      <point x="638" y="323" type="line"/>
      <point x="617" y="311"/>
      <point x="599" y="296"/>
      <point x="599" y="274" type="curve" smooth="yes"/>
      <point x="599" y="254"/>
      <point x="614" y="239"/>
    </contour>
    <contour>
      <point x="638" y="411" type="curve"/>
      <point x="651" y="418"/>
      <point x="668" y="428"/>
      <point x="668" y="448" type="curve" smooth="yes"/>
      <point x="668" y="464"/>
      <point x="655" y="475"/>
      <point x="639" y="475" type="curve" smooth="yes"/>
      <point x="624" y="475"/>
      <point x="612" y="464"/>
      <point x="612" y="448" type="curve" smooth="yes"/>
      <point x="612" y="432"/>
      <point x="622" y="419"/>
    </contour>
  </outline>
</glyph>
<glyph name="circlednumrev30" format="2">
  <advance width="1000"/>
  <anchor x="500" y="357" name="C"/>
  <anchor x="370" y="357" name="L"/>
  <anchor x="630" y="357" name="R"/>
  <anchor x="650" y="357" name="_L"/>
  <anchor x="360" y="357" name="_R"/>
  <anchor x="500" y="0" name="center"/>
  <outline>
    <contour>
      <point x="500" y="-55" type="curve" smooth="yes"/>
      <point x="728" y="-55"/>
      <point x="912" y="129"/>
      <point x="912" y="357" type="curve" smooth="yes"/>
      <point x="912" y="584"/>
      <point x="728" y="769"/>
      <point x="500" y="769" type="curve" smooth="yes"/>
      <point x="272" y="769"/>
      <point x="88" y="584"/>
      <point x="88" y="357" type="curve" smooth="yes"/>
      <point x="88" y="129"/>
      <point x="272" y="-55"/>
    </contour>
    <contour>
      <point x="342" y="168" type="curve" smooth="yes"/>
      <point x="297" y="168"/>
      <point x="268" y="175"/>
      <point x="238" y="187" type="curve"/>
      <point x="238" y="271" type="line"/>
      <point x="270" y="254"/>
      <point x="302" y="246"/>
      <point x="327" y="246" type="curve" smooth="yes"/>
      <point x="374" y="246"/>
      <point x="389" y="261"/>
      <point x="389" y="285" type="curve" smooth="yes"/>
      <point x="389" y="309"/>
      <point x="374" y="324"/>
      <point x="314" y="324" type="curve" smooth="yes"/>
      <point x="293" y="324" type="line"/>
      <point x="293" y="399" type="line"/>
      <point x="314" y="399" type="line" smooth="yes"/>
      <point x="367" y="399"/>
      <point x="385" y="415"/>
      <point x="385" y="438" type="curve" smooth="yes"/>
      <point x="385" y="457"/>
      <point x="370" y="466"/>
      <point x="346" y="466" type="curve" smooth="yes"/>
      <point x="315" y="466"/>
      <point x="287" y="449"/>
      <point x="279" y="442" type="curve"/>
      <point x="239" y="509" type="line"/>
      <point x="267" y="530"/>
      <point x="301" y="546"/>
      <point x="361" y="546" type="curve" smooth="yes"/>
      <point x="433" y="546"/>
      <point x="476" y="514"/>
      <point x="476" y="461" type="curve" smooth="yes"/>
      <point x="476" y="408"/>
      <point x="441" y="379"/>
      <point x="400" y="367" type="curve"/>
      <point x="400" y="365" type="line"/>
      <point x="455" y="358"/>
      <point x="487" y="331"/>
      <point x="487" y="278" type="curve" smooth="yes"/>
      <point x="487" y="218"/>
      <point x="442" y="168"/>
    </contour>
    <contour>
      <point x="640" y="178" type="curve" smooth="yes"/>
      <point x="557" y="178"/>
      <point x="514" y="245"/>
      <point x="514" y="357" type="curve" smooth="yes"/>
      <point x="514" y="470"/>
      <point x="553" y="537"/>
      <point x="640" y="537" type="curve" smooth="yes"/>
      <point x="723" y="537"/>
      <point x="766" y="470"/>
      <point x="766" y="357" type="curve" smooth="yes"/>
      <point x="766" y="245"/>
      <point x="728" y="178"/>
    </contour>
    <contour>
      <point x="640" y="252" type="curve" smooth="yes"/>
      <point x="665" y="252"/>
      <point x="677" y="288"/>
      <point x="677" y="357" type="curve" smooth="yes"/>
      <point x="677" y="426"/>
      <point x="665" y="463"/>
      <point x="640" y="463" type="curve" smooth="yes"/>
      <point x="616" y="463"/>
      <point x="603" y="426"/>
      <point x="603" y="357" type="curve" smooth="yes"/>
      <point x="603" y="288"/>
      <point x="616" y="252"/>
    </contour>
  </outline>
</glyph>
<glyph name="circlednumrev32" format="2">
  <advance width="1000"/>
  <anchor x="500" y="357" name="C"/>
  <anchor x="370" y="357" name="L"/>
  <anchor x="630" y="357" name="R"/>
  <anchor x="650" y="357" name="_L"/>
  <anchor x="360" y="357" name="_R"/>
  <anchor x="500" y="0" name="center"/>
  <outline>
    <contour>
      <point x="500" y="-55" type="curve" smooth="yes"/>
      <point x="728" y="-55"/>
      <point x="912" y="129"/>
      <point x="912" y="357" type="curve" smooth="yes"/>
      <point x="912" y="584"/>
      <point x="728" y="769"/>
      <point x="500" y="769" type="curve" smooth="yes"/>
      <point x="272" y="769"/>
      <point x="88" y="584"/>
      <point x="88" y="357" type="curve" smooth="yes"/>
      <point x="88" y="129"/>
      <point x="272" y="-55"/>
    </contour>
    <contour>
      <point x="342" y="168" type="curve" smooth="yes"/>
      <point x="297" y="168"/>
      <point x="268" y="175"/>
      <point x="238" y="187" type="curve"/>
      <point x="238" y="271" type="line"/>
      <point x="270" y="254"/>
      <point x="302" y="246"/>
      <point x="327" y="246" type="curve" smooth="yes"/>
      <point x="374" y="246"/>
      <point x="389" y="261"/>
      <point x="389" y="285" type="curve" smooth="yes"/>
      <point x="389" y="309"/>
      <point x="374" y="324"/>
      <point x="314" y="324" type="curve" smooth="yes"/>
      <point x="293" y="324" type="line"/>
      <point x="293" y="399" type="line"/>
      <point x="314" y="399" type="line" smooth="yes"/>
      <point x="367" y="399"/>
      <point x="385" y="415"/>
      <point x="385" y="438" type="curve" smooth="yes"/>
      <point x="385" y="457"/>
      <point x="370" y="466"/>
      <point x="346" y="466" type="curve" smooth="yes"/>
      <point x="315" y="466"/>
      <point x="287" y="449"/>
      <point x="279" y="442" type="curve"/>
      <point x="239" y="509" type="line"/>
      <point x="267" y="530"/>
      <point x="301" y="546"/>
      <point x="361" y="546" type="curve" smooth="yes"/>
      <point x="433" y="546"/>
      <point x="476" y="514"/>
      <point x="476" y="461" type="curve" smooth="yes"/>
      <point x="476" y="408"/>
      <point x="441" y="379"/>
      <point x="400" y="367" type="curve"/>
      <point x="400" y="365" type="line"/>
      <point x="455" y="358"/>
      <point x="487" y="331"/>
      <point x="487" y="278" type="curve" smooth="yes"/>
      <point x="487" y="218"/>
      <point x="442" y="168"/>
    </contour>
    <contour>
      <point x="521" y="174" type="line"/>
      <point x="521" y="240" type="line"/>
      <point x="605" y="330" type="line" smooth="yes"/>
      <point x="659" y="387"/>
      <point x="673" y="406"/>
      <point x="673" y="432" type="curve" smooth="yes"/>
      <point x="673" y="455"/>
      <point x="657" y="464"/>
      <point x="638" y="464" type="curve" smooth="yes"/>
      <point x="617" y="464"/>
      <point x="596" y="450"/>
      <point x="568" y="425" type="curve"/>
      <point x="517" y="489" type="line"/>
      <point x="548" y="519"/>
      <point x="581" y="547"/>
      <point x="649" y="547" type="curve" smooth="yes"/>
      <point x="720" y="547"/>
      <point x="765" y="506"/>
      <point x="765" y="448" type="curve" smooth="yes"/>
      <point x="765" y="383"/>
      <point x="733" y="345"/>
      <point x="666" y="282" type="curve" smooth="yes"/>
      <point x="641" y="258" type="line"/>
      <point x="641" y="257" type="line"/>
      <point x="772" y="257" type="line"/>
      <point x="772" y="174" type="line"/>
    </contour>
  </outline>
</glyph>
<glyph name="circlednumrev34" format="2">
  <advance width="1000"/>
  <anchor x="500" y="357" name="C"/>
  <anchor x="370" y="357" name="L"/>
  <anchor x="630" y="357" name="R"/>
  <anchor x="650" y="357" name="_L"/>
  <anchor x="360" y="357" name="_R"/>
  <anchor x="500" y="0" name="center"/>
  <outline>
    <contour>
      <point x="500" y="-55" type="curve" smooth="yes"/>
      <point x="728" y="-55"/>
      <point x="912" y="129"/>
      <point x="912" y="357" type="curve" smooth="yes"/>
      <point x="912" y="584"/>
      <point x="728" y="769"/>
      <point x="500" y="769" type="curve" smooth="yes"/>
      <point x="272" y="769"/>
      <point x="88" y="584"/>
      <point x="88" y="357" type="curve" smooth="yes"/>
      <point x="88" y="129"/>
      <point x="272" y="-55"/>
    </contour>
    <contour>
      <point x="342" y="168" type="curve" smooth="yes"/>
      <point x="297" y="168"/>
      <point x="268" y="175"/>
      <point x="238" y="187" type="curve"/>
      <point x="238" y="271" type="line"/>
      <point x="270" y="254"/>
      <point x="302" y="246"/>
      <point x="327" y="246" type="curve" smooth="yes"/>
      <point x="374" y="246"/>
      <point x="389" y="261"/>
      <point x="389" y="285" type="curve" smooth="yes"/>
      <point x="389" y="309"/>
      <point x="374" y="324"/>
      <point x="314" y="324" type="curve" smooth="yes"/>
      <point x="293" y="324" type="line"/>
      <point x="293" y="399" type="line"/>
      <point x="314" y="399" type="line" smooth="yes"/>
      <point x="367" y="399"/>
      <point x="385" y="415"/>
      <point x="385" y="438" type="curve" smooth="yes"/>
      <point x="385" y="457"/>
      <point x="370" y="466"/>
      <point x="346" y="466" type="curve" smooth="yes"/>
      <point x="315" y="466"/>
      <point x="287" y="449"/>
      <point x="279" y="442" type="curve"/>
      <point x="239" y="509" type="line"/>
      <point x="267" y="530"/>
      <point x="301" y="546"/>
      <point x="361" y="546" type="curve" smooth="yes"/>
      <point x="433" y="546"/>
      <point x="476" y="514"/>
      <point x="476" y="461" type="curve" smooth="yes"/>
      <point x="476" y="408"/>
      <point x="441" y="379"/>
      <point x="400" y="367" type="curve"/>
      <point x="400" y="365" type="line"/>
      <point x="455" y="358"/>
      <point x="487" y="331"/>
      <point x="487" y="278" type="curve" smooth="yes"/>
      <point x="487" y="218"/>
      <point x="442" y="168"/>
    </contour>
    <contour>
      <point x="639" y="173" type="line"/>
      <point x="639" y="244" type="line"/>
      <point x="501" y="244" type="line"/>
      <point x="501" y="317" type="line"/>
      <point x="645" y="541" type="line"/>
      <point x="732" y="541" type="line"/>
      <point x="732" y="318" type="line"/>
      <point x="770" y="318" type="line"/>
      <point x="770" y="244" type="line"/>
      <point x="732" y="244" type="line"/>
      <point x="732" y="173" type="line"/>
    </contour>
    <contour>
      <point x="582" y="318" type="line"/>
      <point x="639" y="318" type="line"/>
      <point x="639" y="361" type="line" smooth="yes"/>
      <point x="639" y="377"/>
      <point x="640" y="414"/>
      <point x="641" y="416" type="curve"/>
      <point x="638" y="416" type="line"/>
      <point x="632" y="401"/>
      <point x="628" y="393"/>
      <point x="619" y="379" type="curve" smooth="yes"/>
    </contour>
  </outline>
</glyph>
<glyph name="circlednumrev35" format="2">
  <advance width="1000"/>
  <anchor x="500" y="357" name="C"/>
  <anchor x="370" y="357" name="L"/>
  <anchor x="630" y="357" name="R"/>
  <anchor x="640" y="357" name="_L"/>
  <anchor x="360" y="357" name="_R"/>
  <anchor x="500" y="0" name="center"/>
  <outline>
    <contour>
      <point x="500" y="-55" type="curve" smooth="yes"/>
      <point x="728" y="-55"/>
      <point x="912" y="129"/>
      <point x="912" y="357" type="curve" smooth="yes"/>
      <point x="912" y="584"/>
      <point x="728" y="769"/>
      <point x="500" y="769" type="curve" smooth="yes"/>
      <point x="272" y="769"/>
      <point x="88" y="584"/>
      <point x="88" y="357" type="curve" smooth="yes"/>
      <point x="88" y="129"/>
      <point x="272" y="-55"/>
    </contour>
    <contour>
      <point x="342" y="168" type="curve" smooth="yes"/>
      <point x="297" y="168"/>
      <point x="268" y="175"/>
      <point x="238" y="187" type="curve"/>
      <point x="238" y="271" type="line"/>
      <point x="270" y="254"/>
      <point x="302" y="246"/>
      <point x="327" y="246" type="curve" smooth="yes"/>
      <point x="374" y="246"/>
      <point x="389" y="261"/>
      <point x="389" y="285" type="curve" smooth="yes"/>
      <point x="389" y="309"/>
      <point x="374" y="324"/>
      <point x="314" y="324" type="curve" smooth="yes"/>
      <point x="293" y="324" type="line"/>
      <point x="293" y="399" type="line"/>
      <point x="314" y="399" type="line" smooth="yes"/>
      <point x="367" y="399"/>
      <point x="385" y="415"/>
      <point x="385" y="438" type="curve" smooth="yes"/>
      <point x="385" y="457"/>
      <point x="370" y="466"/>
      <point x="346" y="466" type="curve" smooth="yes"/>
      <point x="315" y="466"/>
      <point x="287" y="449"/>
      <point x="279" y="442" type="curve"/>
      <point x="239" y="509" type="line"/>
      <point x="267" y="530"/>
      <point x="301" y="546"/>
      <point x="361" y="546" type="curve" smooth="yes"/>
      <point x="433" y="546"/>
      <point x="476" y="514"/>
      <point x="476" y="461" type="curve" smooth="yes"/>
      <point x="476" y="408"/>
      <point x="441" y="379"/>
      <point x="400" y="367" type="curve"/>
      <point x="400" y="365" type="line"/>
      <point x="455" y="358"/>
      <point x="487" y="331"/>
      <point x="487" y="278" type="curve" smooth="yes"/>
      <point x="487" y="218"/>
      <point x="442" y="168"/>
    </contour>
    <contour>
      <point x="622" y="165" type="curve" smooth="yes"/>
      <point x="581" y="165"/>
      <point x="549" y="171"/>
      <point x="522" y="186" type="curve"/>
      <point x="522" y="267" type="line"/>
      <point x="548" y="255"/>
      <point x="585" y="244"/>
      <point x="614" y="244" type="curve" smooth="yes"/>
      <point x="649" y="244"/>
      <point x="669" y="260"/>
      <point x="669" y="290" type="curve" smooth="yes"/>
      <point x="669" y="318"/>
      <point x="649" y="334"/>
      <point x="611" y="334" type="curve" smooth="yes"/>
      <point x="593" y="334"/>
      <point x="575" y="330"/>
      <point x="562" y="327" type="curve"/>
      <point x="529" y="344" type="line"/>
      <point x="542" y="539" type="line"/>
      <point x="738" y="539" type="line"/>
      <point x="738" y="456" type="line"/>
      <point x="622" y="456" type="line"/>
      <point x="617" y="408" type="line"/>
      <point x="627" y="409"/>
      <point x="635" y="412"/>
      <point x="658" y="412" type="curve" smooth="yes"/>
      <point x="715" y="412"/>
      <point x="763" y="369"/>
      <point x="763" y="293" type="curve" smooth="yes"/>
      <point x="763" y="210"/>
      <point x="716" y="165"/>
    </contour>
  </outline>
</glyph>
<glyph name="circlednumrev39" format="2">
  <advance width="1000"/>
  <anchor x="500" y="357" name="C"/>
  <anchor x="370" y="357" name="L"/>
  <anchor x="630" y="357" name="R"/>
  <anchor x="650" y="357" name="_L"/>
  <anchor x="360" y="357" name="_R"/>
  <anchor x="500" y="0" name="center"/>
  <outline>
    <contour>
      <point x="500" y="-55" type="curve" smooth="yes"/>
      <point x="728" y="-55"/>
      <point x="912" y="129"/>
      <point x="912" y="357" type="curve" smooth="yes"/>
      <point x="912" y="584"/>
      <point x="728" y="769"/>
      <point x="500" y="769" type="curve" smooth="yes"/>
      <point x="272" y="769"/>
      <point x="88" y="584"/>
      <point x="88" y="357" type="curve" smooth="yes"/>
      <point x="88" y="129"/>
      <point x="272" y="-55"/>
    </contour>
    <contour>
      <point x="342" y="168" type="curve" smooth="yes"/>
      <point x="297" y="168"/>
      <point x="268" y="175"/>
      <point x="238" y="187" type="curve"/>
      <point x="238" y="271" type="line"/>
      <point x="270" y="254"/>
      <point x="302" y="246"/>
      <point x="327" y="246" type="curve" smooth="yes"/>
      <point x="374" y="246"/>
      <point x="389" y="261"/>
      <point x="389" y="285" type="curve" smooth="yes"/>
      <point x="389" y="309"/>
      <point x="374" y="324"/>
      <point x="314" y="324" type="curve" smooth="yes"/>
      <point x="293" y="324" type="line"/>
      <point x="293" y="399" type="line"/>
      <point x="314" y="399" type="line" smooth="yes"/>
      <point x="367" y="399"/>
      <point x="385" y="415"/>
      <point x="385" y="438" type="curve" smooth="yes"/>
      <point x="385" y="457"/>
      <point x="370" y="466"/>
      <point x="346" y="466" type="curve" smooth="yes"/>
      <point x="315" y="466"/>
      <point x="287" y="449"/>
      <point x="279" y="442" type="curve"/>
      <point x="239" y="509" type="line"/>
      <point x="267" y="530"/>
      <point x="301" y="546"/>
      <point x="361" y="546" type="curve" smooth="yes"/>
      <point x="433" y="546"/>
      <point x="476" y="514"/>
      <point x="476" y="461" type="curve" smooth="yes"/>
      <point x="476" y="408"/>
      <point x="441" y="379"/>
      <point x="400" y="367" type="curve"/>
      <point x="400" y="365" type="line"/>
      <point x="455" y="358"/>
      <point x="487" y="331"/>
      <point x="487" y="278" type="curve" smooth="yes"/>
      <point x="487" y="218"/>
      <point x="442" y="168"/>
    </contour>
    <contour>
      <point x="585" y="168" type="curve" smooth="yes"/>
      <point x="571" y="168"/>
      <point x="550" y="168"/>
      <point x="536" y="170" type="curve"/>
      <point x="536" y="249" type="line"/>
      <point x="550" y="247"/>
      <point x="562" y="245"/>
      <point x="577" y="245" type="curve" smooth="yes"/>
      <point x="661" y="245"/>
      <point x="681" y="289"/>
      <point x="684" y="336" type="curve"/>
      <point x="681" y="336" type="line"/>
      <point x="668" y="311"/>
      <point x="654" y="294"/>
      <point x="608" y="294" type="curve" smooth="yes"/>
      <point x="552" y="294"/>
      <point x="514" y="336"/>
      <point x="514" y="414" type="curve" smooth="yes"/>
      <point x="514" y="496"/>
      <point x="560" y="544"/>
      <point x="636" y="544" type="curve" smooth="yes"/>
      <point x="711" y="544"/>
      <point x="766" y="495"/>
      <point x="766" y="372" type="curve" smooth="yes"/>
      <point x="766" y="235"/>
      <point x="715" y="168"/>
    </contour>
    <contour>
      <point x="638" y="370" type="curve" smooth="yes"/>
      <point x="661" y="370"/>
      <point x="675" y="391"/>
      <point x="675" y="411" type="curve" smooth="yes"/>
      <point x="675" y="437"/>
      <point x="662" y="464"/>
      <point x="638" y="464" type="curve" smooth="yes"/>
      <point x="618" y="464"/>
      <point x="603" y="449"/>
      <point x="603" y="415" type="curve" smooth="yes"/>
      <point x="603" y="387"/>
      <point x="616" y="370"/>
    </contour>
  </outline>
</glyph>
<glyph name="circlednumrev4" format="2">
  <advance width="1000"/>
  <anchor x="500" y="357" name="C"/>
  <anchor x="370" y="357" name="L"/>
  <anchor x="630" y="357" name="R"/>
  <anchor x="500" y="0" name="center"/>
  <outline>
    <contour>
      <point x="500" y="-55" type="curve" smooth="yes"/>
      <point x="728" y="-55"/>
      <point x="912" y="129"/>
      <point x="912" y="357" type="curve" smooth="yes"/>
      <point x="912" y="584"/>
      <point x="728" y="769"/>
      <point x="500" y="769" type="curve" smooth="yes"/>
      <point x="272" y="769"/>
      <point x="88" y="584"/>
      <point x="88" y="357" type="curve" smooth="yes"/>
      <point x="88" y="129"/>
      <point x="272" y="-55"/>
    </contour>
    <contour>
      <point x="489" y="134" type="line"/>
      <point x="489" y="220" type="line"/>
      <point x="312" y="220" type="line"/>
      <point x="312" y="309" type="line"/>
      <point x="497" y="580" type="line"/>
      <point x="609" y="580" type="line"/>
      <point x="609" y="310" type="line"/>
      <point x="657" y="310" type="line"/>
      <point x="657" y="220" type="line"/>
      <point x="609" y="220" type="line"/>
      <point x="609" y="134" type="line"/>
    </contour>
    <contour>
      <point x="416" y="310" type="line"/>
      <point x="489" y="310" type="line"/>
      <point x="489" y="362" type="line" smooth="yes"/>
      <point x="489" y="381"/>
      <point x="491" y="426"/>
      <point x="492" y="428" type="curve"/>
      <point x="489" y="428" type="line"/>
      <point x="481" y="410"/>
      <point x="476" y="399"/>
      <point x="466" y="384" type="curve" smooth="yes"/>
    </contour>
  </outline>
</glyph>
<glyph name="circlednumrev41" format="2">
  <advance width="1000"/>
  <anchor x="500" y="357" name="C"/>
  <anchor x="370" y="357" name="L"/>
  <anchor x="630" y="357" name="R"/>
  <anchor x="640" y="357" name="_L"/>
  <anchor x="350" y="357" name="_R"/>
  <anchor x="500" y="0" name="center"/>
  <outline>
    <contour>
      <point x="500" y="-55" type="curve" smooth="yes"/>
      <point x="728" y="-55"/>
      <point x="912" y="129"/>
      <point x="912" y="357" type="curve" smooth="yes"/>
      <point x="912" y="584"/>
      <point x="728" y="769"/>
      <point x="500" y="769" type="curve" smooth="yes"/>
      <point x="272" y="769"/>
      <point x="88" y="584"/>
      <point x="88" y="357" type="curve" smooth="yes"/>
      <point x="88" y="129"/>
      <point x="272" y="-55"/>
    </contour>
    <contour>
      <point x="359" y="173" type="line"/>
      <point x="359" y="244" type="line"/>
      <point x="221" y="244" type="line"/>
      <point x="221" y="317" type="line"/>
      <point x="365" y="541" type="line"/>
      <point x="452" y="541" type="line"/>
      <point x="452" y="318" type="line"/>
      <point x="490" y="318" type="line"/>
      <point x="490" y="244" type="line"/>
      <point x="452" y="244" type="line"/>
      <point x="452" y="173" type="line"/>
    </contour>
    <contour>
      <point x="302" y="318" type="line"/>
      <point x="359" y="318" type="line"/>
      <point x="359" y="361" type="line" smooth="yes"/>
      <point x="359" y="377"/>
      <point x="360" y="414"/>
      <point x="361" y="416" type="curve"/>
      <point x="358" y="416" type="line"/>
      <point x="352" y="401"/>
      <point x="348" y="393"/>
      <point x="339" y="379" type="curve" smooth="yes"/>
    </contour>
    <contour>
      <point x="523" y="172" type="line"/>
      <point x="523" y="255" type="line"/>
      <point x="598" y="255" type="line"/>
      <point x="598" y="355" type="line" smooth="yes"/>
      <point x="598" y="364"/>
      <point x="598" y="405"/>
      <point x="599" y="433" type="curve"/>
      <point x="590" y="423"/>
      <point x="585" y="414"/>
      <point x="577" y="407" type="curve" smooth="yes"/>
      <point x="565" y="396"/>
      <point x="551" y="386"/>
      <point x="538" y="375" type="curve"/>
      <point x="490" y="438" type="line"/>
      <point x="609" y="541" type="line"/>
      <point x="692" y="541" type="line"/>
      <point x="692" y="255" type="line"/>
      <point x="767" y="255" type="line"/>
      <point x="767" y="172" type="line"/>
    </contour>
  </outline>
</glyph>
<glyph name="circlednumrev42" format="2">
  <advance width="1000"/>
  <anchor x="500" y="357" name="C"/>
  <anchor x="370" y="357" name="L"/>
  <anchor x="630" y="357" name="R"/>
  <anchor x="650" y="357" name="_L"/>
  <anchor x="350" y="357" name="_R"/>
  <anchor x="500" y="0" name="center"/>
  <outline>
    <contour>
      <point x="500" y="-55" type="curve" smooth="yes"/>
      <point x="728" y="-55"/>
      <point x="912" y="129"/>
      <point x="912" y="357" type="curve" smooth="yes"/>
      <point x="912" y="584"/>
      <point x="728" y="769"/>
      <point x="500" y="769" type="curve" smooth="yes"/>
      <point x="272" y="769"/>
      <point x="88" y="584"/>
      <point x="88" y="357" type="curve" smooth="yes"/>
      <point x="88" y="129"/>
      <point x="272" y="-55"/>
    </contour>
    <contour>
      <point x="359" y="173" type="line"/>
      <point x="359" y="244" type="line"/>
      <point x="221" y="244" type="line"/>
      <point x="221" y="317" type="line"/>
      <point x="365" y="541" type="line"/>
      <point x="452" y="541" type="line"/>
      <point x="452" y="318" type="line"/>
      <point x="490" y="318" type="line"/>
      <point x="490" y="244" type="line"/>
      <point x="452" y="244" type="line"/>
      <point x="452" y="173" type="line"/>
    </contour>
    <contour>
      <point x="302" y="318" type="line"/>
      <point x="359" y="318" type="line"/>
      <point x="359" y="361" type="line" smooth="yes"/>
      <point x="359" y="377"/>
      <point x="360" y="414"/>
      <point x="361" y="416" type="curve"/>
      <point x="358" y="416" type="line"/>
      <point x="352" y="401"/>
      <point x="348" y="393"/>
      <point x="339" y="379" type="curve" smooth="yes"/>
    </contour>
    <contour>
      <point x="521" y="174" type="line"/>
      <point x="521" y="240" type="line"/>
      <point x="605" y="330" type="line" smooth="yes"/>
      <point x="659" y="387"/>
      <point x="673" y="406"/>
      <point x="673" y="432" type="curve" smooth="yes"/>
      <point x="673" y="455"/>
      <point x="657" y="464"/>
      <point x="638" y="464" type="curve" smooth="yes"/>
      <point x="617" y="464"/>
      <point x="596" y="450"/>
      <point x="568" y="425" type="curve"/>
      <point x="517" y="489" type="line"/>
      <point x="548" y="519"/>
      <point x="581" y="547"/>
      <point x="649" y="547" type="curve" smooth="yes"/>
      <point x="720" y="547"/>
      <point x="765" y="506"/>
      <point x="765" y="448" type="curve" smooth="yes"/>
      <point x="765" y="383"/>
      <point x="733" y="345"/>
      <point x="666" y="282" type="curve" smooth="yes"/>
      <point x="641" y="258" type="line"/>
      <point x="641" y="257" type="line"/>
      <point x="772" y="257" type="line"/>
      <point x="772" y="174" type="line"/>
    </contour>
  </outline>
</glyph>
<glyph name="circlednumrev44" format="2">
  <advance width="1000"/>
  <anchor x="500" y="357" name="C"/>
  <anchor x="370" y="357" name="L"/>
  <anchor x="630" y="357" name="R"/>
  <anchor x="650" y="357" name="_L"/>
  <anchor x="350" y="357" name="_R"/>
  <anchor x="500" y="0" name="center"/>
  <outline>
    <contour>
      <point x="500" y="-55" type="curve" smooth="yes"/>
      <point x="728" y="-55"/>
      <point x="912" y="129"/>
      <point x="912" y="357" type="curve" smooth="yes"/>
      <point x="912" y="584"/>
      <point x="728" y="769"/>
      <point x="500" y="769" type="curve" smooth="yes"/>
      <point x="272" y="769"/>
      <point x="88" y="584"/>
      <point x="88" y="357" type="curve" smooth="yes"/>
      <point x="88" y="129"/>
      <point x="272" y="-55"/>
    </contour>
    <contour>
      <point x="359" y="173" type="line"/>
      <point x="359" y="244" type="line"/>
      <point x="221" y="244" type="line"/>
      <point x="221" y="317" type="line"/>
      <point x="365" y="541" type="line"/>
      <point x="452" y="541" type="line"/>
      <point x="452" y="318" type="line"/>
      <point x="490" y="318" type="line"/>
      <point x="490" y="244" type="line"/>
      <point x="452" y="244" type="line"/>
      <point x="452" y="173" type="line"/>
    </contour>
    <contour>
      <point x="302" y="318" type="line"/>
      <point x="359" y="318" type="line"/>
      <point x="359" y="361" type="line" smooth="yes"/>
      <point x="359" y="377"/>
      <point x="360" y="414"/>
      <point x="361" y="416" type="curve"/>
      <point x="358" y="416" type="line"/>
      <point x="352" y="401"/>
      <point x="348" y="393"/>
      <point x="339" y="379" type="curve" smooth="yes"/>
    </contour>
    <contour>
      <point x="639" y="173" type="line"/>
      <point x="639" y="244" type="line"/>
      <point x="501" y="244" type="line"/>
      <point x="501" y="317" type="line"/>
      <point x="645" y="541" type="line"/>
      <point x="732" y="541" type="line"/>
      <point x="732" y="318" type="line"/>
      <point x="770" y="318" type="line"/>
      <point x="770" y="244" type="line"/>
      <point x="732" y="244" type="line"/>
      <point x="732" y="173" type="line"/>
    </contour>
    <contour>
      <point x="582" y="318" type="line"/>
      <point x="639" y="318" type="line"/>
      <point x="639" y="361" type="line" smooth="yes"/>
      <point x="639" y="377"/>
      <point x="640" y="414"/>
      <point x="641" y="416" type="curve"/>
      <point x="638" y="416" type="line"/>
      <point x="632" y="401"/>
      <point x="628" y="393"/>
      <point x="619" y="379" type="curve" smooth="yes"/>
    </contour>
  </outline>
</glyph>
